999
dxflib 2.2.0.0
  0
SECTION
  2
HEADER
  9
$ACADVER
  1
AC1015
  9
$HANDSEED
  5
FFFF
  9
$DIMASZ
 40
2.5
  9
$GRIDMODE
 70
1
  9
$PLIMMIN
 10
0.0
 20
0.0
  9
$DIMEXE
 40
1.25
  9
$DIMGAP
 40
0.625
  9
$PLIMMAX
 10
210.0
 20
297.0
  9
$INSUNITS
 70
4
  9
$DIMSTYLE
  2
Standard
  9
$MEASUREMENT
 70
1
  9
$DIMEXO
 40
0.625
  9
$DIMTXT
 40
2.5
  0
ENDSEC
  0
SECTION
  2
TABLES
  0
TABLE
  2
VPORT
  5
8
100
AcDbSymbolTable
 70
1
  0
VPORT
  5
30
100
AcDbSymbolTableRecord
100
AcDbViewportTableRecord
  2
*Active
 70
0
 10
0.0
 20
0.0
 11
1.0
 21
1.0
 12
286.3055555555554861
 22
148.5
 13
0.0
 23
0.0
 14
10.0
 24
10.0
 15
10.0
 25
10.0
 16
0.0
 26
0.0
 36
1.0
 17
0.0
 27
0.0
 37
0.0
 40
297.0
 41
1.92798353909465
 42
50.0
 43
0.0
 44
0.0
 50
0.0
 51
0.0
 71
0
 72
100
 73
1
 74
3
 75
1
 76
1
 77
0
 78
0
281
0
 65
1
110
0.0
120
0.0
130
0.0
111
1.0
121
0.0
131
0.0
112
0.0
122
1.0
132
0.0
 79
0
146
0.0
  0
ENDTAB
  0
TABLE
  2
LTYPE
  5
5
100
AcDbSymbolTable
 70
21
  0
LTYPE
  5
14
100
AcDbSymbolTableRecord
100
AcDbLinetypeTableRecord
  2
ByBlock
 70
0
  3

 72
65
 73
0
 40
0.0
  0
LTYPE
  5
15
100
AcDbSymbolTableRecord
100
AcDbLinetypeTableRecord
  2
ByLayer
 70
0
  3

 72
65
 73
0
 40
0.0
  0
LTYPE
  5
16
100
AcDbSymbolTableRecord
100
AcDbLinetypeTableRecord
  2
CONTINUOUS
 70
0
  3
Solid line
 72
65
 73
0
 40
0.0
  0
LTYPE
  5
31
100
AcDbSymbolTableRecord
100
AcDbLinetypeTableRecord
  2
DOT
 70
0
  3
Dot . . . . . . . . . . . . . . . . . . . . . .
 72
65
 73
2
 40
6.3499999999999996
 49
0.0
 74
0
 49
-6.3499999999999996
 74
0
  0
LTYPE
  5
32
100
AcDbSymbolTableRecord
100
AcDbLinetypeTableRecord
  2
DOT2
 70
0
  3
Dot (.5x) .....................................
 72
65
 73
2
 40
3.1749999999999998
 49
0.0
 74
0
 49
-3.1749999999999998
 74
0
  0
LTYPE
  5
33
100
AcDbSymbolTableRecord
100
AcDbLinetypeTableRecord
  2
DOTX2
 70
0
  3
Dot (2x) .  .  .  .  .  .  .  .  .  .  .  .  .
 72
65
 73
2
 40
12.6999999999999993
 49
0.0
 74
0
 49
-12.6999999999999993
 74
0
  0
LTYPE
  5
34
100
AcDbSymbolTableRecord
100
AcDbLinetypeTableRecord
  2
DASHED
 70
0
  3
Dashed __ __ __ __ __ __ __ __ __ __ __ __ __ _
 72
65
 73
2
 40
19.0500000000000007
 49
12.6999999999999993
 74
0
 49
-6.3499999999999996
 74
0
  0
LTYPE
  5
35
100
AcDbSymbolTableRecord
100
AcDbLinetypeTableRecord
  2
DASHED2
 70
0
  3
Dashed (.5x) _ _ _ _ _ _ _ _ _ _ _ _ _ _ _ _ _
 72
65
 73
2
 40
9.5250000000000004
 49
6.3499999999999996
 74
0
 49
-3.1749999999999998
 74
0
  0
LTYPE
  5
36
100
AcDbSymbolTableRecord
100
AcDbLinetypeTableRecord
  2
DASHEDX2
 70
0
  3
Dashed (2x) ____  ____  ____  ____  ____  ___
 72
65
 73
2
 40
38.1000000000000014
 49
25.3999999999999986
 74
0
 49
-12.6999999999999993
 74
0
  0
LTYPE
  5
37
100
AcDbSymbolTableRecord
100
AcDbLinetypeTableRecord
  2
DASHDOT
 70
0
  3
Dash dot __ . __ . __ . __ . __ . __ . __ . __
 72
65
 73
4
 40
25.3999999999999986
 49
12.6999999999999993
 74
0
 49
-6.3499999999999996
 74
0
 49
0.0
 74
0
 49
-6.3499999999999996
 74
0
  0
LTYPE
  5
38
100
AcDbSymbolTableRecord
100
AcDbLinetypeTableRecord
  2
DASHDOT2
 70
0
  3
Dash dot (.5x) _._._._._._._._._._._._._._._.
 72
65
 73
4
 40
12.6999999999999993
 49
6.3499999999999996
 74
0
 49
-3.1749999999999998
 74
0
 49
0.0
 74
0
 49
-3.1749999999999998
 74
0
  0
LTYPE
  5
39
100
AcDbSymbolTableRecord
100
AcDbLinetypeTableRecord
  2
DASHDOTX2
 70
0
  3
Dash dot (2x) ____  .  ____  .  ____  .  ___
 72
65
 73
4
 40
50.7999999999999972
 49
25.3999999999999986
 74
0
 49
-12.6999999999999993
 74
0
 49
0.0
 74
0
 49
-12.6999999999999993
 74
0
  0
LTYPE
  5
3A
100
AcDbSymbolTableRecord
100
AcDbLinetypeTableRecord
  2
DIVIDE
 70
0
  3
Divide ____ . . ____ . . ____ . . ____ . . ____
 72
65
 73
6
 40
31.75
 49
12.6999999999999993
 74
0
 49
-6.3499999999999996
 74
0
 49
0.0
 74
0
 49
-6.3499999999999996
 74
0
 49
0.0
 74
0
 49
-6.3499999999999996
 74
0
  0
LTYPE
  5
3B
100
AcDbSymbolTableRecord
100
AcDbLinetypeTableRecord
  2
DIVIDE2
 70
0
  3
Divide (.5x) __..__..__..__..__..__..__..__.._
 72
65
 73
6
 40
15.875
 49
6.3499999999999996
 74
0
 49
-3.1749999999999998
 74
0
 49
0.0
 74
0
 49
-3.1749999999999998
 74
0
 49
0.0
 74
0
 49
-3.1749999999999998
 74
0
  0
LTYPE
  5
3C
100
AcDbSymbolTableRecord
100
AcDbLinetypeTableRecord
  2
DIVIDEX2
 70
0
  3
Divide (2x) ________  .  .  ________  .  .  _
 72
65
 73
6
 40
63.5
 49
25.3999999999999986
 74
0
 49
-12.6999999999999993
 74
0
 49
0.0
 74
0
 49
-12.6999999999999993
 74
0
 49
0.0
 74
0
 49
-12.6999999999999993
 74
0
  0
LTYPE
  5
3D
100
AcDbSymbolTableRecord
100
AcDbLinetypeTableRecord
  2
CENTER
 70
0
  3
Center ____ _ ____ _ ____ _ ____ _ ____ _ ____
 72
65
 73
4
 40
50.7999999999999972
 49
31.75
 74
0
 49
-6.3499999999999996
 74
0
 49
6.3499999999999996
 74
0
 49
-6.3499999999999996
 74
0
  0
LTYPE
  5
3E
100
AcDbSymbolTableRecord
100
AcDbLinetypeTableRecord
  2
CENTER2
 70
0
  3
Center (.5x) ___ _ ___ _ ___ _ ___ _ ___ _ ___
 72
65
 73
4
 40
28.5749999999999993
 49
19.0500000000000007
 74
0
 49
-3.1749999999999998
 74
0
 49
3.1749999999999998
 74
0
 49
-3.1749999999999998
 74
0
  0
LTYPE
  5
3F
100
AcDbSymbolTableRecord
100
AcDbLinetypeTableRecord
  2
CENTERX2
 70
0
  3
Center (2x) ________  __  ________  __  _____
 72
65
 73
4
 40
101.5999999999999943
 49
63.5
 74
0
 49
-12.6999999999999993
 74
0
 49
12.6999999999999993
 74
0
 49
-12.6999999999999993
 74
0
  0
LTYPE
  5
40
100
AcDbSymbolTableRecord
100
AcDbLinetypeTableRecord
  2
BORDER
 70
0
  3
Border __ __ . __ __ . __ __ . __ __ . __ __ .
 72
65
 73
6
 40
44.4500000000000028
 49
12.6999999999999993
 74
0
 49
-6.3499999999999996
 74
0
 49
12.6999999999999993
 74
0
 49
-6.3499999999999996
 74
0
 49
0.0
 74
0
 49
-6.3499999999999996
 74
0
  0
LTYPE
  5
41
100
AcDbSymbolTableRecord
100
AcDbLinetypeTableRecord
  2
BORDER2
 70
0
  3
Border (.5x) __.__.__.__.__.__.__.__.__.__.__.
 72
65
 73
6
 40
22.2250000000000014
 49
6.3499999999999996
 74
0
 49
-3.1749999999999998
 74
0
 49
6.3499999999999996
 74
0
 49
-3.1749999999999998
 74
0
 49
0.0
 74
0
 49
-3.1749999999999998
 74
0
  0
LTYPE
  5
42
100
AcDbSymbolTableRecord
100
AcDbLinetypeTableRecord
  2
BORDERX2
 70
0
  3
Border (2x) ____  ____  .  ____  ____  .  ___
 72
65
 73
6
 40
88.9000000000000057
 49
25.3999999999999986
 74
0
 49
-12.6999999999999993
 74
0
 49
25.3999999999999986
 74
0
 49
-12.6999999999999993
 74
0
 49
0.0
 74
0
 49
-12.6999999999999993
 74
0
  0
ENDTAB
  0
TABLE
  2
LAYER
  5
2
100
AcDbSymbolTable
 70
3
  0
LAYER
  5
10
100
AcDbSymbolTableRecord
100
AcDbLayerTableRecord
  2
0
 70
0
 62
7
  6
CONTINUOUS
290
1
390
F
  0
LAYER
  5
43
100
AcDbSymbolTableRecord
100
AcDbLayerTableRecord
  2
png
 70
0
 62
7
  6
CONTINUOUS
290
1
390
F
  0
LAYER
  5
44
100
AcDbSymbolTableRecord
100
AcDbLayerTableRecord
  2
lines
 70
0
 62
7
  6
CONTINUOUS
290
1
390
F
  0
ENDTAB
  0
TABLE
  2
STYLE
  5
3
100
AcDbSymbolTable
 70
1
  0
STYLE
  5
11
100
AcDbSymbolTableRecord
100
AcDbTextStyleTableRecord
  2
Standard
 70
0
 40
0.0
 41
0.75
 50
0.0
 71
0
 42
2.5
  3
txt
  4

  0
ENDTAB
  0
TABLE
  2
VIEW
  5
6
100
AcDbSymbolTable
 70
0
  0
ENDTAB
  0
TABLE
  2
UCS
  5
7
100
AcDbSymbolTable
 70
0
  0
ENDTAB
  0
TABLE
  2
APPID
  5
9
100
AcDbSymbolTable
 70
1
  0
APPID
  5
12
100
AcDbSymbolTableRecord
100
AcDbRegAppTableRecord
  2
ACAD
 70
0
  0
ENDTAB
  0
TABLE
  2
DIMSTYLE
  5
A
100
AcDbSymbolTable
 70
1
100
AcDbDimStyleTable
 71
0
  0
DIMSTYLE
105
27
100
AcDbSymbolTableRecord
100
AcDbDimStyleTableRecord
  2
Standard
 41
2.5
 42
0.625
 43
3.75
 44
1.25
 70
0
 73
0
 74
0
 77
1
 78
8
140
2.5
141
2.5
143
0.03937007874016
147
0.625
171
3
172
1
271
2
272
2
274
3
278
44
283
0
284
8
340
11
  0
ENDTAB
  0
TABLE
  2
BLOCK_RECORD
  5
1
100
AcDbSymbolTable
 70
1
  0
BLOCK_RECORD
  5
1F
100
AcDbSymbolTableRecord
100
AcDbBlockTableRecord
  2
*Model_Space
340
22
  0
BLOCK_RECORD
  5
1B
100
AcDbSymbolTableRecord
100
AcDbBlockTableRecord
  2
*Paper_Space
340
1E
  0
BLOCK_RECORD
  5
23
100
AcDbSymbolTableRecord
100
AcDbBlockTableRecord
  2
*Paper_Space0
340
26
  0
ENDTAB
  0
ENDSEC
  0
SECTION
  2
BLOCKS
  0
BLOCK
  5
20
100
AcDbEntity
  8
0
100
AcDbBlockBegin
  2
*Model_Space
 70
0
 10
0.0
 20
0.0
 30
0.0
  3
*Model_Space
  1

  0
ENDBLK
  5
21
100
AcDbEntity
  8
0
100
AcDbBlockEnd
  0
BLOCK
  5
1C
100
AcDbEntity
 67
1
  8
0
100
AcDbBlockBegin
  2
*Paper_Space
 70
0
 10
0.0
 20
0.0
 30
0.0
  3
*Paper_Space
  1

  0
ENDBLK
  5
1D
100
AcDbEntity
 67
1
  8
0
100
AcDbBlockEnd
  0
BLOCK
  5
24
100
AcDbEntity
  8
0
100
AcDbBlockBegin
  2
*Paper_Space0
 70
0
 10
0.0
 20
0.0
 30
0.0
  3
*Paper_Space0
  1

  0
ENDBLK
  5
25
100
AcDbEntity
  8
0
100
AcDbBlockEnd
  0
ENDSEC
  0
SECTION
  2
ENTITIES
  0
LWPOLYLINE
  5
45
  8
lines
 62
7
370
-1
  6
ByLayer
100
AcDbEntity
100
AcDbPolyline
 90
99
 70
0
 10
-54.1026739914940649
 20
-18.0472425774375722
 10
-53.960131991494066
 20
42.3913064225624225
 10
-53.685848991494062
 20
43.5233594225624074
 10
-53.0810889914940631
 20
44.4808994225624303
 10
-52.1235489914940615
 20
45.4888334225624078
 10
-50.9140259914940643
 20
46.2951844225624143
 10
-49.7548969914940642
 20
46.8495484225624068
 10
-48.6965639914940596
 20
47.1519294225624321
 10
-43.1529149914940646
 20
47.1015334225624258
 10
-41.3386269914940598
 20
46.3959774225624244
 10
-39.9779149914940604
 20
45.1864554225624317
 10
-38.9699779914940621
 20
43.7249444225624302
 10
-38.4660079914940596
 20
42.1122474225624046
 10
-38.4660079914940596
 20
24.5237554225624308
 10
-37.9620409914940637
 20
23.9189924225624111
 10
-37.1052929914940606
 20
23.6670104225624129
 10
-36.046959991494063
 20
24.0197884225624136
 10
-32.9727559914940613
 20
25.3301034225624164
 10
-30.1001369914940682
 20
26.2372474225624046
 10
-26.5219599914940574
 20
26.6908184225624154
 10
-23.1453739914940684
 20
26.7916114225624256
 10
-19.9199779914940649
 20
26.6908184225624154
 10
-16.5433889914940693
 20
26.0356594225624178
 10
-13.2675969914940595
 20
24.8261364225624277
 10
-10.84854899149407
 20
23.6670104225624129
 10
-8.1775159914940616
 20
21.8527224225624082
 10
-5.5064849914940623
 20
19.4840734225624317
 10
-3.4402149914940594
 20
16.4602624225624083
 10
-1.9283109914940582
 20
14.0916114225624085
 10
-0.9707709914940637
 20
12.0757404225624043
 10
-0.4164039914940645
 20
10.8662144225624218
 10
0.2891510085059394
 20
13.4364554225624317
 10
1.246689008505939
 20
15.6539144225624227
 10
3.3129590085059419
 20
18.1737554225624081
 10
5.5304210085059395
 20
20.8447884225624307
 10
8.2518480085059309
 20
22.8606594225624065
 10
11.4268480085059423
 20
24.5237554225624308
 10
15.357800008505933
 20
25.834073422562426
 10
18.8855780085059308
 20
26.5396294225624274
 10
26.0419290085059316
 20
26.6404224225624091
 10
29.8720880085059406
 20
26.2876444225624084
 10
33.5006590085059344
 20
25.0277224225624195
 10
36.070896008505926
 20
23.9189924225624111
 10
38.0867700085059511
 20
22.5078814225624058
 10
38.7419290085059487
 20
23.2134374225624072
 10
41.9673250085059379
 20
25.430899422562419
 10
48.1661330085059234
 20
25.430899422562419
 10
50.030818008505932
 20
24.5237554225624308
 10
51.3411330085059348
 20
23.1630404225624318
 10
52.5002620085059419
 20
21.1471664225624068
 10
52.7018480085059338
 20
19.6856594225624235
 10
52.6625940085059341
 20
-39.0011735774375836
 10
52.0211450085059397
 20
-40.9967865774375753
 10
51.2371540085059252
 20
-42.4934955774375851
 10
50.0255350085059405
 20
-43.8476625774375748
 10
48.3862810085059465
 20
-44.6316535774375893
 10
41.4016360085059461
 20
-44.6316535774375893
 10
39.3347540085059251
 20
-43.4200305774375863
 10
37.9805860085059379
 20
-41.6382325774375772
 10
36.8402360085059257
 20
-39.2149905774375895
 10
37.0540510085059367
 20
-22.1810115774375731
 10
36.3413330085059414
 20
-21.7533795774375847
 10
35.4148000085059351
 20
-21.397020577437587
 10
31.9937500085059412
 20
-22.6799145774375859
 10
29.0003320085059357
 20
-23.6064505774375846
 10
24.6527460085059431
 20
-24.1766245774375932
 10
18.0244610085059378
 20
-24.105351577437574
 10
15.6012190085059359
 20
-23.6064505774375846
 10
12.4652560085059321
 20
-22.82245957743757
 10
9.4718380085059408
 20
-21.397020577437587
 10
7.1911380085059307
 20
-20.0428555774375923
 10
4.055175008505941
 20
-17.3345245774375769
 10
2.3446490085059395
 20
-15.2676395774375919
 10
0.7766670085059388
 20
-12.4880375774375807
 10
-0.2211379914940608
 20
-10.2073385774375822
 10
-0.7913139914940643
 20
-8.6393565774375816
 10
-1.3614879914940587
 20
-9.2095305774375902
 10
-3.3571009914940646
 20
-13.3432985774375936
 10
-5.2101689914940579
 20
-15.9090875774375888
 10
-7.2057819914940637
 20
-17.8334285774375871
 10
-9.6290239914940656
 20
-19.6864965774375946
 10
-12.551172991494056
 20
-21.183205577437576
 10
-15.9722219914940666
 20
-22.6086425774375925
 10
-19.8209039914940632
 20
-23.6064505774375846
 10
-23.1706809914940663
 20
-23.9628095774375822
 10
-26.8055479914940662
 20
-23.8915375774375889
 10
-31.6520349914940624
 20
-23.2500915774375869
 10
-34.4316389914940615
 20
-22.3235555774375882
 10
-36.71233799149406
 20
-21.3257505774375886
 10
-38.6366789914940654
 20
-20.4704875774375807
 10
-39.7770289914940633
 20
-19.7577695774375854
 10
-40.4897469914940658
 20
-21.183205577437576
 10
-41.7726389914940626
 20
-22.1097385774375823
 10
-43.1980789914940644
 20
-22.8937295774375684
 10
-49.5412739914940659
 20
-22.82245957743757
 10
-50.966710991494061
 20
-22.1810115774375731
 10
-52.6772379914940601
 20
-20.4704875774375807
 10
-53.8888599914940656
 20
-19.1163205774375911
 10
-54.1026739914940649
 20
-18.0472425774375722
  0
LWPOLYLINE
  5
46
  8
lines
 62
7
370
-1
  6
ByLayer
100
AcDbEntity
100
AcDbPolyline
 90
27
 70
0
 10
13.6768790085059351
 20
-3.7928675774375904
 10
13.3917890085059383
 20
-1.8685265774375921
 10
13.4630610085059317
 20
4.1183094225624188
 10
13.9619650085059419
 20
7.1117284225624076
 10
14.8172290085059331
 20
9.9626044225624071
 10
15.8150340085059327
 20
11.8869454225624054
 10
18.5233650085059338
 20
14.310186422562424
 10
20.5902510085059305
 20
15.1654504225624294
 10
23.2985790085059392
 20
15.4505364225624078
 10
25.7218240085059335
 20
15.0941774225624101
 10
27.7174370085059394
 20
13.8825554225624046
 10
29.4279610085059318
 20
12.5283904225624099
 10
30.995942008505935
 20
10.033873422562408
 10
32.2075640085059405
 20
6.2564644225624306
 10
32.6351960085059289
 20
3.4768634225624169
 10
32.2075640085059405
 20
-3.7928675774375904
 10
31.3523010085059326
 20
-6.5724715774375682
 10
30.0694090085059429
 20
-9.2095305774375902
 10
28.0025240085059437
 20
-11.2764155774375752
 10
25.9356410085059395
 20
-12.7018525774375917
 10
24.4389290085059372
 20
-13.2007565774375735
 10
21.5167830085059393
 20
-13.1294835774375827
 10
19.1648110085059358
 20
-12.345493577437594
 10
17.4542880085059409
 20
-10.8487845774375842
 10
15.458675008505935
 20
-8.496811577437569
 10
14.247052008505932
 20
-5.9310255774375946
 10
13.6768790085059351
 20
-3.7928675774375904
  0
LWPOLYLINE
  5
47
  8
lines
 62
7
370
-1
  6
ByLayer
100
AcDbEntity
100
AcDbPolyline
 90
27
 70
0
 10
-33.502796418033995
 20
-3.7928675774375904
 10
-33.7878864180339917
 20
-1.8685265774375921
 10
-33.7166144180339984
 20
4.1183094225624188
 10
-33.2177104180339882
 20
7.1117284225624084
 10
-32.362446418033997
 20
9.9626044225624071
 10
-31.3646414180339939
 20
11.8869454225624054
 10
-28.6563104180339927
 20
14.310186422562424
 10
-26.589424418033996
 20
15.1654504225624294
 10
-23.8810964180339873
 20
15.4505364225624078
 10
-21.457851418033993
 20
15.0941774225624101
 10
-19.4622384180339871
 20
13.8825554225624046
 10
-17.7517144180339947
 20
12.5283904225624099
 10
-16.1837334180339916
 20
10.033873422562408
 10
-14.972111418033986
 20
6.2564644225624315
 10
-14.5444794180339976
 20
3.4768634225624169
 10
-14.972111418033986
 20
-3.7928675774375904
 10
-15.8273744180339939
 20
-6.5724715774375673
 10
-17.1102664180339836
 20
-9.2095305774375902
 10
-19.1771514180339828
 20
-11.2764155774375752
 10
-21.2440344180339871
 20
-12.7018525774375917
 10
-22.7407464180339893
 20
-13.2007565774375735
 10
-25.6628924180339872
 20
-13.1294835774375827
 10
-28.0148644180339907
 20
-12.345493577437594
 10
-29.7253874180339857
 20
-10.8487845774375842
 10
-31.7210004180339915
 20
-8.496811577437569
 10
-32.9326234180339981
 20
-5.9310255774375937
 10
-33.502796418033995
 20
-3.7928675774375904
  0
ENDSEC
  0
SECTION
  2
OBJECTS
  0
DICTIONARY
  5
C
100
AcDbDictionary
280
0
281
1
  3
ACAD_GROUP
350
D
  3
ACAD_LAYOUT
350
1A
  3
ACAD_MLINESTYLE
350
17
  3
ACAD_PLOTSETTINGS
350
19
  3
ACAD_PLOTSTYLENAME
350
E
  3
AcDbVariableDictionary
350
48
  0
DICTIONARY
  5
D
100
AcDbDictionary
280
0
281
1
  0
ACDBDICTIONARYWDFLT
  5
E
100
AcDbDictionary
281
1
  3
Normal
350
F
100
AcDbDictionaryWithDefault
340
F
  0
ACDBPLACEHOLDER
  5
F
  0
DICTIONARY
  5
17
100
AcDbDictionary
280
0
281
1
  3
Standard
350
18
  0
MLINESTYLE
  5
18
100
AcDbMlineStyle
  2
STANDARD
 70
0
  3

 62
256
 51
90.0
 52
90.0
 71
2
 49
0.5
 62
256
  6
BYLAYER
 49
-0.5
 62
256
  6
BYLAYER
  0
DICTIONARY
  5
19
100
AcDbDictionary
280
0
281
1
  0
DICTIONARY
  5
1A
100
AcDbDictionary
281
1
  3
Layout1
350
1E
  3
Layout2
350
26
  3
Model
350
22
  0
LAYOUT
  5
1E
100
AcDbPlotSettings
  1

  2
C:\Program Files\AutoCAD 2002\plotters\DWF ePlot (optimized for plotting).pc3
  4

  6

 40
0.0
 41
0.0
 42
0.0
 43
0.0
 44
0.0
 45
0.0
 46
0.0
 47
0.0
 48
0.0
 49
0.0
140
0.0
141
0.0
142
1.0
143
1.0
 70
688
 72
0
 73
0
 74
5
  7

 75
16
147
1.0
148
0.0
149
0.0
100
AcDbLayout
  1
Layout1
 70
1
 71
1
 10
0.0
 20
0.0
 11
420.0
 21
297.0
 12
0.0
 22
0.0
 32
0.0
 14
100000000000000000000.0
 24
100000000000000000000.0
 34
100000000000000000000.0
 15
-100000000000000000000.0
 25
-100000000000000000000.0
 35
-100000000000000000000.0
146
0.0
 13
0.0
 23
0.0
 33
0.0
 16
1.0
 26
0.0
 36
0.0
 17
0.0
 27
1.0
 37
0.0
 76
0
330
1B
  0
LAYOUT
  5
22
100
AcDbPlotSettings
  1

  2
C:\Program Files\AutoCAD 2002\plotters\DWF ePlot (optimized for plotting).pc3
  4

  6

 40
0.0
 41
0.0
 42
0.0
 43
0.0
 44
0.0
 45
0.0
 46
0.0
 47
0.0
 48
0.0
 49
0.0
140
0.0
141
0.0
142
1.0
143
1.0
 70
1712
 72
0
 73
0
 74
0
  7

 75
0
147
1.0
148
0.0
149
0.0
100
AcDbLayout
  1
Model
 70
1
 71
0
 10
0.0
 20
0.0
 11
12.0
 21
9.0
 12
0.0
 22
0.0
 32
0.0
 14
0.0
 24
0.0
 34
0.0
 15
0.0
 25
0.0
 35
0.0
146
0.0
 13
0.0
 23
0.0
 33
0.0
 16
1.0
 26
0.0
 36
0.0
 17
0.0
 27
1.0
 37
0.0
 76
0
330
1F
  0
LAYOUT
  5
26
100
AcDbPlotSettings
  1

  2
C:\Program Files\AutoCAD 2002\plotters\DWF ePlot (optimized for plotting).pc3
  4

  6

 40
0.0
 41
0.0
 42
0.0
 43
0.0
 44
0.0
 45
0.0
 46
0.0
 47
0.0
 48
0.0
 49
0.0
140
0.0
141
0.0
142
1.0
143
1.0
 70
688
 72
0
 73
0
 74
5
  7

 75
16
147
1.0
148
0.0
149
0.0
100
AcDbLayout
  1
Layout2
 70
1
 71
2
 10
0.0
 20
0.0
 11
12.0
 21
9.0
 12
0.0
 22
0.0
 32
0.0
 14
0.0
 24
0.0
 34
0.0
 15
0.0
 25
0.0
 35
0.0
146
0.0
 13
0.0
 23
0.0
 33
0.0
 16
1.0
 26
0.0
 36
0.0
 17
0.0
 27
1.0
 37
0.0
 76
0
330
23
  0
DICTIONARY
  5
48
100
AcDbDictionary
281
1
  3
DIMASSOC
350
4A
  3
HIDETEXT
350
49
  0
DICTIONARYVAR
  5
49
100
DictionaryVariables
280
0
  1
2
  0
DICTIONARYVAR
  5
4A
100
DictionaryVariables
280
0
  1
1
  0
ENDSEC
  0
EOF
