999
dxflib 2.2.0.0
  0
SECTION
  2
HEADER
  9
$ACADVER
  1
AC1015
  9
$HANDSEED
  5
FFFF
  9
$OBSCOLOR
 70
257
  9
$DIMLIM
 70
0
  9
$LENSLENGTH
 40
50.0
  9
$LONGITUDE
 40
-122.3940000000000055
  9
$DIMLUNIT
 70
2
  9
$DIMTIX
 70
0
  9
$LOFTANG1
 40
1.570796326794897
  9
$AUNITS
 70
0
  9
$LOFTANG2
 40
1.570796326794897
  9
$SHOWHIST
280
1
  9
$QTEXTMODE
 70
0
  9
$USERR1
 40
0.0
  9
$DIMALTU
 70
2
  9
$UCSORGBOTTOM
 10
0.0
 20
0.0
 30
0.0
  9
$USERR2
 40
0.0
  9
$USERR3
 40
0.0
  9
$USERR4
 40
0.0
  9
$LIMMAX
 10
12.0
 20
9.0
  9
$USERR5
 40
0.0
  9
$PELEVATION
 40
0.0
  9
$DIMALTZ
 70
0
  9
$DIMADEC
 70
0
  9
$JOINSTYLE
280
0
  9
$DIMATFIT
 70
3
  9
$TILEMODE
 70
1
  9
$PEXTMIN
 10
100000000000000000000.0
 20
100000000000000000000.0
 30
100000000000000000000.0
  9
$TDUSRTIMER
 40
0.0000000116
  9
$DWGCODEPAGE
  3
ANSI_1252
  9
$SORTENTS
280
127
  9
$UCSORTHOVIEW
 70
0
  9
$DIMSOXD
 70
0
  9
$DIMTZIN
 70
0
  9
$SPLINETYPE
 70
6
  9
$DIMLFAC
 40
1.0
  9
$DIMSE1
 70
0
  9
$FILLETRAD
 40
0.5
  9
$DIMSE2
 70
0
  9
$PSTYLEMODE
290
1
  9
$TEXTSTYLE
  7
Standard
  9
$DIMTSZ
 40
0.0
  9
$PUCSXDIR
 10
1.0
 20
0.0
 30
0.0
  9
$DIMTFILL
 70
0
  9
$XCLIPFRAME
280
2
  9
$DIMTXSTY
  7
Standard
  9
$PLIMMAX
 10
12.0
 20
9.0
  9
$LOFTNORMALS
280
1
  9
$DIMTFILLCLR
 70
0
  9
$DIMTM
 40
0.0
  9
$UCSORG
 10
0.0
 20
0.0
 30
0.0
  9
$DIMJOGANG
 40
0.7853981633974483
  9
$DIMTP
 40
0.0
  9
$PSLTSCALE
 70
1
  9
$ANGBASE
 50
0.0
  9
$PUCSYDIR
 10
0.0
 20
1.0
 30
0.0
  9
$EXTNAMES
290
1
  9
$LIGHTGLYPHDISPLAY
280
1
  9
$DIMASZ
 40
2.5
  9
$PUCSORTHOVIEW
 70
0
  9
$INSBASE
 10
0.0
 20
0.0
 30
0.0
  9
$UNITMODE
 70
0
  9
$MEASUREMENT
 70
1
  9
$INDEXCTL
280
0
  9
$REALWORLDSCALE
290
1
  9
$EXTMAX
 10
-100000000000000000000.0
 20
-100000000000000000000.0
 30
-100000000000000000000.0
  9
$ELEVATION
 40
0.0
  9
$TDCREATE
 40
2456867.4733680440112948
  9
$STEPSPERSEC
 40
2.0
  9
$DIMDEC
 70
4
  9
$LATITUDE
 40
37.7950000000000017
  9
$CELTYPE
  6
ByLayer
  9
$MENU
  1
.
  9
$ANGDIR
 70
0
  9
$DIMALTTD
 70
2
  9
$TREEDEPTH
 70
3020
  9
$LTSCALE
 40
1.0
  9
$PROXYGRAPHICS
 70
1
  9
$DIMTMOVE
 70
0
  9
$DIMAZIN
 70
2
  9
$TDUPDATE
 40
2456867.4733796301297843
  9
$DIMTOLJ
 70
1
  9
$DIMCEN
 40
0.09
  9
$DIMTVP
 40
0.0
  9
$TRACEWID
 40
0.05
  9
$CMLSTYLE
  2
Standard
  9
$DISPSILH
 70
0
  9
$DIMSTYLE
  2
Standard
  9
$STEPSIZE
 40
6.0
  9
$SKETCHINC
 40
0.1
  9
$FILLMODE
 70
1
  9
$PLINEGEN
 70
0
  9
$DIMLWD
 70
-2
  9
$THICKNESS
 40
0.0
  9
$DIMLWE
 70
-2
  9
$CELTSCALE
 40
1.0
  9
$PUCSORG
 10
0.0
 20
0.0
 30
0.0
  9
$DIMALTTZ
 70
0
  9
$INSUNITS
 70
4
  9
$UCSORGBACK
 10
0.0
 20
0.0
 30
0.0
  9
$PLINEWID
 40
0.0
  9
$PEXTMAX
 10
-100000000000000000000.0
 20
-100000000000000000000.0
 30
-100000000000000000000.0
  9
$DIMJUST
 70
0
  9
$CSHADOW
280
0
  9
$DIMASSOC
280
2
  9
$DIMTXTDIRECTION
 70
0
  9
$UCSYDIR
 10
0.0
 20
1.0
 30
0.0
  9
$PUCSORGBACK
 10
0.0
 20
0.0
 30
0.0
  9
$GRIDMODE
 70
1
  9
$PDSIZE
 40
0.0
  9
$PUCSORGBOTTOM
 10
0.0
 20
0.0
 30
0.0
  9
$REQUIREDVERSIONS
160
0
  9
$DIMUPT
 70
0
  9
$TILEMODELIGHTSYNCH
280
1
  9
$DIMTAD
 70
0
  9
$SHADOWPLANELOCATION
 40
0.0
  9
$UCSXDIR
 10
1.0
 20
0.0
 30
0.0
  9
$MAXACTVP
 70
64
  9
$DIMSAH
 70
0
  9
$HALOGAP
280
0
  9
$TDUCREATE
 40
2456867.4317013891413808
  9
$DIMFRAC
 70
0
  9
$USERI1
 70
0
  9
$USERI2
 70
0
  9
$UCSORGRIGHT
 10
0.0
 20
0.0
 30
0.0
  9
$USERI3
 70
0
  9
$CELWEIGHT
370
-1
  9
$LWDISPLAY
290
0
  9
$SKPOLY
 70
0
  9
$USERI4
 70
0
  9
$USERI5
 70
0
  9
$LOFTPARAM
 70
7
  9
$LIMMIN
 10
0.0
 20
0.0
  9
$ACADMAINTVER
 70
8
  9
$UCSORGTOP
 10
0.0
 20
0.0
 30
0.0
  9
$PSOLHEIGHT
 40
4.0
  9
$MIRRTEXT
 70
1
  9
$TDUUPDATE
 40
2456867.4317129631526768
  9
$TEXTSIZE
 40
2.5
  9
$CMATERIAL
347
174
  9
$DIMGAP
 40
0.625
  9
$LUPREC
 70
4
  9
$INTERFERECOLOR
 62
256
  9
$CECOLOR
 62
178
  9
$TIMEZONE
 70
-8000
  9
$DIMSD1
 70
0
  9
$3DDWFPREC
 40
2.0
  9
$DIMSD2
 70
0
  9
$WORLDVIEW
 70
1
  9
$PUCSORGRIGHT
 10
0.0
 20
0.0
 30
0.0
  9
$PLIMCHECK
 70
0
  9
$DIMTFAC
 40
1.0
  9
$CMLJUST
 70
0
  9
$DWFFRAME
280
2
  9
$USRTIMER
 70
1
  9
$SURFU
 70
6
  9
$SURFV
 70
6
  9
$DIMASO
 70
1
  9
$PSOLWIDTH
 40
0.25
  9
$DIMDLE
 40
0.0
  9
$EXTMIN
 10
100000000000000000000.0
 20
100000000000000000000.0
 30
100000000000000000000.0
  9
$UCSORGLEFT
 10
0.0
 20
0.0
 30
0.0
  9
$OLESTARTUP
290
0
  9
$PUCSORGFRONT
 10
0.0
 20
0.0
 30
0.0
  9
$DIMDLI
 40
0.38
  9
$LUNITS
 70
2
  9
$DIMCLRD
 70
178
  9
$SHADEDIF
 70
70
  9
$DIMCLRE
 70
178
  9
$SPLINESEGS
 70
8
  9
$PUCSORGLEFT
 10
0.0
 20
0.0
 30
0.0
  9
$INTERSECTIONDISPLAY
280
0
  9
$DIMALTRND
 40
0.0
  9
$DIMRND
 40
0.0
  9
$DIMALT
 70
0
  9
$FINGERPRINTGUID
  2
{0294250F-E933-CE6C-73B3-0789F8C8324A}
  9
$DIMCLRT
 70
178
  9
$DIMFXLON
 70
0
  9
$PUCSORGTOP
 10
0.0
 20
0.0
 30
0.0
  9
$OBSLTYPE
280
0
  9
$DIMTOH
 70
1
  9
$UCSORGFRONT
 10
0.0
 20
0.0
 30
0.0
  9
$VISRETAIN
 70
1
  9
$SHADEDGE
 70
3
  9
$CAMERADISPLAY
290
0
  9
$DIMTOL
 70
0
  9
$SURFTYPE
 70
6
  9
$VERSIONGUID
  2
{FAEB1C32-E019-11D5-929B-00C0DF256EC4}
  9
$CHAMFERA
 40
0.0
  9
$SURFTAB1
 70
6
  9
$CHAMFERB
 40
0.0
  9
$SURFTAB2
 70
6
  9
$CHAMFERC
 40
0.0
  9
$AUPREC
 70
0
  9
$NORTHDIRECTION
 40
0.0
  9
$CHAMFERD
 40
0.0
  9
$DIMTDEC
 70
4
  9
$PDMODE
 70
0
  9
$SPLFRAME
 70
0
  9
$PLIMMIN
 10
0.0
 20
0.0
  9
$SOLIDHIST
280
1
  9
$XEDIT
290
1
  9
$CAMERAHEIGHT
 40
0.0
  9
$DIMDSEP
 70
46
  9
$DIMARCSYM
 70
0
  9
$LIMCHECK
 70
0
  9
$PINSBASE
 10
0.0
 20
0.0
 30
0.0
  9
$ORTHOMODE
 70
0
  9
$PSVPSCALE
 40
0.0
  9
$CLAYER
  8
0
  9
$DIMSHO
 70
1
  9
$DIMTOFL
 70
0
  9
$LOFTMAG1
 40
0.0
  9
$DIMTXT
 40
2.5
  9
$DIMEXE
 40
1.25
  9
$TDINDWG
 40
0.0000000116
  9
$LOFTMAG2
 40
0.0
  9
$REGENMODE
 70
1
  9
$ATTMODE
 70
1
  9
$CMLSCALE
 40
1.0
  9
$DIMTIH
 70
1
  9
$DIMZIN
 70
8
  9
$CEPSNTYPE
380
0
  9
$DIMFXL
 40
1.0
  9
$HIDETEXT
280
1
  9
$DIMSCALE
 40
1.0
  9
$INTERSECTIONCOLOR
 70
257
  9
$DIMALTD
 70
2
  9
$DIMAUNIT
 70
0
  9
$DIMALTF
 40
25.3999999999999986
  9
$DIMEXO
 40
0.625
  9
$DGNFRAME
280
2
  9
$ENDCAPS
280
0
  0
ENDSEC
  0
SECTION
  2
TABLES
  0
TABLE
  2
VPORT
  5
8
100
AcDbSymbolTable
 70
1
  0
VPORT
  5
30
100
AcDbSymbolTableRecord
100
AcDbViewportTableRecord
  2
*Active
 70
0
 10
0.0
 20
0.0
 11
1.0
 21
1.0
 12
286.3055555555554861
 22
148.5
 13
0.0
 23
0.0
 14
10.0
 24
10.0
 15
10.0
 25
10.0
 16
0.0
 26
0.0
 36
1.0
 17
0.0
 27
0.0
 37
0.0
 40
297.0
 41
1.92798353909465
 42
50.0
 43
0.0
 44
0.0
 50
0.0
 51
0.0
 71
0
 72
100
 73
1
 74
3
 75
1
 76
1
 77
0
 78
0
281
0
 65
1
110
0.0
120
0.0
130
0.0
111
1.0
121
0.0
131
0.0
112
0.0
122
1.0
132
0.0
 79
0
146
0.0
  0
ENDTAB
  0
TABLE
  2
LTYPE
  5
5
100
AcDbSymbolTable
 70
21
  0
LTYPE
  5
14
100
AcDbSymbolTableRecord
100
AcDbLinetypeTableRecord
  2
ByBlock
 70
0
  3

 72
65
 73
0
 40
0.0
  0
LTYPE
  5
15
100
AcDbSymbolTableRecord
100
AcDbLinetypeTableRecord
  2
ByLayer
 70
0
  3

 72
65
 73
0
 40
0.0
  0
LTYPE
  5
16
100
AcDbSymbolTableRecord
100
AcDbLinetypeTableRecord
  2
CONTINUOUS
 70
0
  3
Solid line
 72
65
 73
0
 40
0.0
  0
LTYPE
  5
31
100
AcDbSymbolTableRecord
100
AcDbLinetypeTableRecord
  2
DOT
 70
0
  3
Dot . . . . . . . . . . . . . . . . . . . . . .
 72
65
 73
2
 40
6.3499999999999996
 49
0.0
 74
0
 49
-6.3499999999999996
 74
0
  0
LTYPE
  5
32
100
AcDbSymbolTableRecord
100
AcDbLinetypeTableRecord
  2
DOT2
 70
0
  3
Dot (.5x) .....................................
 72
65
 73
2
 40
3.1749999999999998
 49
0.0
 74
0
 49
-3.1749999999999998
 74
0
  0
LTYPE
  5
33
100
AcDbSymbolTableRecord
100
AcDbLinetypeTableRecord
  2
DOTX2
 70
0
  3
Dot (2x) .  .  .  .  .  .  .  .  .  .  .  .  .
 72
65
 73
2
 40
12.6999999999999993
 49
0.0
 74
0
 49
-12.6999999999999993
 74
0
  0
LTYPE
  5
34
100
AcDbSymbolTableRecord
100
AcDbLinetypeTableRecord
  2
DASHED
 70
0
  3
Dashed __ __ __ __ __ __ __ __ __ __ __ __ __ _
 72
65
 73
2
 40
19.0500000000000007
 49
12.6999999999999993
 74
0
 49
-6.3499999999999996
 74
0
  0
LTYPE
  5
35
100
AcDbSymbolTableRecord
100
AcDbLinetypeTableRecord
  2
DASHED2
 70
0
  3
Dashed (.5x) _ _ _ _ _ _ _ _ _ _ _ _ _ _ _ _ _
 72
65
 73
2
 40
9.5250000000000004
 49
6.3499999999999996
 74
0
 49
-3.1749999999999998
 74
0
  0
LTYPE
  5
36
100
AcDbSymbolTableRecord
100
AcDbLinetypeTableRecord
  2
DASHEDX2
 70
0
  3
Dashed (2x) ____  ____  ____  ____  ____  ___
 72
65
 73
2
 40
38.1000000000000014
 49
25.3999999999999986
 74
0
 49
-12.6999999999999993
 74
0
  0
LTYPE
  5
37
100
AcDbSymbolTableRecord
100
AcDbLinetypeTableRecord
  2
DASHDOT
 70
0
  3
Dash dot __ . __ . __ . __ . __ . __ . __ . __
 72
65
 73
4
 40
25.3999999999999986
 49
12.6999999999999993
 74
0
 49
-6.3499999999999996
 74
0
 49
0.0
 74
0
 49
-6.3499999999999996
 74
0
  0
LTYPE
  5
38
100
AcDbSymbolTableRecord
100
AcDbLinetypeTableRecord
  2
DASHDOT2
 70
0
  3
Dash dot (.5x) _._._._._._._._._._._._._._._.
 72
65
 73
4
 40
12.6999999999999993
 49
6.3499999999999996
 74
0
 49
-3.1749999999999998
 74
0
 49
0.0
 74
0
 49
-3.1749999999999998
 74
0
  0
LTYPE
  5
39
100
AcDbSymbolTableRecord
100
AcDbLinetypeTableRecord
  2
DASHDOTX2
 70
0
  3
Dash dot (2x) ____  .  ____  .  ____  .  ___
 72
65
 73
4
 40
50.7999999999999972
 49
25.3999999999999986
 74
0
 49
-12.6999999999999993
 74
0
 49
0.0
 74
0
 49
-12.6999999999999993
 74
0
  0
LTYPE
  5
3A
100
AcDbSymbolTableRecord
100
AcDbLinetypeTableRecord
  2
DIVIDE
 70
0
  3
Divide ____ . . ____ . . ____ . . ____ . . ____
 72
65
 73
6
 40
31.75
 49
12.6999999999999993
 74
0
 49
-6.3499999999999996
 74
0
 49
0.0
 74
0
 49
-6.3499999999999996
 74
0
 49
0.0
 74
0
 49
-6.3499999999999996
 74
0
  0
LTYPE
  5
3B
100
AcDbSymbolTableRecord
100
AcDbLinetypeTableRecord
  2
DIVIDE2
 70
0
  3
Divide (.5x) __..__..__..__..__..__..__..__.._
 72
65
 73
6
 40
15.875
 49
6.3499999999999996
 74
0
 49
-3.1749999999999998
 74
0
 49
0.0
 74
0
 49
-3.1749999999999998
 74
0
 49
0.0
 74
0
 49
-3.1749999999999998
 74
0
  0
LTYPE
  5
3C
100
AcDbSymbolTableRecord
100
AcDbLinetypeTableRecord
  2
DIVIDEX2
 70
0
  3
Divide (2x) ________  .  .  ________  .  .  _
 72
65
 73
6
 40
63.5
 49
25.3999999999999986
 74
0
 49
-12.6999999999999993
 74
0
 49
0.0
 74
0
 49
-12.6999999999999993
 74
0
 49
0.0
 74
0
 49
-12.6999999999999993
 74
0
  0
LTYPE
  5
3D
100
AcDbSymbolTableRecord
100
AcDbLinetypeTableRecord
  2
CENTER
 70
0
  3
Center ____ _ ____ _ ____ _ ____ _ ____ _ ____
 72
65
 73
4
 40
50.7999999999999972
 49
31.75
 74
0
 49
-6.3499999999999996
 74
0
 49
6.3499999999999996
 74
0
 49
-6.3499999999999996
 74
0
  0
LTYPE
  5
3E
100
AcDbSymbolTableRecord
100
AcDbLinetypeTableRecord
  2
CENTER2
 70
0
  3
Center (.5x) ___ _ ___ _ ___ _ ___ _ ___ _ ___
 72
65
 73
4
 40
28.5749999999999993
 49
19.0500000000000007
 74
0
 49
-3.1749999999999998
 74
0
 49
3.1749999999999998
 74
0
 49
-3.1749999999999998
 74
0
  0
LTYPE
  5
3F
100
AcDbSymbolTableRecord
100
AcDbLinetypeTableRecord
  2
CENTERX2
 70
0
  3
Center (2x) ________  __  ________  __  _____
 72
65
 73
4
 40
101.5999999999999943
 49
63.5
 74
0
 49
-12.6999999999999993
 74
0
 49
12.6999999999999993
 74
0
 49
-12.6999999999999993
 74
0
  0
LTYPE
  5
40
100
AcDbSymbolTableRecord
100
AcDbLinetypeTableRecord
  2
BORDER
 70
0
  3
Border __ __ . __ __ . __ __ . __ __ . __ __ .
 72
65
 73
6
 40
44.4500000000000028
 49
12.6999999999999993
 74
0
 49
-6.3499999999999996
 74
0
 49
12.6999999999999993
 74
0
 49
-6.3499999999999996
 74
0
 49
0.0
 74
0
 49
-6.3499999999999996
 74
0
  0
LTYPE
  5
41
100
AcDbSymbolTableRecord
100
AcDbLinetypeTableRecord
  2
BORDER2
 70
0
  3
Border (.5x) __.__.__.__.__.__.__.__.__.__.__.
 72
65
 73
6
 40
22.2250000000000014
 49
6.3499999999999996
 74
0
 49
-3.1749999999999998
 74
0
 49
6.3499999999999996
 74
0
 49
-3.1749999999999998
 74
0
 49
0.0
 74
0
 49
-3.1749999999999998
 74
0
  0
LTYPE
  5
42
100
AcDbSymbolTableRecord
100
AcDbLinetypeTableRecord
  2
BORDERX2
 70
0
  3
Border (2x) ____  ____  .  ____  ____  .  ___
 72
65
 73
6
 40
88.9000000000000057
 49
25.3999999999999986
 74
0
 49
-12.6999999999999993
 74
0
 49
25.3999999999999986
 74
0
 49
-12.6999999999999993
 74
0
 49
0.0
 74
0
 49
-12.6999999999999993
 74
0
  0
ENDTAB
  0
TABLE
  2
LAYER
  5
2
100
AcDbSymbolTable
 70
4
  0
LAYER
  5
10
100
AcDbSymbolTableRecord
100
AcDbLayerTableRecord
  2
0
 70
0
 62
7
  6
CONTINUOUS
370
25
390
F
  0
LAYER
  5
43
100
AcDbSymbolTableRecord
100
AcDbLayerTableRecord
  2
Cotas
 70
5
 62
7
  6
CONTINUOUS
370
25
390
F
  0
LAYER
  5
44
100
AcDbSymbolTableRecord
100
AcDbLayerTableRecord
  2
Defpoints
 70
1
 62
7
  6
CONTINUOUS
290
0
370
-3
390
F
  0
LAYER
  5
45
100
AcDbSymbolTableRecord
100
AcDbLayerTableRecord
  2
AM_0
 70
1
 62
9
  6
CONTINUOUS
370
50
390
F
  0
ENDTAB
  0
TABLE
  2
STYLE
  5
3
100
AcDbSymbolTable
 70
1
  0
STYLE
  5
11
100
AcDbSymbolTableRecord
100
AcDbTextStyleTableRecord
  2
Standard
 70
0
 40
0.0
 41
0.75
 50
0.0
 71
0
 42
2.5
  3
txt
  4

  0
ENDTAB
  0
TABLE
  2
VIEW
  5
6
100
AcDbSymbolTable
 70
0
  0
ENDTAB
  0
TABLE
  2
UCS
  5
7
100
AcDbSymbolTable
 70
0
  0
ENDTAB
  0
TABLE
  2
APPID
  5
9
100
AcDbSymbolTable
 70
1
  0
APPID
  5
12
100
AcDbSymbolTableRecord
100
AcDbRegAppTableRecord
  2
ACAD
 70
0
  0
ENDTAB
  0
TABLE
  2
DIMSTYLE
  5
A
100
AcDbSymbolTable
 70
1
100
AcDbDimStyleTable
 71
0
  0
DIMSTYLE
105
27
100
AcDbSymbolTableRecord
100
AcDbDimStyleTableRecord
  2
Standard
 41
2.5
 42
0.625
 43
3.75
 44
1.25
 70
0
 73
0
 74
0
 77
1
 78
8
140
2.5
141
2.5
143
0.03937007874016
147
0.625
171
3
172
1
271
2
272
2
274
3
278
44
283
0
284
8
340
11
  0
ENDTAB
  0
TABLE
  2
BLOCK_RECORD
  5
1
100
AcDbSymbolTable
 70
1
  0
BLOCK_RECORD
  5
1F
100
AcDbSymbolTableRecord
100
AcDbBlockTableRecord
  2
*Model_Space
340
22
  0
BLOCK_RECORD
  5
1B
100
AcDbSymbolTableRecord
100
AcDbBlockTableRecord
  2
*Paper_Space
340
1E
  0
BLOCK_RECORD
  5
23
100
AcDbSymbolTableRecord
100
AcDbBlockTableRecord
  2
*Paper_Space0
340
26
  0
BLOCK_RECORD
  5
46
100
AcDbSymbolTableRecord
100
AcDbBlockTableRecord
  2
*D1
340
0
  0
BLOCK_RECORD
  5
47
100
AcDbSymbolTableRecord
100
AcDbBlockTableRecord
  2
*D2
340
0
  0
BLOCK_RECORD
  5
48
100
AcDbSymbolTableRecord
100
AcDbBlockTableRecord
  2
*D3
340
0
  0
BLOCK_RECORD
  5
49
100
AcDbSymbolTableRecord
100
AcDbBlockTableRecord
  2
*D4
340
0
  0
BLOCK_RECORD
  5
4A
100
AcDbSymbolTableRecord
100
AcDbBlockTableRecord
  2
*D5
340
0
  0
BLOCK_RECORD
  5
4B
100
AcDbSymbolTableRecord
100
AcDbBlockTableRecord
  2
*D6
340
0
  0
BLOCK_RECORD
  5
4C
100
AcDbSymbolTableRecord
100
AcDbBlockTableRecord
  2
*D7
340
0
  0
BLOCK_RECORD
  5
4D
100
AcDbSymbolTableRecord
100
AcDbBlockTableRecord
  2
*D8
340
0
  0
BLOCK_RECORD
  5
4E
100
AcDbSymbolTableRecord
100
AcDbBlockTableRecord
  2
*D9
340
0
  0
ENDTAB
  0
ENDSEC
  0
SECTION
  2
BLOCKS
  0
BLOCK
  5
20
100
AcDbEntity
  8
0
100
AcDbBlockBegin
  2
*Model_Space
 70
0
 10
0.0
 20
0.0
 30
0.0
  3
*Model_Space
  1

  0
ENDBLK
  5
21
100
AcDbEntity
  8
0
100
AcDbBlockEnd
  0
BLOCK
  5
1C
100
AcDbEntity
 67
1
  8
0
100
AcDbBlockBegin
  2
*Paper_Space
 70
0
 10
0.0
 20
0.0
 30
0.0
  3
*Paper_Space
  1

  0
ENDBLK
  5
1D
100
AcDbEntity
 67
1
  8
0
100
AcDbBlockEnd
  0
BLOCK
  5
24
100
AcDbEntity
  8
0
100
AcDbBlockBegin
  2
*Paper_Space0
 70
0
 10
0.0
 20
0.0
 30
0.0
  3
*Paper_Space0
  1

  0
ENDBLK
  5
25
100
AcDbEntity
  8
0
100
AcDbBlockEnd
  0
BLOCK
  5
4F
100
AcDbEntity
  8
0
100
AcDbBlockBegin
  2
*D1
 70
0
 10
0.0
 20
0.0
 30
0.0
  3
*D1
  1

  0
LINE
  5
50
100
AcDbEntity
100
AcDbLine
  8
Cotas
 62
0
370
-2
  6
ByLayer
 10
0.0
 20
200.625
 30
0.0
 11
0.0
 21
243.125
 31
0.0
  0
LINE
  5
51
100
AcDbEntity
100
AcDbLine
  8
Cotas
 62
0
370
-2
  6
ByLayer
 10
300.0
 20
200.625
 30
0.0
 11
300.0
 21
243.125
 31
0.0
  0
LINE
  5
52
100
AcDbEntity
100
AcDbLine
  8
Cotas
 62
0
370
-2
  6
ByLayer
 10
2.5
 20
241.875
 30
0.0
 11
297.5
 21
241.875
 31
0.0
  0
MTEXT
  5
53
100
AcDbEntity
100
AcDbMText
  8
Cotas
 62
0
370
-1
  6
ByLayer
 10
150.0
 20
243.75
 30
0.0
 40
2.5
 41
0.0
 71
5
 72
0
  1
300
  7
Standard
 50
0.0
 73
0
 44
1.0
  0
POINT
  5
54
100
AcDbEntity
100
AcDbPoint
  8
Defpoints
 62
0
370
-1
  6
ByLayer
 10
0.0
 20
200.0
 30
0.0
  0
POINT
  5
55
100
AcDbEntity
100
AcDbPoint
  8
Defpoints
 62
0
370
-1
  6
ByLayer
 10
300.0
 20
200.0
 30
0.0
  0
POINT
  5
56
100
AcDbEntity
100
AcDbPoint
  8
Defpoints
 62
0
370
-1
  6
ByLayer
 10
300.0
 20
241.875
 30
0.0
  0
ENDBLK
  5
57
100
AcDbEntity
  8
0
100
AcDbBlockEnd
  0
BLOCK
  5
58
100
AcDbEntity
  8
0
100
AcDbBlockBegin
  2
*D2
 70
0
 10
0.0
 20
0.0
 30
0.0
  3
*D2
  1

  0
LINE
  5
59
100
AcDbEntity
100
AcDbLine
  8
Cotas
 62
0
370
-2
  6
ByLayer
 10
300.625
 20
0.0
 30
0.0
 11
349.375
 21
0.0
 31
0.0
  0
LINE
  5
5A
100
AcDbEntity
100
AcDbLine
  8
Cotas
 62
0
370
-2
  6
ByLayer
 10
300.625
 20
200.0
 30
0.0
 11
349.375
 21
200.0
 31
0.0
  0
LINE
  5
5B
100
AcDbEntity
100
AcDbLine
  8
Cotas
 62
0
370
-2
  6
ByLayer
 10
348.125
 20
2.5
 30
0.0
 11
348.125
 21
197.5
 31
0.0
  0
MTEXT
  5
5C
100
AcDbEntity
100
AcDbMText
  8
Cotas
 62
0
370
-1
  6
ByLayer
 10
346.25
 20
100.0
 30
0.0
 40
2.5
 41
0.0
 71
5
 72
0
  1
200
  7
Standard
 50
90.0
 73
0
 44
1.0
  0
POINT
  5
5D
100
AcDbEntity
100
AcDbPoint
  8
Defpoints
 62
0
370
-1
  6
ByLayer
 10
300.0
 20
0.0
 30
0.0
  0
POINT
  5
5E
100
AcDbEntity
100
AcDbPoint
  8
Defpoints
 62
0
370
-1
  6
ByLayer
 10
300.0
 20
200.0
 30
0.0
  0
POINT
  5
5F
100
AcDbEntity
100
AcDbPoint
  8
Defpoints
 62
0
370
-1
  6
ByLayer
 10
348.125
 20
200.0
 30
0.0
  0
ENDBLK
  5
60
100
AcDbEntity
  8
0
100
AcDbBlockEnd
  0
BLOCK
  5
61
100
AcDbEntity
  8
0
100
AcDbBlockBegin
  2
*D3
 70
0
 10
0.0
 20
0.0
 30
0.0
  3
*D3
  1

  0
LINE
  5
62
100
AcDbEntity
100
AcDbLine
  8
Cotas
 62
0
370
-2
  6
ByLayer
 10
0.0
 20
200.625
 30
0.0
 11
0.0
 21
223.3630952380952124
 31
0.0
  0
LINE
  5
63
100
AcDbEntity
100
AcDbLine
  8
Cotas
 62
0
370
-2
  6
ByLayer
 10
38.5
 20
200.625
 30
0.0
 11
38.5
 21
223.3630952380952124
 31
0.0
  0
LINE
  5
64
100
AcDbEntity
100
AcDbLine
  8
Cotas
 62
0
370
-2
  6
ByLayer
 10
2.5
 20
222.1130952380952124
 30
0.0
 11
36.0
 21
222.1130952380952124
 31
0.0
  0
MTEXT
  5
65
100
AcDbEntity
100
AcDbMText
  8
Cotas
 62
0
370
-1
  6
ByLayer
 10
19.25
 20
224.22619047619051
 30
0.0
 40
2.5
 41
0.0
 71
5
 72
0
  1
38.5
  7
Standard
 50
0.0
 73
0
 44
1.0
  0
POINT
  5
66
100
AcDbEntity
100
AcDbPoint
  8
Defpoints
 62
0
370
-1
  6
ByLayer
 10
0.0
 20
200.0
 30
0.0
  0
POINT
  5
67
100
AcDbEntity
100
AcDbPoint
  8
Defpoints
 62
0
370
-1
  6
ByLayer
 10
38.5
 20
200.0
 30
0.0
  0
POINT
  5
68
100
AcDbEntity
100
AcDbPoint
  8
Defpoints
 62
0
370
-1
  6
ByLayer
 10
38.5
 20
222.1130952380952124
 30
0.0
  0
ENDBLK
  5
69
100
AcDbEntity
  8
0
100
AcDbBlockEnd
  0
BLOCK
  5
6A
100
AcDbEntity
  8
0
100
AcDbBlockBegin
  2
*D4
 70
0
 10
0.0
 20
0.0
 30
0.0
  3
*D4
  1

  0
LINE
  5
6B
100
AcDbEntity
100
AcDbLine
  8
Cotas
 62
0
370
-2
  6
ByLayer
 10
52.4999999999999787
 20
200.625
 30
0.0
 11
52.4999999999999716
 21
223.125
 31
0.0
  0
LINE
  5
6C
100
AcDbEntity
100
AcDbLine
  8
Cotas
 62
0
370
-2
  6
ByLayer
 10
247.5
 20
200.625
 30
0.0
 11
247.5
 21
223.125
 31
0.0
  0
LINE
  5
6D
100
AcDbEntity
100
AcDbLine
  8
Cotas
 62
0
370
-2
  6
ByLayer
 10
54.9999999999999716
 20
221.875
 30
0.0
 11
245.0
 21
221.875
 31
0.0
  0
MTEXT
  5
6E
100
AcDbEntity
100
AcDbMText
  8
Cotas
 62
0
370
-1
  6
ByLayer
 10
150.0
 20
223.75
 30
0.0
 40
2.5
 41
0.0
 71
5
 72
0
  1
195
  7
Standard
 50
0.0
 73
0
 44
1.0
  0
POINT
  5
6F
100
AcDbEntity
100
AcDbPoint
  8
Defpoints
 62
0
370
-1
  6
ByLayer
 10
52.4999999999999787
 20
200.0
 30
0.0
  0
POINT
  5
70
100
AcDbEntity
100
AcDbPoint
  8
Defpoints
 62
0
370
-1
  6
ByLayer
 10
247.5
 20
200.0
 30
0.0
  0
POINT
  5
71
100
AcDbEntity
100
AcDbPoint
  8
Defpoints
 62
0
370
-1
  6
ByLayer
 10
247.5
 20
221.875
 30
0.0
  0
ENDBLK
  5
72
100
AcDbEntity
  8
0
100
AcDbBlockEnd
  0
BLOCK
  5
73
100
AcDbEntity
  8
0
100
AcDbBlockBegin
  2
*D5
 70
0
 10
0.0
 20
0.0
 30
0.0
  3
*D5
  1

  0
LINE
  5
74
100
AcDbEntity
100
AcDbLine
  8
Cotas
 62
0
370
-2
  6
ByLayer
 10
45.4999999999999929
 20
203.875
 30
0.0
 11
45.5
 21
180.625
 31
0.0
  0
LINE
  5
75
100
AcDbEntity
100
AcDbLine
  8
Cotas
 62
0
370
-2
  6
ByLayer
 10
254.5
 20
203.875
 30
0.0
 11
254.5
 21
180.625
 31
0.0
  0
LINE
  5
76
100
AcDbEntity
100
AcDbLine
  8
Cotas
 62
0
370
-2
  6
ByLayer
 10
48.0
 20
181.875
 30
0.0
 11
252.0
 21
181.875
 31
0.0
  0
MTEXT
  5
77
100
AcDbEntity
100
AcDbMText
  8
Cotas
 62
0
370
-1
  6
ByLayer
 10
150.0
 20
183.75
 30
0.0
 40
2.5
 41
0.0
 71
5
 72
0
  1
209
  7
Standard
 50
0.0
 73
0
 44
1.0
  0
POINT
  5
78
100
AcDbEntity
100
AcDbPoint
  8
Defpoints
 62
0
370
-1
  6
ByLayer
 10
45.4999999999999929
 20
204.5
 30
0.0
  0
POINT
  5
79
100
AcDbEntity
100
AcDbPoint
  8
Defpoints
 62
0
370
-1
  6
ByLayer
 10
254.5
 20
204.5
 30
0.0
  0
POINT
  5
7A
100
AcDbEntity
100
AcDbPoint
  8
Defpoints
 62
0
370
-1
  6
ByLayer
 10
254.5
 20
181.875
 30
0.0
  0
ENDBLK
  5
7B
100
AcDbEntity
  8
0
100
AcDbBlockEnd
  0
BLOCK
  5
7C
100
AcDbEntity
  8
0
100
AcDbBlockBegin
  2
*D6
 70
0
 10
0.0
 20
0.0
 30
0.0
  3
*D6
  1

  0
LINE
  5
7D
100
AcDbEntity
100
AcDbLine
  8
Cotas
 62
0
370
-2
  6
ByLayer
 10
38.5
 20
200.625
 30
0.0
 11
38.5
 21
223.125
 31
0.0
  0
LINE
  5
7E
100
AcDbEntity
100
AcDbLine
  8
Cotas
 62
0
370
-2
  6
ByLayer
 10
52.4999999999999787
 20
200.625
 30
0.0
 11
52.4999999999999787
 21
223.125
 31
0.0
  0
LINE
  5
7F
100
AcDbEntity
100
AcDbLine
  8
Cotas
 62
0
370
-2
  6
ByLayer
 10
41.0
 20
221.875
 30
0.0
 11
49.9999999999999787
 21
221.875
 31
0.0
  0
MTEXT
  5
80
100
AcDbEntity
100
AcDbMText
  8
Cotas
 62
0
370
-1
  6
ByLayer
 10
45.4999999999999929
 20
223.75
 30
0.0
 40
2.5
 41
0.0
 71
5
 72
0
  1
14
  7
Standard
 50
0.0
 73
0
 44
1.0
  0
POINT
  5
81
100
AcDbEntity
100
AcDbPoint
  8
Defpoints
 62
0
370
-1
  6
ByLayer
 10
38.5
 20
200.0
 30
0.0
  0
POINT
  5
82
100
AcDbEntity
100
AcDbPoint
  8
Defpoints
 62
0
370
-1
  6
ByLayer
 10
52.4999999999999787
 20
200.0
 30
0.0
  0
POINT
  5
83
100
AcDbEntity
100
AcDbPoint
  8
Defpoints
 62
0
370
-1
  6
ByLayer
 10
52.4999999999999787
 20
221.875
 30
0.0
  0
ENDBLK
  5
84
100
AcDbEntity
  8
0
100
AcDbBlockEnd
  0
BLOCK
  5
85
100
AcDbEntity
  8
0
100
AcDbBlockBegin
  2
*D7
 70
0
 10
0.0
 20
0.0
 30
0.0
  3
*D7
  1

  0
LINE
  5
86
100
AcDbEntity
100
AcDbLine
  8
Cotas
 62
0
370
-2
  6
ByLayer
 10
58.0109460263626886
 20
196.5757601007003075
 30
0.0
 11
49.7668984073150682
 21
196.5757601007003075
 31
0.0
  0
LINE
  5
87
100
AcDbEntity
100
AcDbLine
  8
Cotas
 62
0
370
-2
  6
ByLayer
 10
47.396399292140039
 20
200.978115600311213
 30
0.0
 11
49.7668984073150682
 21
196.5757601007003075
 31
0.0
  0
MTEXT
  5
88
100
AcDbEntity
100
AcDbMText
  8
Cotas
 62
0
370
-1
  6
ByLayer
 10
54.2014222168388784
 20
198.4507601007003075
 30
0.0
 40
2.5
 41
0.0
 71
5
 72
0
  1
R1.5
  7
Standard
 50
0.0
 73
0
 44
1.0
  0
LINE
  5
89
100
AcDbEntity
100
AcDbLine
  8
Cotas
 62
0
370
-1
  6
ByLayer
 10
45.4099999999999895
 20
204.5
 30
0.0
 11
45.5900000000000034
 21
204.5
 31
0.0
  0
LINE
  5
8A
100
AcDbEntity
100
AcDbLine
  8
Cotas
 62
0
370
-1
  6
ByLayer
 10
45.4999999999999929
 20
204.4099999999999966
 30
0.0
 11
45.4999999999999929
 21
204.5900000000000034
 31
0.0
  0
POINT
  5
8B
100
AcDbEntity
100
AcDbPoint
  8
Defpoints
 62
0
370
-1
  6
ByLayer
 10
46.2111497345525208
 20
203.1792933501166942
 30
0.0
  0
POINT
  5
8C
100
AcDbEntity
100
AcDbPoint
  8
Defpoints
 62
0
370
-1
  6
ByLayer
 10
45.4999999999999929
 20
204.5
 30
0.0
  0
ENDBLK
  5
8D
100
AcDbEntity
  8
0
100
AcDbBlockEnd
  0
BLOCK
  5
8E
100
AcDbEntity
  8
0
100
AcDbBlockBegin
  2
*D8
 70
0
 10
0.0
 20
0.0
 30
0.0
  3
*D8
  1

  0
LINE
  5
8F
100
AcDbEntity
100
AcDbLine
  8
Cotas
 62
0
370
-2
  6
ByLayer
 10
59.877452059257287
 20
211.0580603721004991
 30
0.0
 11
55.2048330116382431
 21
211.0580603721004991
 31
0.0
  0
LINE
  5
90
100
AcDbEntity
100
AcDbLine
  8
Cotas
 62
0
370
-2
  6
ByLayer
 10
53.182992800880271
 20
209.5876311279129141
 30
0.0
 11
55.2048330116382431
 21
211.0580603721004991
 31
0.0
  0
MTEXT
  5
91
100
AcDbEntity
100
AcDbMText
  8
Cotas
 62
0
370
-1
  6
ByLayer
 10
57.8536425354477686
 20
212.9330603721004991
 30
0.0
 40
2.5
 41
0.0
 71
5
 72
0
  1
R7
  7
Standard
 50
0.0
 73
0
 44
1.0
  0
LINE
  5
92
100
AcDbEntity
100
AcDbLine
  8
Cotas
 62
0
370
-1
  6
ByLayer
 10
45.4099999999999895
 20
204.0
 30
0.0
 11
45.5900000000000034
 21
204.0
 31
0.0
  0
LINE
  5
93
100
AcDbEntity
100
AcDbLine
  8
Cotas
 62
0
370
-1
  6
ByLayer
 10
45.4999999999999929
 20
203.9099999999999966
 30
0.0
 11
45.4999999999999929
 21
204.0900000000000034
 31
0.0
  0
POINT
  5
94
100
AcDbEntity
100
AcDbPoint
  8
Defpoints
 62
0
370
-1
  6
ByLayer
 10
51.161152590122299
 20
208.1172018837253006
 30
0.0
  0
POINT
  5
95
100
AcDbEntity
100
AcDbPoint
  8
Defpoints
 62
0
370
-1
  6
ByLayer
 10
45.4999999999999929
 20
204.0
 30
0.0
  0
ENDBLK
  5
96
100
AcDbEntity
  8
0
100
AcDbBlockEnd
  0
BLOCK
  5
97
100
AcDbEntity
  8
0
100
AcDbBlockBegin
  2
*D9
 70
0
 10
0.0
 20
0.0
 30
0.0
  3
*D9
  1

  0
LINE
  5
98
100
AcDbEntity
100
AcDbLine
  8
Cotas
 62
0
370
-2
  6
ByLayer
 10
255.125
 20
204.5
 30
0.0
 11
349.136904761904816
 21
204.5
 31
0.0
  0
LINE
  5
99
100
AcDbEntity
100
AcDbLine
  8
Cotas
 62
0
370
-2
  6
ByLayer
 10
300.625
 20
200.0
 30
0.0
 11
349.136904761904816
 21
200.0
 31
0.0
  0
LINE
  5
9A
100
AcDbEntity
100
AcDbLine
  8
Cotas
 62
0
370
-2
  6
ByLayer
 10
347.886904761904816
 20
207.0
 30
0.0
 11
347.886904761904816
 21
209.5
 31
0.0
  0
LINE
  5
9B
100
AcDbEntity
100
AcDbLine
  8
Cotas
 62
0
370
-2
  6
ByLayer
 10
347.886904761904816
 20
197.5
 30
0.0
 11
347.886904761904816
 21
195.0
 31
0.0
  0
MTEXT
  5
9C
100
AcDbEntity
100
AcDbMText
  8
Cotas
 62
0
370
-1
  6
ByLayer
 10
345.7738095238095752
 20
192.410714285714306
 30
0.0
 40
2.5
 41
0.0
 71
5
 72
0
  1
4.5
  7
Standard
 50
0.0
 73
0
 44
1.0
  0
POINT
  5
9D
100
AcDbEntity
100
AcDbPoint
  8
Defpoints
 62
0
370
-1
  6
ByLayer
 10
254.5
 20
204.5
 30
0.0
  0
POINT
  5
9E
100
AcDbEntity
100
AcDbPoint
  8
Defpoints
 62
0
370
-1
  6
ByLayer
 10
300.0
 20
200.0
 30
0.0
  0
POINT
  5
9F
100
AcDbEntity
100
AcDbPoint
  8
Defpoints
 62
0
370
-1
  6
ByLayer
 10
347.886904761904816
 20
200.0
 30
0.0
  0
ENDBLK
  5
A0
100
AcDbEntity
  8
0
100
AcDbBlockEnd
  0
ENDSEC
  0
SECTION
  2
ENTITIES
  0
LINE
  5
A1
100
AcDbEntity
100
AcDbLine
  8
0
 62
256
370
-1
  6
ByLayer
 10
300.0
 20
0.0
 30
0.0
 11
300.0
 21
200.0
 31
0.0
  0
LINE
  5
A2
100
AcDbEntity
100
AcDbLine
  8
0
 62
256
370
-1
  6
ByLayer
 10
0.0
 20
200.0
 30
0.0
 11
0.0
 21
0.0
 31
0.0
  0
CIRCLE
  5
A3
100
AcDbEntity
100
AcDbCircle
  8
0
 62
256
370
-1
  6
ByLayer
 10
254.5
 20
204.5
 30
0.0
 40
1.5
  0
ARC
  5
A4
100
AcDbEntity
  8
0
 62
256
370
-1
  6
ByLayer
100
AcDbCircle
 10
45.4999999999999929
 20
204.0
 30
0.0
 40
6.9999999999999929
100
AcDbArc
 50
0.0
 51
180.0
  0
CIRCLE
  5
A5
100
AcDbEntity
100
AcDbCircle
  8
0
 62
256
370
-1
  6
ByLayer
 10
45.4999999999999929
 20
204.5
 30
0.0
 40
1.5
  0
ARC
  5
A6
100
AcDbEntity
  8
0
 62
256
370
-1
  6
ByLayer
100
AcDbCircle
 10
254.5
 20
204.0
 30
0.0
 40
7.0
100
AcDbArc
 50
0.0
 51
180.0
  0
DIMENSION
  5
A7
100
AcDbEntity
  8
Cotas
 62
256
370
-1
  6
ByLayer
100
AcDbDimension
 10
300.0
 20
241.875
 30
0.0
 11
150.0
 21
243.75
 31
0.0
 70
1
 71
5
 72
0
 41
1.0
 42
0.0
  1

  3
Standard
100
AcDbAlignedDimension
 13
0.0
 23
200.0
 33
0.0
 14
300.0
 24
200.0
 34
0.0
  0
DIMENSION
  5
A8
100
AcDbEntity
  8
Cotas
 62
256
370
-1
  6
ByLayer
100
AcDbDimension
 10
348.125
 20
200.0
 30
0.0
 11
346.25
 21
100.0
 31
0.0
 70
0
 71
5
 72
0
 41
1.0
 42
0.0
  1

  3
Standard
100
AcDbAlignedDimension
 13
300.0
 23
0.0
 33
0.0
 14
300.0
 24
200.0
 34
0.0
 50
90.0
100
AcDbRotatedDimension
  0
CIRCLE
  5
A9
100
AcDbEntity
100
AcDbCircle
  8
AM_0
 62
256
370
-1
  6
ByLayer
 10
115.0
 20
4.9999999999999858
 30
0.0
 40
1.5
  0
CIRCLE
  5
AA
100
AcDbEntity
100
AcDbCircle
  8
AM_0
 62
256
370
-1
  6
ByLayer
 10
115.0
 20
25.0
 30
0.0
 40
1.5
  0
CIRCLE
  5
AB
100
AcDbEntity
100
AcDbCircle
  8
AM_0
 62
256
370
-1
  6
ByLayer
 10
185.0
 20
25.0
 30
0.0
 40
1.5
  0
CIRCLE
  5
AC
100
AcDbEntity
100
AcDbCircle
  8
AM_0
 62
256
370
-1
  6
ByLayer
 10
185.0
 20
4.9999999999999858
 30
0.0
 40
1.5
  0
CIRCLE
  5
AD
100
AcDbEntity
100
AcDbCircle
  8
AM_0
 62
256
370
-1
  6
ByLayer
 10
150.0000000000001137
 20
175.0
 30
0.0
 40
1.5
  0
CIRCLE
  5
AE
100
AcDbEntity
100
AcDbCircle
  8
AM_0
 62
256
370
-1
  6
ByLayer
 10
150.0000000000001137
 20
195.0
 30
0.0
 40
1.5
  0
CIRCLE
  5
AF
100
AcDbEntity
100
AcDbCircle
  8
AM_0
 62
256
370
-1
  6
ByLayer
 10
45.5000000000000071
 20
-4.5
 30
0.0
 40
1.2295
  0
CIRCLE
  5
B0
100
AcDbEntity
100
AcDbCircle
  8
AM_0
 62
256
370
-1
  6
ByLayer
 10
254.5
 20
-4.5
 30
0.0
 40
1.2295
  0
CIRCLE
  5
B1
100
AcDbEntity
100
AcDbCircle
  8
AM_0
 62
256
370
-1
  6
ByLayer
 10
254.5
 20
204.5
 30
0.0
 40
1.2295
  0
CIRCLE
  5
B2
100
AcDbEntity
100
AcDbCircle
  8
AM_0
 62
256
370
-1
  6
ByLayer
 10
171.0
 20
100.0
 30
0.0
 40
1.2295
  0
CIRCLE
  5
B3
100
AcDbEntity
100
AcDbCircle
  8
AM_0
 62
256
370
-1
  6
ByLayer
 10
129.9999999999998863
 20
100.0
 30
0.0
 40
1.2295
  0
CIRCLE
  5
B4
100
AcDbEntity
100
AcDbCircle
  8
AM_0
 62
256
370
-1
  6
ByLayer
 10
45.5000000000000071
 20
204.5
 30
0.0
 40
1.2295
  0
LINE
  5
B5
100
AcDbEntity
100
AcDbLine
  8
AM_0
 62
256
370
-1
  6
ByLayer
 10
225.0
 20
32.0
 30
0.0
 11
185.0
 21
72.0
 31
0.0
  0
LINE
  5
B6
100
AcDbEntity
100
AcDbLine
  8
AM_0
 62
256
370
-1
  6
ByLayer
 10
225.0
 20
168.0000000000001137
 30
0.0
 11
225.0
 21
32.0
 31
0.0
  0
LINE
  5
B7
100
AcDbEntity
100
AcDbLine
  8
AM_0
 62
256
370
-1
  6
ByLayer
 10
185.0
 20
128.0000000000001137
 30
0.0
 11
225.0
 21
168.0000000000001137
 31
0.0
  0
LINE
  5
B8
100
AcDbEntity
100
AcDbLine
  8
AM_0
 62
256
370
-1
  6
ByLayer
 10
185.0
 20
72.0
 30
0.0
 11
185.0
 21
128.0000000000001137
 31
0.0
  0
LINE
  5
B9
100
AcDbEntity
100
AcDbLine
  8
AM_0
 62
256
370
-1
  6
ByLayer
 10
75.0000000000000142
 20
168.0000000000001137
 30
0.0
 11
115.0
 21
128.0
 31
0.0
  0
LINE
  5
BA
100
AcDbEntity
100
AcDbLine
  8
AM_0
 62
256
370
-1
  6
ByLayer
 10
75.0000000000000142
 20
32.0
 30
0.0
 11
75.0000000000000142
 21
168.0000000000001137
 31
0.0
  0
LINE
  5
BB
100
AcDbEntity
100
AcDbLine
  8
AM_0
 62
256
370
-1
  6
ByLayer
 10
115.0
 20
72.0
 30
0.0
 11
75.0000000000000142
 21
32.0
 31
0.0
  0
LINE
  5
BC
100
AcDbEntity
100
AcDbLine
  8
AM_0
 62
256
370
-1
  6
ByLayer
 10
115.0
 20
128.0
 30
0.0
 11
115.0
 21
72.0
 31
0.0
  0
LINE
  5
BD
100
AcDbEntity
100
AcDbLine
  8
AM_0
 62
256
370
-1
  6
ByLayer
 10
154.9999999999998863
 20
20.0
 30
0.0
 11
144.9999999999998863
 21
20.0
 31
0.0
  0
LINE
  5
BE
100
AcDbEntity
100
AcDbLine
  8
AM_0
 62
256
370
-1
  6
ByLayer
 10
175.0
 20
40.0
 30
0.0
 11
154.9999999999998863
 21
20.0
 31
0.0
  0
LINE
  5
BF
100
AcDbEntity
100
AcDbLine
  8
AM_0
 62
256
370
-1
  6
ByLayer
 10
175.0
 20
60.0
 30
0.0
 11
175.0
 21
40.0
 31
0.0
  0
LINE
  5
C0
100
AcDbEntity
100
AcDbLine
  8
AM_0
 62
256
370
-1
  6
ByLayer
 10
154.9999999999998863
 20
80.0
 30
0.0
 11
175.0
 21
60.0
 31
0.0
  0
LINE
  5
C1
100
AcDbEntity
100
AcDbLine
  8
AM_0
 62
256
370
-1
  6
ByLayer
 10
144.9999999999998863
 20
80.0
 30
0.0
 11
154.9999999999998863
 21
80.0
 31
0.0
  0
LINE
  5
C2
100
AcDbEntity
100
AcDbLine
  8
AM_0
 62
256
370
-1
  6
ByLayer
 10
124.9999999999999005
 20
60.0
 30
0.0
 11
144.9999999999998863
 21
80.0
 31
0.0
  0
LINE
  5
C3
100
AcDbEntity
100
AcDbLine
  8
AM_0
 62
256
370
-1
  6
ByLayer
 10
124.9999999999999005
 20
40.0
 30
0.0
 11
124.9999999999999005
 21
60.0
 31
0.0
  0
LINE
  5
C4
100
AcDbEntity
100
AcDbLine
  8
AM_0
 62
256
370
-1
  6
ByLayer
 10
144.9999999999998863
 20
20.0
 30
0.0
 11
124.9999999999999005
 21
40.0
 31
0.0
  0
LINE
  5
C5
100
AcDbEntity
100
AcDbLine
  8
AM_0
 62
256
370
-1
  6
ByLayer
 10
124.9999999999999005
 20
140.0
 30
0.0
 11
124.9999999999999005
 21
150.0
 31
0.0
  0
LINE
  5
C6
100
AcDbEntity
100
AcDbLine
  8
AM_0
 62
256
370
-1
  6
ByLayer
 10
144.9999999999998863
 20
120.0
 30
0.0
 11
124.9999999999999005
 21
140.0
 31
0.0
  0
LINE
  5
C7
100
AcDbEntity
100
AcDbLine
  8
AM_0
 62
256
370
-1
  6
ByLayer
 10
154.9999999999998863
 20
120.0
 30
0.0
 11
144.9999999999998863
 21
120.0
 31
0.0
  0
LINE
  5
C8
100
AcDbEntity
100
AcDbLine
  8
AM_0
 62
256
370
-1
  6
ByLayer
 10
175.0
 20
140.0
 30
0.0
 11
154.9999999999998863
 21
120.0
 31
0.0
  0
LINE
  5
C9
100
AcDbEntity
100
AcDbLine
  8
AM_0
 62
256
370
-1
  6
ByLayer
 10
175.0
 20
150.0
 30
0.0
 11
175.0
 21
140.0
 31
0.0
  0
LINE
  5
CA
100
AcDbEntity
100
AcDbLine
  8
AM_0
 62
256
370
-1
  6
ByLayer
 10
154.9999999999998863
 20
170.0
 30
0.0
 11
175.0
 21
150.0
 31
0.0
  0
LINE
  5
CB
100
AcDbEntity
100
AcDbLine
  8
AM_0
 62
256
370
-1
  6
ByLayer
 10
144.9999999999998863
 20
170.0
 30
0.0
 11
154.9999999999998863
 21
170.0
 31
0.0
  0
LINE
  5
CC
100
AcDbEntity
100
AcDbLine
  8
AM_0
 62
256
370
-1
  6
ByLayer
 10
124.9999999999999005
 20
150.0
 30
0.0
 11
144.9999999999998863
 21
170.0
 31
0.0
  0
ARC
  5
CD
100
AcDbEntity
  8
AM_0
 62
256
370
-1
  6
ByLayer
100
AcDbCircle
 10
196.0
 20
14.0000000000001101
 30
0.0
 40
4.0000000000000204
100
AcDbArc
 50
270.0
 51
0.0
  0
LINE
  5
CE
100
AcDbEntity
100
AcDbLine
  8
AM_0
 62
256
370
-1
  6
ByLayer
 10
200.0
 20
16.0
 30
0.0
 11
200.0
 21
14.0000000000001101
 31
0.0
  0
ARC
  5
CF
100
AcDbEntity
  8
AM_0
 62
256
370
-1
  6
ByLayer
100
AcDbCircle
 10
196.0
 20
16.0
 30
0.0
 40
4.0
100
AcDbArc
 50
0.0
 51
90.0
  0
LINE
  5
D0
100
AcDbEntity
100
AcDbLine
  8
AM_0
 62
256
370
-1
  6
ByLayer
 10
173.0
 20
20.0
 30
0.0
 11
196.0
 21
20.0
 31
0.0
  0
ARC
  5
D1
100
AcDbEntity
  8
AM_0
 62
256
370
-1
  6
ByLayer
100
AcDbCircle
 10
173.0
 20
16.0
 30
0.0
 40
4.0000000000000204
100
AcDbArc
 50
90.0
 51
180.0
  0
LINE
  5
D2
100
AcDbEntity
100
AcDbLine
  8
AM_0
 62
256
370
-1
  6
ByLayer
 10
168.9999999999998863
 20
14.0000000000001101
 30
0.0
 11
168.9999999999998863
 21
16.0
 31
0.0
  0
ARC
  5
D3
100
AcDbEntity
  8
AM_0
 62
256
370
-1
  6
ByLayer
100
AcDbCircle
 10
173.0
 20
13.9999999999999893
 30
0.0
 40
4.0000000000000107
100
AcDbArc
 50
180.0
 51
270.0
  0
LINE
  5
D4
100
AcDbEntity
100
AcDbLine
  8
AM_0
 62
256
370
-1
  6
ByLayer
 10
196.0
 20
9.9999999999999858
 30
0.0
 11
173.0
 21
9.9999999999999858
 31
0.0
  0
ARC
  5
D5
100
AcDbEntity
  8
AM_0
 62
256
370
-1
  6
ByLayer
100
AcDbCircle
 10
162.1371236070999089
 20
184.0000000000001137
 30
0.0
 40
3.999999999999984
100
AcDbArc
 50
270.0
 51
0.0
  0
LINE
  5
D6
100
AcDbEntity
100
AcDbLine
  8
AM_0
 62
256
370
-1
  6
ByLayer
 10
166.1371236070997952
 20
186.0
 30
0.0
 11
166.1371236070997952
 21
184.0000000000001137
 31
0.0
  0
ARC
  5
D7
100
AcDbEntity
  8
AM_0
 62
256
370
-1
  6
ByLayer
100
AcDbCircle
 10
162.1371236070999089
 20
186.0
 30
0.0
 40
3.999999999999984
100
AcDbArc
 50
0.0
 51
90.0
  0
LINE
  5
D8
100
AcDbEntity
100
AcDbLine
  8
AM_0
 62
256
370
-1
  6
ByLayer
 10
139.1371236070999089
 20
190.0
 30
0.0
 11
162.1371236070999089
 21
190.0
 31
0.0
  0
ARC
  5
D9
100
AcDbEntity
  8
AM_0
 62
256
370
-1
  6
ByLayer
100
AcDbCircle
 10
139.1371236070999089
 20
186.0
 30
0.0
 40
3.999999999999984
100
AcDbArc
 50
90.0
 51
180.0
  0
LINE
  5
DA
100
AcDbEntity
100
AcDbLine
  8
AM_0
 62
256
370
-1
  6
ByLayer
 10
135.1371236070999089
 20
184.0000000000001137
 30
0.0
 11
135.1371236070999089
 21
186.0
 31
0.0
  0
ARC
  5
DB
100
AcDbEntity
  8
AM_0
 62
256
370
-1
  6
ByLayer
100
AcDbCircle
 10
139.1371236070999089
 20
184.0000000000001137
 30
0.0
 40
3.999999999999984
100
AcDbArc
 50
180.0
 51
270.0
  0
LINE
  5
DC
100
AcDbEntity
100
AcDbLine
  8
AM_0
 62
256
370
-1
  6
ByLayer
 10
162.1371236070999089
 20
180.0
 30
0.0
 11
139.1371236070999089
 21
180.0
 31
0.0
  0
ARC
  5
DD
100
AcDbEntity
  8
AM_0
 62
256
370
-1
  6
ByLayer
100
AcDbCircle
 10
125.9929631039998981
 20
14.0000000000001101
 30
0.0
 40
4.0000000000000204
100
AcDbArc
 50
270.0
 51
0.0
  0
LINE
  5
DE
100
AcDbEntity
100
AcDbLine
  8
AM_0
 62
256
370
-1
  6
ByLayer
 10
129.9929631039998981
 20
16.0
 30
0.0
 11
129.9929631039998981
 21
14.0000000000001101
 31
0.0
  0
ARC
  5
DF
100
AcDbEntity
  8
AM_0
 62
256
370
-1
  6
ByLayer
100
AcDbCircle
 10
125.9929631039998981
 20
16.0
 30
0.0
 40
4.0
100
AcDbArc
 50
0.0
 51
90.0
  0
LINE
  5
E0
100
AcDbEntity
100
AcDbLine
  8
AM_0
 62
256
370
-1
  6
ByLayer
 10
102.9929631039998981
 20
20.0
 30
0.0
 11
125.9929631039998981
 21
20.0
 31
0.0
  0
ARC
  5
E1
100
AcDbEntity
  8
AM_0
 62
256
370
-1
  6
ByLayer
100
AcDbCircle
 10
102.9929631039998981
 20
16.0
 30
0.0
 40
4.0000000000000204
100
AcDbArc
 50
90.0
 51
180.0
  0
LINE
  5
E2
100
AcDbEntity
100
AcDbLine
  8
AM_0
 62
256
370
-1
  6
ByLayer
 10
98.9929631039999265
 20
14.0000000000001101
 30
0.0
 11
98.9929631039999265
 21
16.0
 31
0.0
  0
ARC
  5
E3
100
AcDbEntity
  8
AM_0
 62
256
370
-1
  6
ByLayer
100
AcDbCircle
 10
102.9929631039998981
 20
14.0000000000001101
 30
0.0
 40
4.0
100
AcDbArc
 50
180.0
 51
270.0
  0
LINE
  5
E4
100
AcDbEntity
100
AcDbLine
  8
AM_0
 62
256
370
-1
  6
ByLayer
 10
125.9929631039998981
 20
9.9999999999999858
 30
0.0
 11
102.9929631039998981
 21
9.9999999999999858
 31
0.0
  0
LINE
  5
E5
100
AcDbEntity
100
AcDbLine
  8
AM_0
 62
256
370
-1
  6
ByLayer
 10
40.0000000000000284
 20
-7.0
 30
0.0
 11
43.0000000000000071
 21
-10.0
 31
0.0
  0
LINE
  5
E6
100
AcDbEntity
100
AcDbLine
  8
AM_0
 62
256
370
-1
  6
ByLayer
 10
43.0000000000000071
 20
-10.0
 30
0.0
 11
46.9999999999999929
 21
-10.0
 31
0.0
  0
LINE
  5
E7
100
AcDbEntity
100
AcDbLine
  8
AM_0
 62
256
370
-1
  6
ByLayer
 10
46.9999999999999929
 20
-10.0
 30
0.0
 11
67.0
 21
9.9999999999999858
 31
0.0
  0
LINE
  5
E8
100
AcDbEntity
100
AcDbLine
  8
AM_0
 62
256
370
-1
  6
ByLayer
 10
67.0
 20
9.9999999999999858
 30
0.0
 11
87.0000000000000142
 21
9.9999999999999858
 31
0.0
  0
LINE
  5
E9
100
AcDbEntity
100
AcDbLine
  8
AM_0
 62
256
370
-1
  6
ByLayer
 10
87.0000000000000142
 20
9.9999999999999858
 30
0.0
 11
97.0000000000000142
 21
0.0
 31
0.0
  0
LINE
  5
EA
100
AcDbEntity
100
AcDbLine
  8
AM_0
 62
256
370
-1
  6
ByLayer
 10
97.0000000000000142
 20
0.0
 30
0.0
 11
134.9999999999996874
 21
0.0
 31
0.0
  0
LINE
  5
EB
100
AcDbEntity
100
AcDbLine
  8
AM_0
 62
256
370
-1
  6
ByLayer
 10
134.9999999999996874
 20
0.0
 30
0.0
 11
144.9999999999998863
 21
9.9999999999999858
 31
0.0
  0
LINE
  5
EC
100
AcDbEntity
100
AcDbLine
  8
AM_0
 62
256
370
-1
  6
ByLayer
 10
144.9999999999998863
 20
9.9999999999999858
 30
0.0
 11
154.9999999999998863
 21
9.9999999999999858
 31
0.0
  0
LINE
  5
ED
100
AcDbEntity
100
AcDbLine
  8
AM_0
 62
256
370
-1
  6
ByLayer
 10
154.9999999999998863
 20
9.9999999999999858
 30
0.0
 11
164.999999999999801
 21
0.0
 31
0.0
  0
LINE
  5
EE
100
AcDbEntity
100
AcDbLine
  8
AM_0
 62
256
370
-1
  6
ByLayer
 10
164.999999999999801
 20
0.0
 30
0.0
 11
203.0000000000001137
 21
0.0
 31
0.0
  0
LINE
  5
EF
100
AcDbEntity
100
AcDbLine
  8
AM_0
 62
256
370
-1
  6
ByLayer
 10
203.0000000000001137
 20
0.0
 30
0.0
 11
213.0
 21
9.9999999999999858
 31
0.0
  0
LINE
  5
F0
100
AcDbEntity
100
AcDbLine
  8
AM_0
 62
256
370
-1
  6
ByLayer
 10
213.0
 20
9.9999999999999858
 30
0.0
 11
233.0
 21
9.9999999999999858
 31
0.0
  0
LINE
  5
F1
100
AcDbEntity
100
AcDbLine
  8
AM_0
 62
256
370
-1
  6
ByLayer
 10
233.0
 20
9.9999999999999858
 30
0.0
 11
253.0
 21
-10.0
 31
0.0
  0
LINE
  5
F2
100
AcDbEntity
100
AcDbLine
  8
AM_0
 62
256
370
-1
  6
ByLayer
 10
253.0
 20
-10.0
 30
0.0
 11
257.0
 21
-10.0
 31
0.0
  0
LINE
  5
F3
100
AcDbEntity
100
AcDbLine
  8
AM_0
 62
256
370
-1
  6
ByLayer
 10
257.0
 20
-10.0
 30
0.0
 11
260.0
 21
-7.0
 31
0.0
  0
LINE
  5
F4
100
AcDbEntity
100
AcDbLine
  8
AM_0
 62
256
370
-1
  6
ByLayer
 10
260.0
 20
-7.0
 30
0.0
 11
260.0
 21
-3.0
 31
0.0
  0
LINE
  5
F5
100
AcDbEntity
100
AcDbLine
  8
AM_0
 62
256
370
-1
  6
ByLayer
 10
260.0
 20
-3.0
 30
0.0
 11
235.0
 21
22.0
 31
0.0
  0
LINE
  5
F6
100
AcDbEntity
100
AcDbLine
  8
AM_0
 62
256
370
-1
  6
ByLayer
 10
235.0
 20
178.0000000000001137
 30
0.0
 11
260.0
 21
203.0000000000001137
 31
0.0
  0
LINE
  5
F7
100
AcDbEntity
100
AcDbLine
  8
AM_0
 62
256
370
-1
  6
ByLayer
 10
260.0
 20
203.0000000000001137
 30
0.0
 11
260.0
 21
207.0000000000001137
 31
0.0
  0
LINE
  5
F8
100
AcDbEntity
100
AcDbLine
  8
AM_0
 62
256
370
-1
  6
ByLayer
 10
260.0
 20
207.0000000000001137
 30
0.0
 11
257.0
 21
210.0
 31
0.0
  0
LINE
  5
F9
100
AcDbEntity
100
AcDbLine
  8
AM_0
 62
256
370
-1
  6
ByLayer
 10
257.0
 20
210.0
 30
0.0
 11
253.0
 21
210.0
 31
0.0
  0
LINE
  5
FA
100
AcDbEntity
100
AcDbLine
  8
AM_0
 62
256
370
-1
  6
ByLayer
 10
253.0
 20
210.0
 30
0.0
 11
213.0
 21
170.0
 31
0.0
  0
LINE
  5
FB
100
AcDbEntity
100
AcDbLine
  8
AM_0
 62
256
370
-1
  6
ByLayer
 10
213.0
 20
170.0
 30
0.0
 11
193.0
 21
170.0
 31
0.0
  0
LINE
  5
FC
100
AcDbEntity
100
AcDbLine
  8
AM_0
 62
256
370
-1
  6
ByLayer
 10
193.0
 20
170.0
 30
0.0
 11
162.999999999999801
 21
200.0
 31
0.0
  0
LINE
  5
FD
100
AcDbEntity
100
AcDbLine
  8
AM_0
 62
256
370
-1
  6
ByLayer
 10
162.999999999999801
 20
200.0
 30
0.0
 11
136.999999999999801
 21
200.0
 31
0.0
  0
LINE
  5
FE
100
AcDbEntity
100
AcDbLine
  8
AM_0
 62
256
370
-1
  6
ByLayer
 10
136.999999999999801
 20
200.0
 30
0.0
 11
107.0
 21
170.0
 31
0.0
  0
LINE
  5
FF
100
AcDbEntity
100
AcDbLine
  8
AM_0
 62
256
370
-1
  6
ByLayer
 10
107.0
 20
170.0
 30
0.0
 11
87.0000000000000142
 21
170.0
 31
0.0
  0
LINE
  5
100
100
AcDbEntity
100
AcDbLine
  8
AM_0
 62
256
370
-1
  6
ByLayer
 10
87.0000000000000142
 20
170.0
 30
0.0
 11
46.9999999999999929
 21
210.0
 31
0.0
  0
LINE
  5
101
100
AcDbEntity
100
AcDbLine
  8
AM_0
 62
256
370
-1
  6
ByLayer
 10
46.9999999999999929
 20
210.0
 30
0.0
 11
43.0000000000000071
 21
210.0
 31
0.0
  0
LINE
  5
102
100
AcDbEntity
100
AcDbLine
  8
AM_0
 62
256
370
-1
  6
ByLayer
 10
43.0000000000000071
 20
210.0
 30
0.0
 11
40.0000000000000284
 21
207.0000000000001137
 31
0.0
  0
LINE
  5
103
100
AcDbEntity
100
AcDbLine
  8
AM_0
 62
256
370
-1
  6
ByLayer
 10
40.0000000000000284
 20
207.0000000000001137
 30
0.0
 11
40.0000000000000284
 21
203.0000000000001137
 31
0.0
  0
LINE
  5
104
100
AcDbEntity
100
AcDbLine
  8
AM_0
 62
256
370
-1
  6
ByLayer
 10
40.0000000000000284
 20
203.0000000000001137
 30
0.0
 11
64.9999999999999858
 21
178.0000000000001137
 31
0.0
  0
LINE
  5
105
100
AcDbEntity
100
AcDbLine
  8
AM_0
 62
256
370
-1
  6
ByLayer
 10
40.0000000000000284
 20
-3.0
 30
0.0
 11
40.0000000000000284
 21
-7.0
 31
0.0
  0
CIRCLE
  5
106
100
AcDbEntity
100
AcDbCircle
  8
0
 62
256
370
-1
  6
ByLayer
 10
254.5
 20
-4.5
 30
0.0
 40
1.5
  0
ARC
  5
107
100
AcDbEntity
  8
0
 62
256
370
-1
  6
ByLayer
100
AcDbCircle
 10
45.5
 20
-3.999999999999972
 30
0.0
 40
6.9999999999999929
100
AcDbArc
 50
180.0
 51
0.0
  0
ARC
  5
108
100
AcDbEntity
  8
0
 62
256
370
-1
  6
ByLayer
100
AcDbCircle
 10
254.5
 20
-4.0000000000000142
 30
0.0
 40
7.0
100
AcDbArc
 50
180.0
 51
0.0
  0
CIRCLE
  5
109
100
AcDbEntity
100
AcDbCircle
  8
0
 62
256
370
-1
  6
ByLayer
 10
45.4999999999999929
 20
-4.5
 30
0.0
 40
1.5
  0
DIMENSION
  5
10A
100
AcDbEntity
  8
Cotas
 62
256
370
-1
  6
ByLayer
100
AcDbDimension
 10
38.5
 20
222.1130952380952124
 30
0.0
 11
19.25
 21
224.22619047619051
 31
0.0
 70
0
 71
5
 72
0
 41
1.0
 42
0.0
  1

  3
Standard
100
AcDbAlignedDimension
 13
0.0
 23
200.0
 33
0.0
 14
38.5
 24
200.0
 34
0.0
 50
0.0
100
AcDbRotatedDimension
  0
DIMENSION
  5
10B
100
AcDbEntity
  8
Cotas
 62
256
370
-1
  6
ByLayer
100
AcDbDimension
 10
247.5
 20
221.875
 30
0.0
 11
150.0
 21
223.75
 31
0.0
 70
0
 71
5
 72
0
 41
1.0
 42
0.0
  1

  3
Standard
100
AcDbAlignedDimension
 13
52.4999999999999787
 23
200.0
 33
0.0
 14
247.5
 24
200.0
 34
0.0
 50
0.0
100
AcDbRotatedDimension
  0
DIMENSION
  5
10C
100
AcDbEntity
  8
Cotas
 62
256
370
-1
  6
ByLayer
100
AcDbDimension
 10
254.5
 20
181.875
 30
0.0
 11
150.0
 21
183.75
 31
0.0
 70
0
 71
5
 72
0
 41
1.0
 42
0.0
  1

  3
Standard
100
AcDbAlignedDimension
 13
45.4999999999999929
 23
204.5
 33
0.0
 14
254.5
 24
204.5
 34
0.0
 50
0.0
100
AcDbRotatedDimension
  0
DIMENSION
  5
10D
100
AcDbEntity
  8
Cotas
 62
256
370
-1
  6
ByLayer
100
AcDbDimension
 10
52.4999999999999787
 20
221.875
 30
0.0
 11
45.4999999999999929
 21
223.75
 31
0.0
 70
0
 71
5
 72
0
 41
1.0
 42
0.0
  1

  3
Standard
100
AcDbAlignedDimension
 13
38.5
 23
200.0
 33
0.0
 14
52.4999999999999787
 24
200.0
 34
0.0
 50
0.0
100
AcDbRotatedDimension
  0
DIMENSION
  5
10E
100
AcDbEntity
  8
Cotas
 62
256
370
-1
  6
ByLayer
100
AcDbDimension
 10
45.4999999999999929
 20
204.5
 30
0.0
 11
54.2014222168388784
 21
198.4507601007003075
 31
0.0
 70
4
 71
5
 72
0
 41
1.0
 42
0.0
  1

  3
Standard
100
AcDbRadialDimension
 15
46.2111497345525208
 25
203.1792933501166942
 35
0.0
 40
0.0
  0
DIMENSION
  5
10F
100
AcDbEntity
  8
Cotas
 62
256
370
-1
  6
ByLayer
100
AcDbDimension
 10
45.4999999999999929
 20
204.0
 30
0.0
 11
57.8536425354477686
 21
212.9330603721004991
 31
0.0
 70
4
 71
5
 72
0
 41
1.0
 42
0.0
  1

  3
Standard
100
AcDbRadialDimension
 15
51.161152590122299
 25
208.1172018837253006
 35
0.0
 40
0.0
  0
DIMENSION
  5
110
100
AcDbEntity
  8
Cotas
 62
256
370
-1
  6
ByLayer
100
AcDbDimension
 10
347.886904761904816
 20
200.0
 30
0.0
 11
345.7738095238095752
 21
192.410714285714306
 31
0.0
 70
0
 71
5
 72
0
 41
1.0
 42
0.0
  1

  3
Standard
100
AcDbAlignedDimension
 13
254.5
 23
204.5
 33
0.0
 14
300.0
 24
200.0
 34
0.0
 50
90.0
100
AcDbRotatedDimension
  0
LINE
  5
111
100
AcDbEntity
100
AcDbLine
  8
0
 62
256
370
-1
  6
ByLayer
 10
300.0
 20
32.0
 30
0.0
 11
300.0
 21
165.1992187500001137
 31
0.0
  0
SPLINE
  5
112
  8
0
 62
256
370
-1
  6
ByLayer
100
AcDbEntity
100
AcDbSpline
 70
11
 71
3
 72
21
 73
17
 74
0
 40
0.0
 40
0.0
 40
0.0
 40
0.0
 40
0.0714285714285714
 40
0.1428571428571428
 40
0.2142857142857143
 40
0.2857142857142857
 40
0.3571428571428571
 40
0.4285714285714285
 40
0.5
 40
0.5714285714285714
 40
0.6428571428571428
 40
0.7142857142857142
 40
0.7857142857142857
 40
0.8571428571428571
 40
0.9285714285714285
 40
1.0
 40
1.0
 40
1.0
 40
1.0
 10
134.9999999999998863
 20
160.0
 30
0.0
 10
144.9999999999998863
 20
170.0
 30
0.0
 10
149.9999999999998863
 20
170.0
 30
0.0
 10
154.9999999999998863
 20
170.0
 30
0.0
 10
164.9999999999998863
 20
160.0
 30
0.0
 10
175.0
 20
150.0
 30
0.0
 10
175.0
 20
145.0
 30
0.0
 10
175.0
 20
140.0
 30
0.0
 10
164.9999999999998863
 20
130.0
 30
0.0
 10
154.9999999999998863
 20
120.0
 30
0.0
 10
149.9999999999998863
 20
120.0
 30
0.0
 10
144.9999999999998863
 20
120.0
 30
0.0
 10
134.9999999999998863
 20
130.0
 30
0.0
 10
124.9999999999999005
 20
140.0
 30
0.0
 10
124.9999999999999005
 20
145.0
 30
0.0
 10
124.9999999999999005
 20
150.0
 30
0.0
 10
134.9999999999998863
 20
160.0
 30
0.0
  0
SPLINE
  5
113
  8
0
 62
256
370
-1
  6
ByLayer
100
AcDbEntity
100
AcDbSpline
 70
11
 71
3
 72
13
 73
9
 74
0
 40
0.0
 40
0.0
 40
0.0
 40
0.0
 40
0.1666666666666667
 40
0.3333333333333333
 40
0.5
 40
0.6666666666666666
 40
0.8333333333333333
 40
1.0
 40
1.0
 40
1.0
 40
1.0
 10
95.0
 20
148.0000000000001137
 30
0.0
 10
115.0
 20
128.0
 30
0.0
 10
115.0
 20
100.0
 30
0.0
 10
115.0
 20
72.0
 30
0.0
 10
95.0
 20
52.0
 30
0.0
 10
75.0000000000000142
 20
32.0000000000000071
 30
0.0
 10
75.0000000000000142
 20
100.0000000000000995
 30
0.0
 10
75.0000000000000142
 20
168.0000000000001137
 30
0.0
 10
95.0
 20
148.0000000000001137
 30
0.0
  0
LINE
  5
114
100
AcDbEntity
100
AcDbLine
  8
AM_0
 62
256
370
-1
  6
ByLayer
 10
175.0
 20
60.0000000000000426
 30
0.0
 11
175.0
 21
49.9999999999999929
 31
0.0
  0
SPLINE
  5
115
  8
0
 62
256
370
-1
  6
ByLayer
100
AcDbEntity
100
AcDbSpline
 70
11
 71
3
 72
21
 73
17
 74
0
 40
0.0
 40
0.0
 40
0.0
 40
0.0
 40
0.0714285714285714
 40
0.1428571428571428
 40
0.2142857142857143
 40
0.2857142857142857
 40
0.3571428571428571
 40
0.4285714285714285
 40
0.5
 40
0.5714285714285714
 40
0.6428571428571428
 40
0.7142857142857142
 40
0.7857142857142857
 40
0.8571428571428571
 40
0.9285714285714285
 40
1.0
 40
1.0
 40
1.0
 40
1.0
 10
134.9999999999998863
 20
70.0
 30
0.0
 10
144.9999999999998863
 20
80.0
 30
0.0
 10
149.9999999999998863
 20
80.0
 30
0.0
 10
154.9999999999998863
 20
80.0
 30
0.0
 10
164.9999999999998863
 20
70.0
 30
0.0
 10
175.0
 20
60.0000000000000426
 30
0.0
 10
175.0
 20
55.0000000000000071
 30
0.0
 10
175.0
 20
49.9999999999999787
 30
0.0
 10
164.9999999999998863
 20
40.0000000000000071
 30
0.0
 10
154.9999999999998863
 20
30.0000000000000107
 30
0.0
 10
149.9999999999998863
 20
30.0000000000000107
 30
0.0
 10
144.9999999999998863
 20
30.0000000000000107
 30
0.0
 10
134.9999999999998863
 20
40.0000000000000071
 30
0.0
 10
124.9999999999999005
 20
50.0000000000000426
 30
0.0
 10
124.9999999999999005
 20
55.0000000000000071
 30
0.0
 10
124.9999999999999005
 20
60.0000000000000071
 30
0.0
 10
134.9999999999998863
 20
70.0
 30
0.0
  0
SPLINE
  5
116
  8
0
 62
256
370
-1
  6
ByLayer
100
AcDbEntity
100
AcDbSpline
 70
11
 71
3
 72
13
 73
9
 74
0
 40
0.0
 40
0.0
 40
0.0
 40
0.0
 40
0.1666666666666667
 40
0.3333333333333333
 40
0.5
 40
0.6666666666666666
 40
0.8333333333333333
 40
1.0
 40
1.0
 40
1.0
 40
1.0
 10
205.0
 20
148.000000000000199
 30
0.0
 10
185.0000000000001137
 20
128.0000000000001137
 30
0.0
 10
185.0
 20
100.0000000000000995
 30
0.0
 10
185.0
 20
72.0000000000000853
 30
0.0
 10
205.0
 20
52.0000000000001066
 30
0.0
 10
225.0
 20
32.0000000000000995
 30
0.0
 10
225.0
 20
100.0
 30
0.0
 10
225.0
 20
168.000000000000199
 30
0.0
 10
205.0
 20
148.000000000000199
 30
0.0
  0
LINE
  5
117
100
AcDbEntity
100
AcDbLine
  8
AM_0
 62
256
370
-1
  6
ByLayer
 10
49.3163604582748434
 20
35.6935544093690282
 30
0.0
 11
24.3163604582748896
 21
10.69355440936903
 31
0.0
  0
SPLINE
  5
118
  8
0
 62
256
370
-1
  6
ByLayer
100
AcDbEntity
100
AcDbSpline
 70
11
 71
3
 72
21
 73
17
 74
0
 40
0.0
 40
0.0
 40
0.0
 40
0.0
 40
0.0714285714285714
 40
0.1428571428571428
 40
0.2142857142857143
 40
0.2857142857142857
 40
0.3571428571428571
 40
0.4285714285714285
 40
0.5
 40
0.5714285714285714
 40
0.6428571428571428
 40
0.7142857142857142
 40
0.7857142857142857
 40
0.8571428571428571
 40
0.9285714285714285
 40
1.0
 40
1.0
 40
1.0
 40
1.0
 10
57.1750959714403209
 20
100.021041441444396
 30
0.0
 10
57.1750959714403066
 20
143.424829074817211
 30
0.0
 10
57.1750959714403066
 20
156.5574559295658048
 30
0.0
 10
49.3840234274864471
 20
164.3485284735197069
 30
0.0
 10
36.8840234274864827
 20
176.8485284735197069
 30
0.0
 10
24.4123820783419383
 20
189.3201698226642975
 30
0.0
 10
14.0755437688794096
 20
180.2484698775718073
 30
0.0
 10
13.4336600742694898
 20
167.900390625
 30
0.0
 10
13.4336600742695005
 20
99.9999999999998863
 30
0.0
 10
13.4336600742694898
 20
32.099609374999801
 30
0.0
 10
14.0857818575543003
 20
19.7398384454532305
 30
0.0
 10
24.3530618852666301
 20
10.7302558363607794
 30
0.0
 10
36.8163604582748576
 20
23.1935544093690282
 30
0.0
 10
49.3163604582748434
 20
35.6935544093690282
 30
0.0
 10
57.1750959714403066
 20
43.5522899225345128
 30
0.0
 10
57.1750959714403066
 20
57.0567103372908804
 30
0.0
 10
57.1750959714403066
 20
100.021041441444396
 30
0.0
  0
SPLINE
  5
119
  8
0
 62
256
370
-1
  6
ByLayer
100
AcDbEntity
100
AcDbSpline
 70
11
 71
3
 72
21
 73
17
 74
0
 40
0.0
 40
0.0
 40
0.0
 40
0.0
 40
0.0714285714285714
 40
0.1428571428571428
 40
0.2142857142857143
 40
0.2857142857142857
 40
0.3571428571428571
 40
0.4285714285714285
 40
0.5
 40
0.5714285714285714
 40
0.6428571428571428
 40
0.7142857142857142
 40
0.7857142857142857
 40
0.8571428571428571
 40
0.9285714285714285
 40
1.0
 40
1.0
 40
1.0
 40
1.0
 10
242.8249000000000137
 20
100.0000000000000995
 30
0.0
 10
242.8249000000000137
 20
56.5962123666893433
 30
0.0
 10
242.8249000000000137
 20
43.4635855119407424
 30
0.0
 10
250.6159725439538875
 20
35.6725129679868616
 30
0.0
 10
263.1159725439537738
 20
23.1725129679868616
 30
0.0
 10
275.5876138930984212
 20
10.7008716188422408
 30
0.0
 10
285.9244522025608717
 20
19.7725715639347008
 30
0.0
 10
286.5663358971709158
 20
32.1206508165065401
 30
0.0
 10
286.5663358971709158
 20
100.0210414415060001
 30
0.0
 10
286.5663358971709158
 20
167.9214320665066964
 30
0.0
 10
285.9142141138859756
 20
180.2812029960533096
 30
0.0
 10
275.646934086173701
 20
189.2907856051456861
 30
0.0
 10
263.1836355131654841
 20
176.8274870321374976
 30
0.0
 10
250.6836355131655125
 20
164.3274870321374976
 30
0.0
 10
242.8249000000000137
 20
156.4687515189719988
 30
0.0
 10
242.824900000000099
 20
142.9643311042156881
 30
0.0
 10
242.8249000000000137
 20
100.0000000000000995
 30
0.0
  0
LINE
  5
11A
100
AcDbEntity
100
AcDbLine
  8
AM_0
 62
256
370
-1
  6
ByLayer
 10
75.0000000000000142
 20
32.0
 30
0.0
 11
40.0000000000000284
 21
-3.0
 31
0.0
  0
LINE
  5
11B
100
AcDbEntity
100
AcDbLine
  8
AM_0
 62
256
370
-1
  6
ByLayer
 10
235.0
 20
22.0
 30
0.0
 11
225.0
 21
32.0
 31
0.0
  0
LINE
  5
11C
100
AcDbEntity
100
AcDbLine
  8
AM_0
 62
256
370
-1
  6
ByLayer
 10
235.0
 20
178.0000000000001137
 30
0.0
 11
235.0
 21
22.0
 31
0.0
  0
MTEXT
  5
11D
100
AcDbEntity
100
AcDbMText
  8
0
 62
4
370
-1
  6
ByLayer
 10
1.26182228064522
 20
-29.7498699851411814
 30
0.0
 40
9.375
 41
160.3017958074617866
 71
1
 72
0
  1
MATERIAL: METACRILATO NEGRO\PCANTIDAD: TODO LO VISIBLE\PESPESOR: 8MM.\P
  7
textstyle0
 50
0.0
 73
0
 44
1.0
  0
LINE
  5
11E
100
AcDbEntity
100
AcDbLine
  8
0
 62
256
370
-1
  6
ByLayer
 10
300.0
 20
200.0
 30
0.0
 11
265.0
 21
200.0
 31
0.0
  0
ARC
  5
11F
100
AcDbEntity
  8
0
 62
256
370
-1
  6
ByLayer
100
AcDbCircle
 10
265.0
 20
203.5
 30
0.0
 40
3.5
100
AcDbArc
 50
187.125016348901795
 51
270.0
  0
LINE
  5
120
100
AcDbEntity
100
AcDbLine
  8
0
 62
256
370
-1
  6
ByLayer
 10
261.5
 20
204.0
 30
0.0
 11
261.5270274315021766
 21
203.065878428937765
 31
0.0
  0
ARC
  5
121
100
AcDbEntity
  8
0
 62
256
370
-1
  6
ByLayer
100
AcDbCircle
 10
244.0
 20
203.5
 30
0.0
 40
3.5
100
AcDbArc
 50
270.0
 51
352.8749836510982618
  0
CIRCLE
  5
122
100
AcDbEntity
100
AcDbCircle
  8
0
 62
256
370
-1
  6
ByLayer
 10
45.5
 20
204.5
 30
0.0
 40
1.5
  0
ARC
  5
123
100
AcDbEntity
  8
0
 62
256
370
-1
  6
ByLayer
100
AcDbCircle
 10
45.5
 20
204.0
 30
0.0
 40
7.0
100
AcDbArc
 50
0.0
 51
180.0
  0
ARC
  5
124
100
AcDbEntity
  8
0
 62
256
370
-1
  6
ByLayer
100
AcDbCircle
 10
56.0
 20
203.5
 30
0.0
 40
3.5
100
AcDbArc
 50
187.125016348901795
 51
270.0
  0
LINE
  5
125
100
AcDbEntity
100
AcDbLine
  8
0
 62
256
370
-1
  6
ByLayer
 10
52.5
 20
204.0
 30
0.0
 11
52.5270274315021766
 21
203.065878428937765
 31
0.0
  0
ARC
  5
126
100
AcDbEntity
  8
0
 62
256
370
-1
  6
ByLayer
100
AcDbCircle
 10
35.0
 20
203.5
 30
0.0
 40
3.5
100
AcDbArc
 50
270.0
 51
352.8749836510982618
  0
LINE
  5
127
100
AcDbEntity
100
AcDbLine
  8
0
 62
256
370
-1
  6
ByLayer
 10
247.5
 20
204.0
 30
0.0
 11
247.4729725684978234
 21
203.065878428937765
 31
0.0
  0
LINE
  5
128
100
AcDbEntity
100
AcDbLine
  8
0
 62
256
370
-1
  6
ByLayer
 10
244.0
 20
200.0
 30
0.0
 11
56.0
 21
200.0
 31
0.0
  0
LINE
  5
129
100
AcDbEntity
100
AcDbLine
  8
0
 62
256
370
-1
  6
ByLayer
 10
38.4729725684978376
 20
203.065878428937765
 30
0.0
 11
38.5
 21
204.0
 31
0.0
  0
LINE
  5
12A
100
AcDbEntity
100
AcDbLine
  8
0
 62
256
370
-1
  6
ByLayer
 10
35.0
 20
200.0
 30
0.0
 11
0.0
 21
200.0
 31
0.0
  0
ARC
  5
12B
100
AcDbEntity
  8
0
 62
256
370
-1
  6
ByLayer
100
AcDbCircle
 10
45.4999999999999929
 20
-4.0
 30
0.0
 40
6.9999999999999929
100
AcDbArc
 50
180.0
 51
0.0
  0
CIRCLE
  5
12C
100
AcDbEntity
100
AcDbCircle
  8
0
 62
256
370
-1
  6
ByLayer
 10
45.4999999999999929
 20
-4.5
 30
0.0
 40
1.5
  0
CIRCLE
  5
12D
100
AcDbEntity
100
AcDbCircle
  8
0
 62
256
370
-1
  6
ByLayer
 10
45.5
 20
-4.5
 30
0.0
 40
1.5
  0
ARC
  5
12E
100
AcDbEntity
  8
0
 62
256
370
-1
  6
ByLayer
100
AcDbCircle
 10
45.5
 20
-4.0
 30
0.0
 40
7.0
100
AcDbArc
 50
180.0
 51
0.0
  0
ARC
  5
12F
100
AcDbEntity
  8
0
 62
256
370
-1
  6
ByLayer
100
AcDbCircle
 10
56.0
 20
-3.5000000000000044
 30
0.0
 40
3.5
100
AcDbArc
 50
90.0
 51
172.8749836510982902
  0
LINE
  5
130
100
AcDbEntity
100
AcDbLine
  8
0
 62
256
370
-1
  6
ByLayer
 10
52.5
 20
-4.0
 30
0.0
 11
52.5270274315021766
 21
-3.0658784289377623
 31
0.0
  0
ARC
  5
131
100
AcDbEntity
  8
0
 62
256
370
-1
  6
ByLayer
100
AcDbCircle
 10
35.0
 20
-3.4999999999999996
 30
0.0
 40
3.5
100
AcDbArc
 50
7.1250163489017613
 51
90.0
  0
LINE
  5
132
100
AcDbEntity
100
AcDbLine
  8
0
 62
256
370
-1
  6
ByLayer
 10
38.4729725684978376
 20
-3.0658784289377636
 30
0.0
 11
38.5
 21
-4.0
 31
0.0
  0
LINE
  5
133
100
AcDbEntity
100
AcDbLine
  8
0
 62
256
370
-1
  6
ByLayer
 10
35.0
 20
0.0000000000000004
 30
0.0
 11
0.0
 21
0.0
 31
0.0
  0
ARC
  5
134
100
AcDbEntity
  8
0
 62
256
370
-1
  6
ByLayer
100
AcDbCircle
 10
254.5
 20
-3.999999999999972
 30
0.0
 40
6.9999999999999929
100
AcDbArc
 50
180.0
 51
0.0
  0
CIRCLE
  5
135
100
AcDbEntity
100
AcDbCircle
  8
0
 62
256
370
-1
  6
ByLayer
 10
254.5
 20
-4.5
 30
0.0
 40
1.5
  0
ARC
  5
136
100
AcDbEntity
  8
0
 62
256
370
-1
  6
ByLayer
100
AcDbCircle
 10
254.5
 20
-4.0
 30
0.0
 40
6.9999999999999929
100
AcDbArc
 50
180.0
 51
0.0
  0
CIRCLE
  5
137
100
AcDbEntity
100
AcDbCircle
  8
0
 62
256
370
-1
  6
ByLayer
 10
254.5
 20
-4.5
 30
0.0
 40
1.5
  0
CIRCLE
  5
138
100
AcDbEntity
100
AcDbCircle
  8
0
 62
256
370
-1
  6
ByLayer
 10
254.5
 20
-4.5
 30
0.0
 40
1.5
  0
ARC
  5
139
100
AcDbEntity
  8
0
 62
256
370
-1
  6
ByLayer
100
AcDbCircle
 10
254.5
 20
-4.0
 30
0.0
 40
7.0
100
AcDbArc
 50
180.0
 51
0.0
  0
ARC
  5
13A
100
AcDbEntity
  8
0
 62
256
370
-1
  6
ByLayer
100
AcDbCircle
 10
265.0
 20
-3.5000000000000044
 30
0.0
 40
3.5
100
AcDbArc
 50
90.0
 51
172.8749836510982902
  0
LINE
  5
13B
100
AcDbEntity
100
AcDbLine
  8
0
 62
256
370
-1
  6
ByLayer
 10
261.5
 20
-4.0
 30
0.0
 11
261.5270274315021766
 21
-3.0658784289377623
 31
0.0
  0
ARC
  5
13C
100
AcDbEntity
  8
0
 62
256
370
-1
  6
ByLayer
100
AcDbCircle
 10
244.0
 20
-3.4999999999999996
 30
0.0
 40
3.5
100
AcDbArc
 50
7.1250163489017613
 51
90.0
  0
LINE
  5
13D
100
AcDbEntity
100
AcDbLine
  8
0
 62
256
370
-1
  6
ByLayer
 10
247.4729725684978234
 20
-3.0658784289377636
 30
0.0
 11
247.5
 21
-4.0
 31
0.0
  0
LINE
  5
13E
100
AcDbEntity
100
AcDbLine
  8
0
 62
256
370
-1
  6
ByLayer
 10
56.0
 20
-0.0000000000000044
 30
0.0
 11
244.0
 21
0.0000000000000004
 31
0.0
  0
LINE
  5
13F
100
AcDbEntity
100
AcDbLine
  8
0
 62
256
370
-1
  6
ByLayer
 10
265.0
 20
-0.0000000000000044
 30
0.0
 11
300.0
 21
0.0
 31
0.0
  0
ENDSEC
  0
SECTION
  2
OBJECTS
  0
DICTIONARY
  5
C
100
AcDbDictionary
280
0
281
1
  3
ACAD_GROUP
350
D
  3
ACAD_LAYOUT
350
1A
  3
ACAD_MLINESTYLE
350
17
  3
ACAD_PLOTSETTINGS
350
19
  3
ACAD_PLOTSTYLENAME
350
E
  3
AcDbVariableDictionary
350
140
  0
DICTIONARY
  5
D
100
AcDbDictionary
280
0
281
1
  0
ACDBDICTIONARYWDFLT
  5
E
100
AcDbDictionary
281
1
  3
Normal
350
F
100
AcDbDictionaryWithDefault
340
F
  0
ACDBPLACEHOLDER
  5
F
  0
DICTIONARY
  5
17
100
AcDbDictionary
280
0
281
1
  3
Standard
350
18
  0
MLINESTYLE
  5
18
100
AcDbMlineStyle
  2
STANDARD
 70
0
  3

 62
256
 51
90.0
 52
90.0
 71
2
 49
0.5
 62
256
  6
BYLAYER
 49
-0.5
 62
256
  6
BYLAYER
  0
DICTIONARY
  5
19
100
AcDbDictionary
280
0
281
1
  0
DICTIONARY
  5
1A
100
AcDbDictionary
281
1
  3
Layout1
350
1E
  3
Layout2
350
26
  3
Model
350
22
  0
LAYOUT
  5
1E
100
AcDbPlotSettings
  1

  2
C:\Program Files\AutoCAD 2002\plotters\DWF ePlot (optimized for plotting).pc3
  4

  6

 40
0.0
 41
0.0
 42
0.0
 43
0.0
 44
0.0
 45
0.0
 46
0.0
 47
0.0
 48
0.0
 49
0.0
140
0.0
141
0.0
142
1.0
143
1.0
 70
688
 72
0
 73
0
 74
5
  7

 75
16
147
1.0
148
0.0
149
0.0
100
AcDbLayout
  1
Layout1
 70
1
 71
1
 10
0.0
 20
0.0
 11
420.0
 21
297.0
 12
0.0
 22
0.0
 32
0.0
 14
100000000000000000000.0
 24
100000000000000000000.0
 34
100000000000000000000.0
 15
-100000000000000000000.0
 25
-100000000000000000000.0
 35
-100000000000000000000.0
146
0.0
 13
0.0
 23
0.0
 33
0.0
 16
1.0
 26
0.0
 36
0.0
 17
0.0
 27
1.0
 37
0.0
 76
0
330
1B
  0
LAYOUT
  5
22
100
AcDbPlotSettings
  1

  2
C:\Program Files\AutoCAD 2002\plotters\DWF ePlot (optimized for plotting).pc3
  4

  6

 40
0.0
 41
0.0
 42
0.0
 43
0.0
 44
0.0
 45
0.0
 46
0.0
 47
0.0
 48
0.0
 49
0.0
140
0.0
141
0.0
142
1.0
143
1.0
 70
1712
 72
0
 73
0
 74
0
  7

 75
0
147
1.0
148
0.0
149
0.0
100
AcDbLayout
  1
Model
 70
1
 71
0
 10
0.0
 20
0.0
 11
12.0
 21
9.0
 12
0.0
 22
0.0
 32
0.0
 14
0.0
 24
0.0
 34
0.0
 15
0.0
 25
0.0
 35
0.0
146
0.0
 13
0.0
 23
0.0
 33
0.0
 16
1.0
 26
0.0
 36
0.0
 17
0.0
 27
1.0
 37
0.0
 76
0
330
1F
  0
LAYOUT
  5
26
100
AcDbPlotSettings
  1

  2
C:\Program Files\AutoCAD 2002\plotters\DWF ePlot (optimized for plotting).pc3
  4

  6

 40
0.0
 41
0.0
 42
0.0
 43
0.0
 44
0.0
 45
0.0
 46
0.0
 47
0.0
 48
0.0
 49
0.0
140
0.0
141
0.0
142
1.0
143
1.0
 70
688
 72
0
 73
0
 74
5
  7

 75
16
147
1.0
148
0.0
149
0.0
100
AcDbLayout
  1
Layout2
 70
1
 71
2
 10
0.0
 20
0.0
 11
12.0
 21
9.0
 12
0.0
 22
0.0
 32
0.0
 14
0.0
 24
0.0
 34
0.0
 15
0.0
 25
0.0
 35
0.0
146
0.0
 13
0.0
 23
0.0
 33
0.0
 16
1.0
 26
0.0
 36
0.0
 17
0.0
 27
1.0
 37
0.0
 76
0
330
23
  0
DICTIONARY
  5
140
100
AcDbDictionary
281
1
  3
DIMASSOC
350
142
  3
HIDETEXT
350
141
  0
DICTIONARYVAR
  5
141
100
DictionaryVariables
280
0
  1
2
  0
DICTIONARYVAR
  5
142
100
DictionaryVariables
280
0
  1
1
  0
ENDSEC
  0
EOF
