solid OpenSCAD_Model
  facet normal -1 0 0
    outer loop
      vertex -10 -3.68542 3.375
      vertex -10 3 0
      vertex -10 -6.5 1.75
    endloop
  endfacet
  facet normal -1 0 0
    outer loop
      vertex -10 -6.5 8.25
      vertex -10 -11.5 10
      vertex -10 3 10
    endloop
  endfacet
  facet normal -1 0 0
    outer loop
      vertex -10 -11.5 0
      vertex -10 -11.5 10
      vertex -10 -9.31458 6.625
    endloop
  endfacet
  facet normal -1 0 0
    outer loop
      vertex -10 -11.5 0
      vertex -10 -9.31458 6.625
      vertex -10 -9.31458 3.375
    endloop
  endfacet
  facet normal -1 0 0
    outer loop
      vertex -10 -11.5 0
      vertex -10 -9.31458 3.375
      vertex -10 -6.5 1.75
    endloop
  endfacet
  facet normal -1 0 0
    outer loop
      vertex -10 -11.5 0
      vertex -10 -6.5 1.75
      vertex -10 3 0
    endloop
  endfacet
  facet normal -1 0 0
    outer loop
      vertex -10 -3.68542 6.625
      vertex -10 3 0
      vertex -10 -3.68542 3.375
    endloop
  endfacet
  facet normal -1 0 0
    outer loop
      vertex -10 3 0
      vertex -10 -3.68542 6.625
      vertex -10 3 10
    endloop
  endfacet
  facet normal -1 0 0
    outer loop
      vertex -10 -3.68542 6.625
      vertex -10 -6.5 8.25
      vertex -10 3 10
    endloop
  endfacet
  facet normal -1 0 0
    outer loop
      vertex -10 -9.31458 6.625
      vertex -10 -11.5 10
      vertex -10 -6.5 8.25
    endloop
  endfacet
  facet normal 0 -1 0
    outer loop
      vertex -10 -11.5 10
      vertex -10 -11.5 0
      vertex -5 -11.5 0
    endloop
  endfacet
  facet normal 0 -1 0
    outer loop
      vertex -5 -11.5 10
      vertex -10 -11.5 10
      vertex -5 -11.5 0
    endloop
  endfacet
  facet normal 0 0 -1
    outer loop
      vertex -10 -11.5 0
      vertex -10 3 0
      vertex -5 -11.5 0
    endloop
  endfacet
  facet normal 0 0 -1
    outer loop
      vertex -5 0 0
      vertex -10 3 0
      vertex 7 3 0
    endloop
  endfacet
  facet normal 0 0 -1
    outer loop
      vertex -5 0 0
      vertex 7 3 0
      vertex 10 0 0
    endloop
  endfacet
  facet normal 0 0 -1
    outer loop
      vertex -3 9.5 0
      vertex -7.5 11 0
      vertex 7 9.5 0
    endloop
  endfacet
  facet normal 0 0 -1
    outer loop
      vertex 7 9.5 0
      vertex -7.5 11 0
      vertex -6 12.5 0
    endloop
  endfacet
  facet normal 0 0 -1
    outer loop
      vertex 7 9.5 0
      vertex -6 12.5 0
      vertex -3 12.5 0
    endloop
  endfacet
  facet normal 0 0 -1
    outer loop
      vertex 7 9.5 0
      vertex -3 12.5 0
      vertex 10 12.5 0
    endloop
  endfacet
  facet normal 0 0 -1
    outer loop
      vertex 7 9.5 0
      vertex 10 12.5 0
      vertex 7 3 0
    endloop
  endfacet
  facet normal 0 0 -1
    outer loop
      vertex 7 3 0
      vertex 10 12.5 0
      vertex 10 0 0
    endloop
  endfacet
  facet normal 0 0 -1
    outer loop
      vertex -5 -11.5 0
      vertex -10 3 0
      vertex -5 0 0
    endloop
  endfacet
  facet normal 0 0 -1
    outer loop
      vertex -7.5 11 0
      vertex -3 9.5 0
      vertex -4.5 8 0
    endloop
  endfacet
  facet normal 0 1 0
    outer loop
      vertex -10 3 0
      vertex -10 3 10
      vertex 7 3 0
    endloop
  endfacet
  facet normal 0 1 0
    outer loop
      vertex 7 3 0
      vertex -10 3 10
      vertex 7 3 10
    endloop
  endfacet
  facet normal 0 0 1
    outer loop
      vertex -10 3 10
      vertex -10 -11.5 10
      vertex -5 -11.5 10
    endloop
  endfacet
  facet normal 0 0 1
    outer loop
      vertex 10 0 10
      vertex -10 3 10
      vertex -5 0 10
    endloop
  endfacet
  facet normal 0 0 1
    outer loop
      vertex -5 0 10
      vertex -10 3 10
      vertex -5 -11.5 10
    endloop
  endfacet
  facet normal 0 0 1
    outer loop
      vertex 7 3 10
      vertex -10 3 10
      vertex 10 0 10
    endloop
  endfacet
  facet normal 0 0 1
    outer loop
      vertex -3 9.5 10
      vertex 7 9.5 10
      vertex 10 12.5 10
    endloop
  endfacet
  facet normal 0 0 1
    outer loop
      vertex -3 12.5 10
      vertex -3 9.5 10
      vertex 10 12.5 10
    endloop
  endfacet
  facet normal 0 0 1
    outer loop
      vertex -3 12.5 10
      vertex -4.5 8 10
      vertex -3 9.5 10
    endloop
  endfacet
  facet normal 0 0 1
    outer loop
      vertex 10 12.5 10
      vertex 7 9.5 10
      vertex 10 0 10
    endloop
  endfacet
  facet normal 0 0 1
    outer loop
      vertex 7 9.5 10
      vertex 7 3 10
      vertex 10 0 10
    endloop
  endfacet
  facet normal 0 0 1
    outer loop
      vertex -7.5 11 10
      vertex -3 12.5 10
      vertex -6 12.5 10
    endloop
  endfacet
  facet normal 0 0 1
    outer loop
      vertex -7.5 11 10
      vertex -4.5 8 10
      vertex -3 12.5 10
    endloop
  endfacet
  facet normal 0 1 0
    outer loop
      vertex -7.5 -9.31458 6.625
      vertex -7.5 -9.31458 3.375
      vertex -10 -9.31458 6.625
    endloop
  endfacet
  facet normal 0 1 0
    outer loop
      vertex -10 -9.31458 6.625
      vertex -7.5 -9.31458 3.375
      vertex -10 -9.31458 3.375
    endloop
  endfacet
  facet normal 1.92296e-016 0.5 -0.866025
    outer loop
      vertex -7.5 -6.5 8.25
      vertex -7.5 -9.31458 6.625
      vertex -10 -6.5 8.25
    endloop
  endfacet
  facet normal 1.92296e-016 0.5 -0.866025
    outer loop
      vertex -10 -6.5 8.25
      vertex -7.5 -9.31458 6.625
      vertex -10 -9.31458 6.625
    endloop
  endfacet
  facet normal 1.92296e-016 -0.5 -0.866025
    outer loop
      vertex -7.5 -3.68542 6.625
      vertex -7.5 -6.5 8.25
      vertex -10 -3.68542 6.625
    endloop
  endfacet
  facet normal 1.92296e-016 -0.5 -0.866025
    outer loop
      vertex -10 -3.68542 6.625
      vertex -7.5 -6.5 8.25
      vertex -10 -6.5 8.25
    endloop
  endfacet
  facet normal 0 -1 0
    outer loop
      vertex -7.5 -3.68542 3.375
      vertex -7.5 -3.68542 6.625
      vertex -10 -3.68542 6.625
    endloop
  endfacet
  facet normal 0 -1 0
    outer loop
      vertex -10 -3.68542 3.375
      vertex -7.5 -3.68542 3.375
      vertex -10 -3.68542 6.625
    endloop
  endfacet
  facet normal -1.92296e-016 -0.5 0.866025
    outer loop
      vertex -7.5 -6.5 1.75
      vertex -7.5 -3.68542 3.375
      vertex -10 -3.68542 3.375
    endloop
  endfacet
  facet normal -1.92296e-016 -0.5 0.866025
    outer loop
      vertex -10 -6.5 1.75
      vertex -7.5 -6.5 1.75
      vertex -10 -3.68542 3.375
    endloop
  endfacet
  facet normal -1.92296e-016 0.5 0.866025
    outer loop
      vertex -7.5 -9.31458 3.375
      vertex -7.5 -6.5 1.75
      vertex -10 -6.5 1.75
    endloop
  endfacet
  facet normal -1.92296e-016 0.5 0.866025
    outer loop
      vertex -10 -9.31458 3.375
      vertex -7.5 -9.31458 3.375
      vertex -10 -6.5 1.75
    endloop
  endfacet
  facet normal 1 0 0
    outer loop
      vertex -5 -5.71231 3.32607
      vertex -5 -11.5 0
      vertex -5 0 0
    endloop
  endfacet
  facet normal 1 0 0
    outer loop
      vertex -5 -7.18103 6.72009
      vertex -5 -7.07168 6.75946
      vertex -5 0 10
    endloop
  endfacet
  facet normal 1 0 0
    outer loop
      vertex -5 -11.5 10
      vertex -5 -11.5 0
      vertex -5 -8.34635 4.88384
    endloop
  endfacet
  facet normal 1 0 0
    outer loop
      vertex -5 -11.5 10
      vertex -5 -8.34635 4.88384
      vertex -5 -8.35 5
    endloop
  endfacet
  facet normal 1 0 0
    outer loop
      vertex -5 -11.5 10
      vertex -5 -8.35 5
      vertex -5 -8.34635 5.11616
    endloop
  endfacet
  facet normal 1 0 0
    outer loop
      vertex -5 -5.50872 3.43799
      vertex -5 -5.60876 3.37883
      vertex -5 0 0
    endloop
  endfacet
  facet normal 1 0 0
    outer loop
      vertex -5 -11.5 10
      vertex -5 -8.34635 5.11616
      vertex -5 -8.33541 5.23187
    endloop
  endfacet
  facet normal 1 0 0
    outer loop
      vertex -5 -5.60876 3.37883
      vertex -5 -5.71231 3.32607
      vertex -5 0 0
    endloop
  endfacet
  facet normal 1 0 0
    outer loop
      vertex -5 -11.5 10
      vertex -5 -8.33541 5.23187
      vertex -5 -8.31723 5.34666
    endloop
  endfacet
  facet normal 1 0 0
    outer loop
      vertex -5 -11.5 10
      vertex -5 -8.31723 5.34666
      vertex -5 -8.29188 5.46008
    endloop
  endfacet
  facet normal 1 0 0
    outer loop
      vertex -5 -5.32077 3.57455
      vertex -5 -5.4126 3.50332
      vertex -5 0 0
    endloop
  endfacet
  facet normal 1 0 0
    outer loop
      vertex -5 -11.5 10
      vertex -5 -8.29188 5.46008
      vertex -5 -8.25945 5.57168
    endloop
  endfacet
  facet normal 1 0 0
    outer loop
      vertex -5 -5.4126 3.50332
      vertex -5 -5.50872 3.43799
      vertex -5 0 0
    endloop
  endfacet
  facet normal 1 0 0
    outer loop
      vertex -5 -11.5 10
      vertex -5 -8.25945 5.57168
      vertex -5 -8.22009 5.68103
    endloop
  endfacet
  facet normal 1 0 0
    outer loop
      vertex -5 -11.5 10
      vertex -5 -8.22009 5.68103
      vertex -5 -8.17393 5.78769
    endloop
  endfacet
  facet normal 1 0 0
    outer loop
      vertex -5 -5.15141 3.73359
      vertex -5 -5.23359 3.65141
      vertex -5 0 0
    endloop
  endfacet
  facet normal 1 0 0
    outer loop
      vertex -5 -11.5 10
      vertex -5 -8.17393 5.78769
      vertex -5 -8.12117 5.89124
    endloop
  endfacet
  facet normal 1 0 0
    outer loop
      vertex -5 -5.23359 3.65141
      vertex -5 -5.32077 3.57455
      vertex -5 0 0
    endloop
  endfacet
  facet normal 1 0 0
    outer loop
      vertex -5 -11.5 10
      vertex -5 -8.12117 5.89124
      vertex -5 -8.06201 5.99128
    endloop
  endfacet
  facet normal 1 0 0
    outer loop
      vertex -5 -11.5 10
      vertex -5 -8.06201 5.99128
      vertex -5 -7.99668 6.0874
    endloop
  endfacet
  facet normal 1 0 0
    outer loop
      vertex -5 -5.07455 3.82077
      vertex -5 -5.15141 3.73359
      vertex -5 0 0
    endloop
  endfacet
  facet normal 1 0 0
    outer loop
      vertex -5 -11.5 10
      vertex -5 -7.99668 6.0874
      vertex -5 -7.92545 6.17923
    endloop
  endfacet
  facet normal 1 0 0
    outer loop
      vertex -5 -11.5 10
      vertex -5 -7.92545 6.17923
      vertex -5 -7.84859 6.26641
    endloop
  endfacet
  facet normal 1 0 0
    outer loop
      vertex -5 -4.93799 4.00872
      vertex -5 -5.00332 3.9126
      vertex -5 0 0
    endloop
  endfacet
  facet normal 1 0 0
    outer loop
      vertex -5 -11.5 10
      vertex -5 -7.84859 6.26641
      vertex -5 -7.76641 6.34859
    endloop
  endfacet
  facet normal 1 0 0
    outer loop
      vertex -5 -5.00332 3.9126
      vertex -5 -5.07455 3.82077
      vertex -5 0 0
    endloop
  endfacet
  facet normal 1 0 0
    outer loop
      vertex -5 -11.5 10
      vertex -5 -7.76641 6.34859
      vertex -5 -7.67923 6.42545
    endloop
  endfacet
  facet normal 1 0 0
    outer loop
      vertex -5 -4.93799 5.99128
      vertex -5 -4.87883 5.89124
      vertex -5 0 0
    endloop
  endfacet
  facet normal 1 0 0
    outer loop
      vertex -5 -11.5 10
      vertex -5 -7.67923 6.42545
      vertex -5 -7.5874 6.49668
    endloop
  endfacet
  facet normal 1 0 0
    outer loop
      vertex -5 -4.82607 4.21231
      vertex -5 -4.87883 4.10876
      vertex -5 0 0
    endloop
  endfacet
  facet normal 1 0 0
    outer loop
      vertex -5 -7.39124 6.62117
      vertex -5 -11.5 10
      vertex -5 -7.49128 6.56201
    endloop
  endfacet
  facet normal 1 0 0
    outer loop
      vertex -5 -7.28769 6.67393
      vertex -5 -11.5 10
      vertex -5 -7.39124 6.62117
    endloop
  endfacet
  facet normal 1 0 0
    outer loop
      vertex -5 0 10
      vertex -5 -11.5 10
      vertex -5 -7.28769 6.67393
    endloop
  endfacet
  facet normal 1 0 0
    outer loop
      vertex -5 -7.07168 6.75946
      vertex -5 -6.96008 6.79188
      vertex -5 0 10
    endloop
  endfacet
  facet normal 1 0 0
    outer loop
      vertex -5 0 10
      vertex -5 -7.28769 6.67393
      vertex -5 -7.18103 6.72009
    endloop
  endfacet
  facet normal 1 0 0
    outer loop
      vertex -5 -5.00332 6.0874
      vertex -5 -4.93799 5.99128
      vertex -5 0 0
    endloop
  endfacet
  facet normal 1 0 0
    outer loop
      vertex -5 -4.77991 4.31897
      vertex -5 -4.82607 4.21231
      vertex -5 0 0
    endloop
  endfacet
  facet normal 1 0 0
    outer loop
      vertex -5 -4.68277 4.65335
      vertex -5 -4.70812 4.53992
      vertex -5 0 0
    endloop
  endfacet
  facet normal 1 0 0
    outer loop
      vertex -5 0 10
      vertex -5 -6.96008 6.79188
      vertex -5 -6.84665 6.81723
    endloop
  endfacet
  facet normal 1 0 0
    outer loop
      vertex -5 -4.87883 4.10876
      vertex -5 -4.93799 4.00872
      vertex -5 0 0
    endloop
  endfacet
  facet normal 1 0 0
    outer loop
      vertex -5 0 10
      vertex -5 -6.84665 6.81723
      vertex -5 -6.73187 6.83541
    endloop
  endfacet
  facet normal 1 0 0
    outer loop
      vertex -5 0 10
      vertex -5 -6.73187 6.83541
      vertex -5 -6.61616 6.84635
    endloop
  endfacet
  facet normal 1 0 0
    outer loop
      vertex -5 -4.65365 4.88384
      vertex -5 -4.66459 4.76813
      vertex -5 0 0
    endloop
  endfacet
  facet normal 1 0 0
    outer loop
      vertex -5 0 10
      vertex -5 -6.61616 6.84635
      vertex -5 -6.5 6.85
    endloop
  endfacet
  facet normal 1 0 0
    outer loop
      vertex -5 -4.66459 4.76813
      vertex -5 -4.68277 4.65335
      vertex -5 0 0
    endloop
  endfacet
  facet normal 1 0 0
    outer loop
      vertex -5 0 10
      vertex -5 -6.5 6.85
      vertex -5 -6.38384 6.84635
    endloop
  endfacet
  facet normal 1 0 0
    outer loop
      vertex -5 0 10
      vertex -5 -6.38384 6.84635
      vertex -5 -6.26813 6.83541
    endloop
  endfacet
  facet normal 1 0 0
    outer loop
      vertex -5 -4.65365 5.11616
      vertex -5 -4.65 5
      vertex -5 0 0
    endloop
  endfacet
  facet normal 1 0 0
    outer loop
      vertex -5 0 10
      vertex -5 -6.26813 6.83541
      vertex -5 -6.15334 6.81723
    endloop
  endfacet
  facet normal 1 0 0
    outer loop
      vertex -5 -4.66459 5.23187
      vertex -5 -4.65365 5.11616
      vertex -5 0 0
    endloop
  endfacet
  facet normal 1 0 0
    outer loop
      vertex -5 0 10
      vertex -5 -6.15334 6.81723
      vertex -5 -6.03992 6.79188
    endloop
  endfacet
  facet normal 1 0 0
    outer loop
      vertex -5 -4.65 5
      vertex -5 -4.65365 4.88384
      vertex -5 0 0
    endloop
  endfacet
  facet normal 1 0 0
    outer loop
      vertex -5 0 10
      vertex -5 -6.03992 6.79188
      vertex -5 -5.92832 6.75946
    endloop
  endfacet
  facet normal 1 0 0
    outer loop
      vertex -5 0 10
      vertex -5 -5.92832 6.75946
      vertex -5 -5.81897 6.72009
    endloop
  endfacet
  facet normal 1 0 0
    outer loop
      vertex -5 -4.70812 5.46008
      vertex -5 -4.68277 5.34666
      vertex -5 0 0
    endloop
  endfacet
  facet normal 1 0 0
    outer loop
      vertex -5 0 10
      vertex -5 -5.81897 6.72009
      vertex -5 -5.71231 6.67393
    endloop
  endfacet
  facet normal 1 0 0
    outer loop
      vertex -5 -4.74055 5.57168
      vertex -5 -4.70812 5.46008
      vertex -5 0 0
    endloop
  endfacet
  facet normal 1 0 0
    outer loop
      vertex -5 0 10
      vertex -5 -5.71231 6.67393
      vertex -5 -5.60876 6.62117
    endloop
  endfacet
  facet normal 1 0 0
    outer loop
      vertex -5 -4.77991 5.68103
      vertex -5 -4.74055 5.57168
      vertex -5 0 0
    endloop
  endfacet
  facet normal 1 0 0
    outer loop
      vertex -5 0 10
      vertex -5 -5.60876 6.62117
      vertex -5 -5.50872 6.56201
    endloop
  endfacet
  facet normal 1 0 0
    outer loop
      vertex -5 -4.82607 5.78769
      vertex -5 -4.77991 5.68103
      vertex -5 0 0
    endloop
  endfacet
  facet normal 1 0 0
    outer loop
      vertex -5 0 10
      vertex -5 -5.50872 6.56201
      vertex -5 -5.4126 6.49668
    endloop
  endfacet
  facet normal 1 0 0
    outer loop
      vertex -5 -4.87883 5.89124
      vertex -5 -4.82607 5.78769
      vertex -5 0 0
    endloop
  endfacet
  facet normal 1 0 0
    outer loop
      vertex -5 0 10
      vertex -5 -5.4126 6.49668
      vertex -5 -5.32077 6.42545
    endloop
  endfacet
  facet normal 1 0 0
    outer loop
      vertex -5 -4.68277 5.34666
      vertex -5 -4.66459 5.23187
      vertex -5 0 0
    endloop
  endfacet
  facet normal 1 0 0
    outer loop
      vertex -5 0 10
      vertex -5 -5.32077 6.42545
      vertex -5 -5.23359 6.34859
    endloop
  endfacet
  facet normal 1 0 0
    outer loop
      vertex -5 0 10
      vertex -5 -5.23359 6.34859
      vertex -5 -5.15141 6.26641
    endloop
  endfacet
  facet normal 1 0 0
    outer loop
      vertex -5 0 10
      vertex -5 -5.07455 6.17923
      vertex -5 0 0
    endloop
  endfacet
  facet normal 1 0 0
    outer loop
      vertex -5 0 10
      vertex -5 -5.15141 6.26641
      vertex -5 -5.07455 6.17923
    endloop
  endfacet
  facet normal 1 0 0
    outer loop
      vertex -5 -5.07455 6.17923
      vertex -5 -5.00332 6.0874
      vertex -5 0 0
    endloop
  endfacet
  facet normal 1 0 0
    outer loop
      vertex -5 -4.70812 4.53992
      vertex -5 -4.74055 4.42832
      vertex -5 0 0
    endloop
  endfacet
  facet normal 1 0 0
    outer loop
      vertex -5 -4.74055 4.42832
      vertex -5 -4.77991 4.31897
      vertex -5 0 0
    endloop
  endfacet
  facet normal 1 0 0
    outer loop
      vertex -5 -5.81897 3.27991
      vertex -5 -11.5 0
      vertex -5 -5.71231 3.32607
    endloop
  endfacet
  facet normal 1 0 0
    outer loop
      vertex -5 -5.92832 3.24055
      vertex -5 -11.5 0
      vertex -5 -5.81897 3.27991
    endloop
  endfacet
  facet normal 1 0 0
    outer loop
      vertex -5 -6.03992 3.20812
      vertex -5 -11.5 0
      vertex -5 -5.92832 3.24055
    endloop
  endfacet
  facet normal 1 0 0
    outer loop
      vertex -5 -6.15334 3.18277
      vertex -5 -11.5 0
      vertex -5 -6.03992 3.20812
    endloop
  endfacet
  facet normal 1 0 0
    outer loop
      vertex -5 -6.26813 3.16459
      vertex -5 -11.5 0
      vertex -5 -6.15334 3.18277
    endloop
  endfacet
  facet normal 1 0 0
    outer loop
      vertex -5 -6.38384 3.15365
      vertex -5 -11.5 0
      vertex -5 -6.26813 3.16459
    endloop
  endfacet
  facet normal 1 0 0
    outer loop
      vertex -5 -6.5 3.15
      vertex -5 -11.5 0
      vertex -5 -6.38384 3.15365
    endloop
  endfacet
  facet normal 1 0 0
    outer loop
      vertex -5 -6.61616 3.15365
      vertex -5 -11.5 0
      vertex -5 -6.5 3.15
    endloop
  endfacet
  facet normal 1 0 0
    outer loop
      vertex -5 -6.73187 3.16459
      vertex -5 -11.5 0
      vertex -5 -6.61616 3.15365
    endloop
  endfacet
  facet normal 1 0 0
    outer loop
      vertex -5 -6.84665 3.18277
      vertex -5 -11.5 0
      vertex -5 -6.73187 3.16459
    endloop
  endfacet
  facet normal 1 0 0
    outer loop
      vertex -5 -6.96008 3.20812
      vertex -5 -11.5 0
      vertex -5 -6.84665 3.18277
    endloop
  endfacet
  facet normal 1 0 0
    outer loop
      vertex -5 -7.07168 3.24055
      vertex -5 -11.5 0
      vertex -5 -6.96008 3.20812
    endloop
  endfacet
  facet normal 1 0 0
    outer loop
      vertex -5 -7.18103 3.27991
      vertex -5 -11.5 0
      vertex -5 -7.07168 3.24055
    endloop
  endfacet
  facet normal 1 0 0
    outer loop
      vertex -5 -7.28769 3.32607
      vertex -5 -11.5 0
      vertex -5 -7.18103 3.27991
    endloop
  endfacet
  facet normal 1 0 0
    outer loop
      vertex -5 -7.39124 3.37883
      vertex -5 -11.5 0
      vertex -5 -7.28769 3.32607
    endloop
  endfacet
  facet normal 1 0 0
    outer loop
      vertex -5 -7.49128 3.43799
      vertex -5 -11.5 0
      vertex -5 -7.39124 3.37883
    endloop
  endfacet
  facet normal 1 0 0
    outer loop
      vertex -5 -7.5874 3.50332
      vertex -5 -11.5 0
      vertex -5 -7.49128 3.43799
    endloop
  endfacet
  facet normal 1 0 0
    outer loop
      vertex -5 -7.67923 3.57455
      vertex -5 -11.5 0
      vertex -5 -7.5874 3.50332
    endloop
  endfacet
  facet normal 1 0 0
    outer loop
      vertex -5 -7.76641 3.65141
      vertex -5 -11.5 0
      vertex -5 -7.67923 3.57455
    endloop
  endfacet
  facet normal 1 0 0
    outer loop
      vertex -5 -7.84859 3.73359
      vertex -5 -11.5 0
      vertex -5 -7.76641 3.65141
    endloop
  endfacet
  facet normal 1 0 0
    outer loop
      vertex -5 -7.92545 3.82077
      vertex -5 -11.5 0
      vertex -5 -7.84859 3.73359
    endloop
  endfacet
  facet normal 1 0 0
    outer loop
      vertex -5 -7.99668 3.9126
      vertex -5 -11.5 0
      vertex -5 -7.92545 3.82077
    endloop
  endfacet
  facet normal 1 0 0
    outer loop
      vertex -5 -8.06201 4.00872
      vertex -5 -11.5 0
      vertex -5 -7.99668 3.9126
    endloop
  endfacet
  facet normal 1 0 0
    outer loop
      vertex -5 -8.12117 4.10876
      vertex -5 -11.5 0
      vertex -5 -8.06201 4.00872
    endloop
  endfacet
  facet normal 1 0 0
    outer loop
      vertex -5 -8.17393 4.21231
      vertex -5 -11.5 0
      vertex -5 -8.12117 4.10876
    endloop
  endfacet
  facet normal 1 0 0
    outer loop
      vertex -5 -8.22009 4.31897
      vertex -5 -11.5 0
      vertex -5 -8.17393 4.21231
    endloop
  endfacet
  facet normal 1 0 0
    outer loop
      vertex -5 -8.25945 4.42832
      vertex -5 -11.5 0
      vertex -5 -8.22009 4.31897
    endloop
  endfacet
  facet normal 1 0 0
    outer loop
      vertex -5 -8.29188 4.53992
      vertex -5 -11.5 0
      vertex -5 -8.25945 4.42832
    endloop
  endfacet
  facet normal 1 0 0
    outer loop
      vertex -5 -8.31723 4.65335
      vertex -5 -11.5 0
      vertex -5 -8.29188 4.53992
    endloop
  endfacet
  facet normal 1 0 0
    outer loop
      vertex -5 -8.33541 4.76813
      vertex -5 -11.5 0
      vertex -5 -8.31723 4.65335
    endloop
  endfacet
  facet normal 1 0 0
    outer loop
      vertex -5 -8.34635 4.88384
      vertex -5 -11.5 0
      vertex -5 -8.33541 4.76813
    endloop
  endfacet
  facet normal 1 0 0
    outer loop
      vertex -5 -7.5874 6.49668
      vertex -5 -7.49128 6.56201
      vertex -5 -11.5 10
    endloop
  endfacet
  facet normal 0 -1 0
    outer loop
      vertex -5 0 10
      vertex -5 0 0
      vertex 10 0 0
    endloop
  endfacet
  facet normal 0 -1 0
    outer loop
      vertex 10 0 10
      vertex -5 0 10
      vertex 10 0 0
    endloop
  endfacet
  facet normal 1 0 0
    outer loop
      vertex 10 0 10
      vertex 10 0 0
      vertex 10 12.5 0
    endloop
  endfacet
  facet normal 1 0 0
    outer loop
      vertex 10 12.5 10
      vertex 10 0 10
      vertex 10 12.5 0
    endloop
  endfacet
  facet normal 0 1 0
    outer loop
      vertex -3 12.5 0
      vertex -3 12.5 10
      vertex 10 12.5 0
    endloop
  endfacet
  facet normal 0 1 0
    outer loop
      vertex 10 12.5 0
      vertex -3 12.5 10
      vertex 10 12.5 10
    endloop
  endfacet
  facet normal 0 1 0
    outer loop
      vertex -3 12.5 10
      vertex -3 12.5 0
      vertex -6 12.5 10
    endloop
  endfacet
  facet normal 0 1 0
    outer loop
      vertex -6 12.5 10
      vertex -3 12.5 0
      vertex -6 12.5 0
    endloop
  endfacet
  facet normal -0.707107 0.707107 0
    outer loop
      vertex -7.5 11 0
      vertex -7.5 11 10
      vertex -6 12.5 0
    endloop
  endfacet
  facet normal -0.707107 0.707107 0
    outer loop
      vertex -6 12.5 0
      vertex -7.5 11 10
      vertex -6 12.5 10
    endloop
  endfacet
  facet normal -0.707107 -0.707107 0
    outer loop
      vertex -7.5 11 10
      vertex -7.5 11 0
      vertex -4.5 8 0
    endloop
  endfacet
  facet normal -0.707107 -0.707107 0
    outer loop
      vertex -4.5 8 10
      vertex -7.5 11 10
      vertex -4.5 8 0
    endloop
  endfacet
  facet normal 0.707107 -0.707107 0
    outer loop
      vertex -4.5 8 10
      vertex -4.5 8 0
      vertex -3 9.5 0
    endloop
  endfacet
  facet normal 0.707107 -0.707107 0
    outer loop
      vertex -3 9.5 10
      vertex -4.5 8 10
      vertex -3 9.5 0
    endloop
  endfacet
  facet normal 0 -1 0
    outer loop
      vertex -3 9.5 10
      vertex -3 9.5 0
      vertex 7 9.5 0
    endloop
  endfacet
  facet normal 0 -1 0
    outer loop
      vertex 7 9.5 10
      vertex -3 9.5 10
      vertex 7 9.5 0
    endloop
  endfacet
  facet normal -1 0 0
    outer loop
      vertex 7 3 0
      vertex 7 3 10
      vertex 7 9.5 0
    endloop
  endfacet
  facet normal -1 0 0
    outer loop
      vertex 7 9.5 0
      vertex 7 3 10
      vertex 7 9.5 10
    endloop
  endfacet
  facet normal -1 0 -2.22045e-016
    outer loop
      vertex -7.5 -4.77991 4.31897
      vertex -7.5 -3.68542 6.625
      vertex -7.5 -4.82607 4.21231
    endloop
  endfacet
  facet normal -1 0 -2.22045e-016
    outer loop
      vertex -7.5 -7.99668 3.9126
      vertex -7.5 -6.5 1.75
      vertex -7.5 -9.31458 3.375
    endloop
  endfacet
  facet normal -1 0 -2.22045e-016
    outer loop
      vertex -7.5 -8.17393 5.78769
      vertex -7.5 -9.31458 3.375
      vertex -7.5 -9.31458 6.625
    endloop
  endfacet
  facet normal -1 0 -2.22045e-016
    outer loop
      vertex -7.5 -6.61616 6.84635
      vertex -7.5 -9.31458 6.625
      vertex -7.5 -6.5 8.25
    endloop
  endfacet
  facet normal -1 0 -2.22045e-016
    outer loop
      vertex -7.5 -6.73187 6.83541
      vertex -7.5 -9.31458 6.625
      vertex -7.5 -6.61616 6.84635
    endloop
  endfacet
  facet normal -1 0 -2.22045e-016
    outer loop
      vertex -7.5 -6.5 6.85
      vertex -7.5 -6.61616 6.84635
      vertex -7.5 -6.5 8.25
    endloop
  endfacet
  facet normal -1 0 -2.22045e-016
    outer loop
      vertex -7.5 -6.84665 6.81723
      vertex -7.5 -9.31458 6.625
      vertex -7.5 -6.73187 6.83541
    endloop
  endfacet
  facet normal -1 0 -2.22045e-016
    outer loop
      vertex -7.5 -6.96008 6.79188
      vertex -7.5 -9.31458 6.625
      vertex -7.5 -6.84665 6.81723
    endloop
  endfacet
  facet normal -1 0 -2.22045e-016
    outer loop
      vertex -7.5 -7.07168 6.75946
      vertex -7.5 -9.31458 6.625
      vertex -7.5 -6.96008 6.79188
    endloop
  endfacet
  facet normal -1 0 -2.22045e-016
    outer loop
      vertex -7.5 -7.18103 6.72009
      vertex -7.5 -9.31458 6.625
      vertex -7.5 -7.07168 6.75946
    endloop
  endfacet
  facet normal -1 0 -2.22045e-016
    outer loop
      vertex -7.5 -7.28769 6.67393
      vertex -7.5 -9.31458 6.625
      vertex -7.5 -7.18103 6.72009
    endloop
  endfacet
  facet normal -1 0 -2.22045e-016
    outer loop
      vertex -7.5 -8.06201 4.00872
      vertex -7.5 -9.31458 3.375
      vertex -7.5 -8.12117 4.10876
    endloop
  endfacet
  facet normal -1 0 -2.22045e-016
    outer loop
      vertex -7.5 -8.22009 5.68103
      vertex -7.5 -9.31458 3.375
      vertex -7.5 -8.17393 5.78769
    endloop
  endfacet
  facet normal -1 0 -2.22045e-016
    outer loop
      vertex -7.5 -7.39124 6.62117
      vertex -7.5 -7.49128 6.56201
      vertex -7.5 -9.31458 6.625
    endloop
  endfacet
  facet normal -1 0 -2.22045e-016
    outer loop
      vertex -7.5 -8.35 5
      vertex -7.5 -9.31458 3.375
      vertex -7.5 -8.34635 5.11616
    endloop
  endfacet
  facet normal -1 0 -2.22045e-016
    outer loop
      vertex -7.5 -7.49128 6.56201
      vertex -7.5 -7.5874 6.49668
      vertex -7.5 -9.31458 6.625
    endloop
  endfacet
  facet normal -1 0 -2.22045e-016
    outer loop
      vertex -7.5 -7.5874 6.49668
      vertex -7.5 -7.67923 6.42545
      vertex -7.5 -9.31458 6.625
    endloop
  endfacet
  facet normal -1 0 -2.22045e-016
    outer loop
      vertex -7.5 -8.34635 5.11616
      vertex -7.5 -9.31458 3.375
      vertex -7.5 -8.33541 5.23187
    endloop
  endfacet
  facet normal -1 0 -2.22045e-016
    outer loop
      vertex -7.5 -7.67923 6.42545
      vertex -7.5 -7.76641 6.34859
      vertex -7.5 -9.31458 6.625
    endloop
  endfacet
  facet normal -1 0 -2.22045e-016
    outer loop
      vertex -7.5 -7.76641 6.34859
      vertex -7.5 -7.84859 6.26641
      vertex -7.5 -9.31458 6.625
    endloop
  endfacet
  facet normal -1 0 -2.22045e-016
    outer loop
      vertex -7.5 -8.33541 5.23187
      vertex -7.5 -9.31458 3.375
      vertex -7.5 -8.31723 5.34666
    endloop
  endfacet
  facet normal -1 0 -2.22045e-016
    outer loop
      vertex -7.5 -7.84859 6.26641
      vertex -7.5 -7.92545 6.17923
      vertex -7.5 -9.31458 6.625
    endloop
  endfacet
  facet normal -1 0 -2.22045e-016
    outer loop
      vertex -7.5 -8.31723 5.34666
      vertex -7.5 -9.31458 3.375
      vertex -7.5 -8.29188 5.46008
    endloop
  endfacet
  facet normal -1 0 -2.22045e-016
    outer loop
      vertex -7.5 -7.92545 6.17923
      vertex -7.5 -7.99668 6.0874
      vertex -7.5 -9.31458 6.625
    endloop
  endfacet
  facet normal -1 0 -2.22045e-016
    outer loop
      vertex -7.5 -8.29188 5.46008
      vertex -7.5 -9.31458 3.375
      vertex -7.5 -8.25945 5.57168
    endloop
  endfacet
  facet normal -1 0 -2.22045e-016
    outer loop
      vertex -7.5 -7.99668 6.0874
      vertex -7.5 -8.06201 5.99128
      vertex -7.5 -9.31458 6.625
    endloop
  endfacet
  facet normal -1 0 -2.22045e-016
    outer loop
      vertex -7.5 -8.25945 5.57168
      vertex -7.5 -9.31458 3.375
      vertex -7.5 -8.22009 5.68103
    endloop
  endfacet
  facet normal -1 0 -2.22045e-016
    outer loop
      vertex -7.5 -8.06201 5.99128
      vertex -7.5 -8.12117 5.89124
      vertex -7.5 -9.31458 6.625
    endloop
  endfacet
  facet normal -1 0 -2.22045e-016
    outer loop
      vertex -7.5 -8.12117 5.89124
      vertex -7.5 -8.17393 5.78769
      vertex -7.5 -9.31458 6.625
    endloop
  endfacet
  facet normal -1 0 -2.22045e-016
    outer loop
      vertex -7.5 -8.34635 4.88384
      vertex -7.5 -9.31458 3.375
      vertex -7.5 -8.35 5
    endloop
  endfacet
  facet normal -1 0 -2.22045e-016
    outer loop
      vertex -7.5 -8.33541 4.76813
      vertex -7.5 -9.31458 3.375
      vertex -7.5 -8.34635 4.88384
    endloop
  endfacet
  facet normal -1 0 -2.22045e-016
    outer loop
      vertex -7.5 -8.31723 4.65334
      vertex -7.5 -9.31458 3.375
      vertex -7.5 -8.33541 4.76813
    endloop
  endfacet
  facet normal -1 0 -2.22045e-016
    outer loop
      vertex -7.5 -8.29188 4.53992
      vertex -7.5 -9.31458 3.375
      vertex -7.5 -8.31723 4.65334
    endloop
  endfacet
  facet normal -1 0 -2.22045e-016
    outer loop
      vertex -7.5 -8.25945 4.42832
      vertex -7.5 -9.31458 3.375
      vertex -7.5 -8.29188 4.53992
    endloop
  endfacet
  facet normal -1 0 -2.22045e-016
    outer loop
      vertex -7.5 -8.22009 4.31897
      vertex -7.5 -9.31458 3.375
      vertex -7.5 -8.25945 4.42832
    endloop
  endfacet
  facet normal -1 0 -2.22045e-016
    outer loop
      vertex -7.5 -8.17393 4.21231
      vertex -7.5 -9.31458 3.375
      vertex -7.5 -8.22009 4.31897
    endloop
  endfacet
  facet normal -1 0 -2.22045e-016
    outer loop
      vertex -7.5 -8.12117 4.10876
      vertex -7.5 -9.31458 3.375
      vertex -7.5 -8.17393 4.21231
    endloop
  endfacet
  facet normal -1 0 -2.22045e-016
    outer loop
      vertex -7.5 -5.50872 3.43799
      vertex -7.5 -6.5 1.75
      vertex -7.5 -5.60876 3.37883
    endloop
  endfacet
  facet normal -1 0 -2.22045e-016
    outer loop
      vertex -7.5 -7.92545 3.82077
      vertex -7.5 -6.5 1.75
      vertex -7.5 -7.99668 3.9126
    endloop
  endfacet
  facet normal -1 0 -2.22045e-016
    outer loop
      vertex -7.5 -8.06201 4.00872
      vertex -7.5 -7.99668 3.9126
      vertex -7.5 -9.31458 3.375
    endloop
  endfacet
  facet normal -1 0 -2.22045e-016
    outer loop
      vertex -7.5 -7.84859 3.73359
      vertex -7.5 -6.5 1.75
      vertex -7.5 -7.92545 3.82077
    endloop
  endfacet
  facet normal -1 0 -2.22045e-016
    outer loop
      vertex -7.5 -7.76641 3.65141
      vertex -7.5 -6.5 1.75
      vertex -7.5 -7.84859 3.73359
    endloop
  endfacet
  facet normal -1 0 -2.22045e-016
    outer loop
      vertex -7.5 -7.67923 3.57455
      vertex -7.5 -6.5 1.75
      vertex -7.5 -7.76641 3.65141
    endloop
  endfacet
  facet normal -1 0 -2.22045e-016
    outer loop
      vertex -7.5 -7.5874 3.50332
      vertex -7.5 -6.5 1.75
      vertex -7.5 -7.67923 3.57455
    endloop
  endfacet
  facet normal -1 0 -2.22045e-016
    outer loop
      vertex -7.5 -7.49128 3.43799
      vertex -7.5 -6.5 1.75
      vertex -7.5 -7.5874 3.50332
    endloop
  endfacet
  facet normal -1 0 -2.22045e-016
    outer loop
      vertex -7.5 -7.39124 3.37883
      vertex -7.5 -6.5 1.75
      vertex -7.5 -7.49128 3.43799
    endloop
  endfacet
  facet normal -1 0 -2.22045e-016
    outer loop
      vertex -7.5 -7.28769 3.32607
      vertex -7.5 -6.5 1.75
      vertex -7.5 -7.39124 3.37883
    endloop
  endfacet
  facet normal -1 0 -2.22045e-016
    outer loop
      vertex -7.5 -7.18103 3.27991
      vertex -7.5 -6.5 1.75
      vertex -7.5 -7.28769 3.32607
    endloop
  endfacet
  facet normal -1 0 -2.22045e-016
    outer loop
      vertex -7.5 -7.07168 3.24055
      vertex -7.5 -6.5 1.75
      vertex -7.5 -7.18103 3.27991
    endloop
  endfacet
  facet normal -1 0 -2.22045e-016
    outer loop
      vertex -7.5 -6.96008 3.20812
      vertex -7.5 -6.5 1.75
      vertex -7.5 -7.07168 3.24055
    endloop
  endfacet
  facet normal -1 0 -2.22045e-016
    outer loop
      vertex -7.5 -6.84665 3.18277
      vertex -7.5 -6.5 1.75
      vertex -7.5 -6.96008 3.20812
    endloop
  endfacet
  facet normal -1 0 -2.22045e-016
    outer loop
      vertex -7.5 -6.73187 3.16459
      vertex -7.5 -6.5 1.75
      vertex -7.5 -6.84665 3.18277
    endloop
  endfacet
  facet normal -1 0 -2.22045e-016
    outer loop
      vertex -7.5 -6.61616 3.15365
      vertex -7.5 -6.5 1.75
      vertex -7.5 -6.73187 3.16459
    endloop
  endfacet
  facet normal -1 0 -2.22045e-016
    outer loop
      vertex -7.5 -6.5 3.15
      vertex -7.5 -6.5 1.75
      vertex -7.5 -6.61616 3.15365
    endloop
  endfacet
  facet normal -1 0 -2.22045e-016
    outer loop
      vertex -7.5 -6.38384 3.15365
      vertex -7.5 -6.5 1.75
      vertex -7.5 -6.5 3.15
    endloop
  endfacet
  facet normal -1 0 -2.22045e-016
    outer loop
      vertex -7.5 -6.26813 3.16459
      vertex -7.5 -6.5 1.75
      vertex -7.5 -6.38384 3.15365
    endloop
  endfacet
  facet normal -1 0 -2.22045e-016
    outer loop
      vertex -7.5 -6.15334 3.18277
      vertex -7.5 -6.5 1.75
      vertex -7.5 -6.26813 3.16459
    endloop
  endfacet
  facet normal -1 0 -2.22045e-016
    outer loop
      vertex -7.5 -6.03992 3.20812
      vertex -7.5 -6.5 1.75
      vertex -7.5 -6.15334 3.18277
    endloop
  endfacet
  facet normal -1 0 -2.22045e-016
    outer loop
      vertex -7.5 -5.92832 3.24055
      vertex -7.5 -6.5 1.75
      vertex -7.5 -6.03992 3.20812
    endloop
  endfacet
  facet normal -1 0 -2.22045e-016
    outer loop
      vertex -7.5 -5.81897 3.27991
      vertex -7.5 -6.5 1.75
      vertex -7.5 -5.92832 3.24055
    endloop
  endfacet
  facet normal -1 0 -2.22045e-016
    outer loop
      vertex -7.5 -5.71231 3.32607
      vertex -7.5 -6.5 1.75
      vertex -7.5 -5.81897 3.27991
    endloop
  endfacet
  facet normal -1 0 -2.22045e-016
    outer loop
      vertex -7.5 -5.60876 3.37883
      vertex -7.5 -6.5 1.75
      vertex -7.5 -5.71231 3.32607
    endloop
  endfacet
  facet normal -1 0 -2.22045e-016
    outer loop
      vertex -7.5 -3.68542 3.375
      vertex -7.5 -6.5 1.75
      vertex -7.5 -5.50872 3.43799
    endloop
  endfacet
  facet normal -1 0 -2.22045e-016
    outer loop
      vertex -7.5 -3.68542 3.375
      vertex -7.5 -5.50872 3.43799
      vertex -7.5 -5.4126 3.50332
    endloop
  endfacet
  facet normal -1 0 -2.22045e-016
    outer loop
      vertex -7.5 -3.68542 3.375
      vertex -7.5 -5.4126 3.50332
      vertex -7.5 -5.32077 3.57455
    endloop
  endfacet
  facet normal -1 0 -2.22045e-016
    outer loop
      vertex -7.5 -3.68542 3.375
      vertex -7.5 -5.32077 3.57455
      vertex -7.5 -5.23359 3.65141
    endloop
  endfacet
  facet normal -1 0 -2.22045e-016
    outer loop
      vertex -7.5 -3.68542 3.375
      vertex -7.5 -5.23359 3.65141
      vertex -7.5 -5.15141 3.73359
    endloop
  endfacet
  facet normal -1 0 -2.22045e-016
    outer loop
      vertex -7.5 -3.68542 3.375
      vertex -7.5 -5.15141 3.73359
      vertex -7.5 -5.07455 3.82077
    endloop
  endfacet
  facet normal -1 0 -2.22045e-016
    outer loop
      vertex -7.5 -3.68542 3.375
      vertex -7.5 -5.07455 3.82077
      vertex -7.5 -5.00332 3.9126
    endloop
  endfacet
  facet normal -1 0 -2.22045e-016
    outer loop
      vertex -7.5 -3.68542 3.375
      vertex -7.5 -5.00332 3.9126
      vertex -7.5 -4.93799 4.00872
    endloop
  endfacet
  facet normal -1 0 -2.22045e-016
    outer loop
      vertex -7.5 -3.68542 3.375
      vertex -7.5 -4.93799 4.00872
      vertex -7.5 -4.87883 4.10876
    endloop
  endfacet
  facet normal -1 0 -2.22045e-016
    outer loop
      vertex -7.5 -3.68542 3.375
      vertex -7.5 -4.87883 4.10876
      vertex -7.5 -4.82607 4.21231
    endloop
  endfacet
  facet normal -1 0 -2.22045e-016
    outer loop
      vertex -7.5 -3.68542 3.375
      vertex -7.5 -4.82607 4.21231
      vertex -7.5 -3.68542 6.625
    endloop
  endfacet
  facet normal -1 0 -2.22045e-016
    outer loop
      vertex -7.5 -4.74055 4.42832
      vertex -7.5 -3.68542 6.625
      vertex -7.5 -4.77991 4.31897
    endloop
  endfacet
  facet normal -1 0 -2.22045e-016
    outer loop
      vertex -7.5 -4.70812 4.53992
      vertex -7.5 -3.68542 6.625
      vertex -7.5 -4.74055 4.42832
    endloop
  endfacet
  facet normal -1 0 -2.22045e-016
    outer loop
      vertex -7.5 -4.68277 4.65334
      vertex -7.5 -3.68542 6.625
      vertex -7.5 -4.70812 4.53992
    endloop
  endfacet
  facet normal -1 0 -2.22045e-016
    outer loop
      vertex -7.5 -4.66459 4.76813
      vertex -7.5 -3.68542 6.625
      vertex -7.5 -4.68277 4.65334
    endloop
  endfacet
  facet normal -1 0 -2.22045e-016
    outer loop
      vertex -7.5 -4.65365 4.88384
      vertex -7.5 -3.68542 6.625
      vertex -7.5 -4.66459 4.76813
    endloop
  endfacet
  facet normal -1 0 -2.22045e-016
    outer loop
      vertex -7.5 -4.65 5
      vertex -7.5 -3.68542 6.625
      vertex -7.5 -4.65365 4.88384
    endloop
  endfacet
  facet normal -1 0 -2.22045e-016
    outer loop
      vertex -7.5 -4.65365 5.11616
      vertex -7.5 -3.68542 6.625
      vertex -7.5 -4.65 5
    endloop
  endfacet
  facet normal -1 0 -2.22045e-016
    outer loop
      vertex -7.5 -4.66459 5.23187
      vertex -7.5 -3.68542 6.625
      vertex -7.5 -4.65365 5.11616
    endloop
  endfacet
  facet normal -1 0 -2.22045e-016
    outer loop
      vertex -7.5 -4.68277 5.34666
      vertex -7.5 -3.68542 6.625
      vertex -7.5 -4.66459 5.23187
    endloop
  endfacet
  facet normal -1 0 -2.22045e-016
    outer loop
      vertex -7.5 -4.70812 5.46008
      vertex -7.5 -3.68542 6.625
      vertex -7.5 -4.68277 5.34666
    endloop
  endfacet
  facet normal -1 0 -2.22045e-016
    outer loop
      vertex -7.5 -4.74055 5.57168
      vertex -7.5 -3.68542 6.625
      vertex -7.5 -4.70812 5.46008
    endloop
  endfacet
  facet normal -1 0 -2.22045e-016
    outer loop
      vertex -7.5 -4.77991 5.68103
      vertex -7.5 -3.68542 6.625
      vertex -7.5 -4.74055 5.57168
    endloop
  endfacet
  facet normal -1 0 -2.22045e-016
    outer loop
      vertex -7.5 -4.82607 5.78769
      vertex -7.5 -3.68542 6.625
      vertex -7.5 -4.77991 5.68103
    endloop
  endfacet
  facet normal -1 0 -2.22045e-016
    outer loop
      vertex -7.5 -4.87883 5.89124
      vertex -7.5 -3.68542 6.625
      vertex -7.5 -4.82607 5.78769
    endloop
  endfacet
  facet normal -1 0 -2.22045e-016
    outer loop
      vertex -7.5 -4.93799 5.99128
      vertex -7.5 -3.68542 6.625
      vertex -7.5 -4.87883 5.89124
    endloop
  endfacet
  facet normal -1 0 -2.22045e-016
    outer loop
      vertex -7.5 -5.00332 6.0874
      vertex -7.5 -3.68542 6.625
      vertex -7.5 -4.93799 5.99128
    endloop
  endfacet
  facet normal -1 0 -2.22045e-016
    outer loop
      vertex -7.5 -5.07455 6.17923
      vertex -7.5 -3.68542 6.625
      vertex -7.5 -5.00332 6.0874
    endloop
  endfacet
  facet normal -1 0 -2.22045e-016
    outer loop
      vertex -7.5 -5.71231 6.67393
      vertex -7.5 -3.68542 6.625
      vertex -7.5 -5.60876 6.62117
    endloop
  endfacet
  facet normal -1 0 -2.22045e-016
    outer loop
      vertex -7.5 -3.68542 6.625
      vertex -7.5 -5.07455 6.17923
      vertex -7.5 -5.15141 6.26641
    endloop
  endfacet
  facet normal -1 0 -2.22045e-016
    outer loop
      vertex -7.5 -3.68542 6.625
      vertex -7.5 -5.15141 6.26641
      vertex -7.5 -5.23359 6.34859
    endloop
  endfacet
  facet normal -1 0 -2.22045e-016
    outer loop
      vertex -7.5 -3.68542 6.625
      vertex -7.5 -5.23359 6.34859
      vertex -7.5 -5.32077 6.42545
    endloop
  endfacet
  facet normal -1 0 -2.22045e-016
    outer loop
      vertex -7.5 -3.68542 6.625
      vertex -7.5 -5.32077 6.42545
      vertex -7.5 -5.4126 6.49668
    endloop
  endfacet
  facet normal -1 0 -2.22045e-016
    outer loop
      vertex -7.5 -3.68542 6.625
      vertex -7.5 -5.4126 6.49668
      vertex -7.5 -5.50872 6.56201
    endloop
  endfacet
  facet normal -1 0 -2.22045e-016
    outer loop
      vertex -7.5 -3.68542 6.625
      vertex -7.5 -5.50872 6.56201
      vertex -7.5 -5.60876 6.62117
    endloop
  endfacet
  facet normal -1 0 -2.22045e-016
    outer loop
      vertex -7.5 -5.81897 6.72009
      vertex -7.5 -3.68542 6.625
      vertex -7.5 -5.71231 6.67393
    endloop
  endfacet
  facet normal -1 0 -2.22045e-016
    outer loop
      vertex -7.5 -5.92832 6.75946
      vertex -7.5 -3.68542 6.625
      vertex -7.5 -5.81897 6.72009
    endloop
  endfacet
  facet normal -1 0 -2.22045e-016
    outer loop
      vertex -7.5 -6.03992 6.79188
      vertex -7.5 -3.68542 6.625
      vertex -7.5 -5.92832 6.75946
    endloop
  endfacet
  facet normal -1 0 -2.22045e-016
    outer loop
      vertex -7.5 -6.15334 6.81723
      vertex -7.5 -3.68542 6.625
      vertex -7.5 -6.03992 6.79188
    endloop
  endfacet
  facet normal -1 0 -2.22045e-016
    outer loop
      vertex -7.5 -3.68542 6.625
      vertex -7.5 -6.15334 6.81723
      vertex -7.5 -6.5 8.25
    endloop
  endfacet
  facet normal -1 0 -2.22045e-016
    outer loop
      vertex -7.5 -6.15334 6.81723
      vertex -7.5 -6.26813 6.83541
      vertex -7.5 -6.5 8.25
    endloop
  endfacet
  facet normal -1 0 -2.22045e-016
    outer loop
      vertex -7.5 -6.26813 6.83541
      vertex -7.5 -6.38384 6.84635
      vertex -7.5 -6.5 8.25
    endloop
  endfacet
  facet normal -1 0 -2.22045e-016
    outer loop
      vertex -7.5 -6.38384 6.84635
      vertex -7.5 -6.5 6.85
      vertex -7.5 -6.5 8.25
    endloop
  endfacet
  facet normal -1 0 -2.22045e-016
    outer loop
      vertex -7.5 -7.39124 6.62117
      vertex -7.5 -9.31458 6.625
      vertex -7.5 -7.28769 6.67393
    endloop
  endfacet
  facet normal -6.97547e-018 0.999506 0.0314147
    outer loop
      vertex -5 -8.34635 4.88384
      vertex -7.5 -8.34635 4.88384
      vertex -5 -8.35 5
    endloop
  endfacet
  facet normal -6.97547e-018 0.999506 0.0314147
    outer loop
      vertex -5 -8.35 5
      vertex -7.5 -8.34635 4.88384
      vertex -7.5 -8.35 5
    endloop
  endfacet
  facet normal -2.08958e-017 0.995562 0.0941062
    outer loop
      vertex -5 -8.33541 4.76813
      vertex -7.5 -8.33541 4.76813
      vertex -5 -8.34635 4.88384
    endloop
  endfacet
  facet normal -2.08958e-017 0.995562 0.0941062
    outer loop
      vertex -5 -8.34635 4.88384
      vertex -7.5 -8.33541 4.76813
      vertex -7.5 -8.34635 4.88384
    endloop
  endfacet
  facet normal -3.47358e-017 0.987688 0.156436
    outer loop
      vertex -5 -8.31723 4.65335
      vertex -7.5 -8.31723 4.65334
      vertex -5 -8.33541 4.76813
    endloop
  endfacet
  facet normal -3.47358e-017 0.987688 0.156436
    outer loop
      vertex -5 -8.33541 4.76813
      vertex -7.5 -8.31723 4.65334
      vertex -7.5 -8.33541 4.76813
    endloop
  endfacet
  facet normal -4.84364e-017 0.975918 0.218138
    outer loop
      vertex -5 -8.29188 4.53992
      vertex -7.5 -8.29188 4.53992
      vertex -5 -8.31723 4.65335
    endloop
  endfacet
  facet normal -4.84364e-017 0.975918 0.218138
    outer loop
      vertex -5 -8.31723 4.65335
      vertex -7.5 -8.29188 4.53992
      vertex -7.5 -8.31723 4.65334
    endloop
  endfacet
  facet normal -6.1948e-017 0.960294 0.278989
    outer loop
      vertex -5 -8.25945 4.42832
      vertex -7.5 -8.25945 4.42832
      vertex -5 -8.29188 4.53992
    endloop
  endfacet
  facet normal -6.1948e-017 0.960294 0.278989
    outer loop
      vertex -5 -8.29188 4.53992
      vertex -7.5 -8.25945 4.42832
      vertex -7.5 -8.29188 4.53992
    endloop
  endfacet
  facet normal -7.52165e-017 0.940878 0.338745
    outer loop
      vertex -5 -8.22009 4.31897
      vertex -7.5 -8.22009 4.31897
      vertex -5 -8.25945 4.42832
    endloop
  endfacet
  facet normal -7.52165e-017 0.940878 0.338745
    outer loop
      vertex -5 -8.25945 4.42832
      vertex -7.5 -8.22009 4.31897
      vertex -7.5 -8.25945 4.42832
    endloop
  endfacet
  facet normal -8.81833e-017 0.917757 0.397142
    outer loop
      vertex -5 -8.17393 4.21231
      vertex -7.5 -8.17393 4.21231
      vertex -5 -8.22009 4.31897
    endloop
  endfacet
  facet normal -8.81833e-017 0.917757 0.397142
    outer loop
      vertex -5 -8.22009 4.31897
      vertex -7.5 -8.17393 4.21231
      vertex -7.5 -8.22009 4.31897
    endloop
  endfacet
  facet normal -1.00807e-016 0.891004 0.453995
    outer loop
      vertex -5 -8.12117 4.10876
      vertex -7.5 -8.12117 4.10876
      vertex -5 -8.17393 4.21231
    endloop
  endfacet
  facet normal -1.00807e-016 0.891004 0.453995
    outer loop
      vertex -5 -8.17393 4.21231
      vertex -7.5 -8.12117 4.10876
      vertex -7.5 -8.17393 4.21231
    endloop
  endfacet
  facet normal -1.13028e-016 0.860746 0.509034
    outer loop
      vertex -5 -8.06201 4.00872
      vertex -7.5 -8.06201 4.00872
      vertex -5 -8.12117 4.10876
    endloop
  endfacet
  facet normal -1.13028e-016 0.860746 0.509034
    outer loop
      vertex -5 -8.12117 4.10876
      vertex -7.5 -8.06201 4.00872
      vertex -7.5 -8.12117 4.10876
    endloop
  endfacet
  facet normal -1.24809e-016 0.827077 0.562089
    outer loop
      vertex -5 -7.99668 3.9126
      vertex -7.5 -7.99668 3.9126
      vertex -5 -8.06201 4.00872
    endloop
  endfacet
  facet normal -1.24809e-016 0.827077 0.562089
    outer loop
      vertex -5 -8.06201 4.00872
      vertex -7.5 -7.99668 3.9126
      vertex -7.5 -8.06201 4.00872
    endloop
  endfacet
  facet normal -1.36093e-016 0.790153 0.61291
    outer loop
      vertex -5 -7.92545 3.82077
      vertex -7.5 -7.92545 3.82077
      vertex -5 -7.99668 3.9126
    endloop
  endfacet
  facet normal -1.36093e-016 0.790153 0.61291
    outer loop
      vertex -5 -7.99668 3.9126
      vertex -7.5 -7.92545 3.82077
      vertex -7.5 -7.99668 3.9126
    endloop
  endfacet
  facet normal -1.4684e-016 0.750114 0.661308
    outer loop
      vertex -5 -7.84859 3.73359
      vertex -7.5 -7.84859 3.73359
      vertex -5 -7.92545 3.82077
    endloop
  endfacet
  facet normal -1.4684e-016 0.750114 0.661308
    outer loop
      vertex -5 -7.92545 3.82077
      vertex -7.5 -7.84859 3.73359
      vertex -7.5 -7.92545 3.82077
    endloop
  endfacet
  facet normal -1.57009e-016 0.707107 0.707107
    outer loop
      vertex -5 -7.76641 3.65141
      vertex -7.5 -7.76641 3.65141
      vertex -5 -7.84859 3.73359
    endloop
  endfacet
  facet normal -1.57009e-016 0.707107 0.707107
    outer loop
      vertex -5 -7.84859 3.73359
      vertex -7.5 -7.76641 3.65141
      vertex -7.5 -7.84859 3.73359
    endloop
  endfacet
  facet normal -1.66559e-016 0.661308 0.750114
    outer loop
      vertex -5 -7.76641 3.65141
      vertex -5 -7.67923 3.57455
      vertex -7.5 -7.67923 3.57455
    endloop
  endfacet
  facet normal -1.66559e-016 0.661308 0.750114
    outer loop
      vertex -7.5 -7.76641 3.65141
      vertex -5 -7.76641 3.65141
      vertex -7.5 -7.67923 3.57455
    endloop
  endfacet
  facet normal -1.75449e-016 0.61291 0.790153
    outer loop
      vertex -5 -7.67923 3.57455
      vertex -5 -7.5874 3.50332
      vertex -7.5 -7.5874 3.50332
    endloop
  endfacet
  facet normal -1.75449e-016 0.61291 0.790153
    outer loop
      vertex -7.5 -7.67923 3.57455
      vertex -5 -7.67923 3.57455
      vertex -7.5 -7.5874 3.50332
    endloop
  endfacet
  facet normal -1.83648e-016 0.562089 0.827077
    outer loop
      vertex -5 -7.5874 3.50332
      vertex -5 -7.49128 3.43799
      vertex -7.5 -7.49128 3.43799
    endloop
  endfacet
  facet normal -1.83648e-016 0.562089 0.827077
    outer loop
      vertex -7.5 -7.5874 3.50332
      vertex -5 -7.5874 3.50332
      vertex -7.5 -7.49128 3.43799
    endloop
  endfacet
  facet normal -1.91124e-016 0.509034 0.860746
    outer loop
      vertex -5 -7.49128 3.43799
      vertex -5 -7.39124 3.37883
      vertex -7.5 -7.39124 3.37883
    endloop
  endfacet
  facet normal -1.91124e-016 0.509034 0.860746
    outer loop
      vertex -7.5 -7.49128 3.43799
      vertex -5 -7.49128 3.43799
      vertex -7.5 -7.39124 3.37883
    endloop
  endfacet
  facet normal -1.97843e-016 0.453995 0.891004
    outer loop
      vertex -5 -7.39124 3.37883
      vertex -5 -7.28769 3.32607
      vertex -7.5 -7.28769 3.32607
    endloop
  endfacet
  facet normal -1.97843e-016 0.453995 0.891004
    outer loop
      vertex -7.5 -7.39124 3.37883
      vertex -5 -7.39124 3.37883
      vertex -7.5 -7.28769 3.32607
    endloop
  endfacet
  facet normal -2.03783e-016 0.397142 0.917757
    outer loop
      vertex -5 -7.28769 3.32607
      vertex -5 -7.18103 3.27991
      vertex -7.5 -7.18103 3.27991
    endloop
  endfacet
  facet normal -2.03783e-016 0.397142 0.917757
    outer loop
      vertex -7.5 -7.28769 3.32607
      vertex -5 -7.28769 3.32607
      vertex -7.5 -7.18103 3.27991
    endloop
  endfacet
  facet normal -2.08917e-016 0.338745 0.940878
    outer loop
      vertex -5 -7.18103 3.27991
      vertex -5 -7.07168 3.24055
      vertex -7.5 -7.07168 3.24055
    endloop
  endfacet
  facet normal -2.08917e-016 0.338745 0.940878
    outer loop
      vertex -7.5 -7.18103 3.27991
      vertex -5 -7.18103 3.27991
      vertex -7.5 -7.07168 3.24055
    endloop
  endfacet
  facet normal -2.13228e-016 0.278989 0.960294
    outer loop
      vertex -5 -7.07168 3.24055
      vertex -5 -6.96008 3.20812
      vertex -7.5 -6.96008 3.20812
    endloop
  endfacet
  facet normal -2.13228e-016 0.278989 0.960294
    outer loop
      vertex -7.5 -7.07168 3.24055
      vertex -5 -7.07168 3.24055
      vertex -7.5 -6.96008 3.20812
    endloop
  endfacet
  facet normal -2.16697e-016 0.218138 0.975918
    outer loop
      vertex -5 -6.96008 3.20812
      vertex -5 -6.84665 3.18277
      vertex -7.5 -6.84665 3.18277
    endloop
  endfacet
  facet normal -2.16697e-016 0.218138 0.975918
    outer loop
      vertex -7.5 -6.96008 3.20812
      vertex -5 -6.96008 3.20812
      vertex -7.5 -6.84665 3.18277
    endloop
  endfacet
  facet normal -2.19311e-016 0.156436 0.987688
    outer loop
      vertex -5 -6.84665 3.18277
      vertex -5 -6.73187 3.16459
      vertex -7.5 -6.73187 3.16459
    endloop
  endfacet
  facet normal -2.19311e-016 0.156436 0.987688
    outer loop
      vertex -7.5 -6.84665 3.18277
      vertex -5 -6.84665 3.18277
      vertex -7.5 -6.73187 3.16459
    endloop
  endfacet
  facet normal -2.21059e-016 0.0941062 0.995562
    outer loop
      vertex -5 -6.73187 3.16459
      vertex -5 -6.61616 3.15365
      vertex -7.5 -6.61616 3.15365
    endloop
  endfacet
  facet normal -2.21059e-016 0.0941062 0.995562
    outer loop
      vertex -7.5 -6.73187 3.16459
      vertex -5 -6.73187 3.16459
      vertex -7.5 -6.61616 3.15365
    endloop
  endfacet
  facet normal -2.21935e-016 0.0314147 0.999506
    outer loop
      vertex -5 -6.61616 3.15365
      vertex -5 -6.5 3.15
      vertex -7.5 -6.5 3.15
    endloop
  endfacet
  facet normal -2.21935e-016 0.0314147 0.999506
    outer loop
      vertex -7.5 -6.61616 3.15365
      vertex -5 -6.61616 3.15365
      vertex -7.5 -6.5 3.15
    endloop
  endfacet
  facet normal -2.21935e-016 -0.0314147 0.999506
    outer loop
      vertex -7.5 -6.5 3.15
      vertex -5 -6.5 3.15
      vertex -5 -6.38384 3.15365
    endloop
  endfacet
  facet normal -2.21935e-016 -0.0314147 0.999506
    outer loop
      vertex -7.5 -6.38384 3.15365
      vertex -7.5 -6.5 3.15
      vertex -5 -6.38384 3.15365
    endloop
  endfacet
  facet normal -2.21059e-016 -0.0941062 0.995562
    outer loop
      vertex -7.5 -6.38384 3.15365
      vertex -5 -6.38384 3.15365
      vertex -5 -6.26813 3.16459
    endloop
  endfacet
  facet normal -2.21059e-016 -0.0941062 0.995562
    outer loop
      vertex -7.5 -6.26813 3.16459
      vertex -7.5 -6.38384 3.15365
      vertex -5 -6.26813 3.16459
    endloop
  endfacet
  facet normal -2.19311e-016 -0.156436 0.987688
    outer loop
      vertex -7.5 -6.26813 3.16459
      vertex -5 -6.26813 3.16459
      vertex -5 -6.15334 3.18277
    endloop
  endfacet
  facet normal -2.19311e-016 -0.156436 0.987688
    outer loop
      vertex -7.5 -6.15334 3.18277
      vertex -7.5 -6.26813 3.16459
      vertex -5 -6.15334 3.18277
    endloop
  endfacet
  facet normal -2.16697e-016 -0.218138 0.975918
    outer loop
      vertex -7.5 -6.15334 3.18277
      vertex -5 -6.15334 3.18277
      vertex -5 -6.03992 3.20812
    endloop
  endfacet
  facet normal -2.16697e-016 -0.218138 0.975918
    outer loop
      vertex -7.5 -6.03992 3.20812
      vertex -7.5 -6.15334 3.18277
      vertex -5 -6.03992 3.20812
    endloop
  endfacet
  facet normal -2.13228e-016 -0.278989 0.960294
    outer loop
      vertex -7.5 -6.03992 3.20812
      vertex -5 -6.03992 3.20812
      vertex -5 -5.92832 3.24055
    endloop
  endfacet
  facet normal -2.13228e-016 -0.278989 0.960294
    outer loop
      vertex -7.5 -5.92832 3.24055
      vertex -7.5 -6.03992 3.20812
      vertex -5 -5.92832 3.24055
    endloop
  endfacet
  facet normal -2.08917e-016 -0.338745 0.940878
    outer loop
      vertex -7.5 -5.92832 3.24055
      vertex -5 -5.92832 3.24055
      vertex -5 -5.81897 3.27991
    endloop
  endfacet
  facet normal -2.08917e-016 -0.338745 0.940878
    outer loop
      vertex -7.5 -5.81897 3.27991
      vertex -7.5 -5.92832 3.24055
      vertex -5 -5.81897 3.27991
    endloop
  endfacet
  facet normal -2.03783e-016 -0.397142 0.917757
    outer loop
      vertex -7.5 -5.81897 3.27991
      vertex -5 -5.81897 3.27991
      vertex -5 -5.71231 3.32607
    endloop
  endfacet
  facet normal -2.03783e-016 -0.397142 0.917757
    outer loop
      vertex -7.5 -5.71231 3.32607
      vertex -7.5 -5.81897 3.27991
      vertex -5 -5.71231 3.32607
    endloop
  endfacet
  facet normal -1.97843e-016 -0.453995 0.891004
    outer loop
      vertex -7.5 -5.71231 3.32607
      vertex -5 -5.71231 3.32607
      vertex -5 -5.60876 3.37883
    endloop
  endfacet
  facet normal -1.97843e-016 -0.453995 0.891004
    outer loop
      vertex -7.5 -5.60876 3.37883
      vertex -7.5 -5.71231 3.32607
      vertex -5 -5.60876 3.37883
    endloop
  endfacet
  facet normal -1.91124e-016 -0.509034 0.860746
    outer loop
      vertex -7.5 -5.60876 3.37883
      vertex -5 -5.60876 3.37883
      vertex -5 -5.50872 3.43799
    endloop
  endfacet
  facet normal -1.91124e-016 -0.509034 0.860746
    outer loop
      vertex -7.5 -5.50872 3.43799
      vertex -7.5 -5.60876 3.37883
      vertex -5 -5.50872 3.43799
    endloop
  endfacet
  facet normal -1.83648e-016 -0.562089 0.827077
    outer loop
      vertex -7.5 -5.50872 3.43799
      vertex -5 -5.50872 3.43799
      vertex -5 -5.4126 3.50332
    endloop
  endfacet
  facet normal -1.83648e-016 -0.562089 0.827077
    outer loop
      vertex -7.5 -5.4126 3.50332
      vertex -7.5 -5.50872 3.43799
      vertex -5 -5.4126 3.50332
    endloop
  endfacet
  facet normal -1.75449e-016 -0.61291 0.790153
    outer loop
      vertex -7.5 -5.4126 3.50332
      vertex -5 -5.4126 3.50332
      vertex -5 -5.32077 3.57455
    endloop
  endfacet
  facet normal -1.75449e-016 -0.61291 0.790153
    outer loop
      vertex -7.5 -5.32077 3.57455
      vertex -7.5 -5.4126 3.50332
      vertex -5 -5.32077 3.57455
    endloop
  endfacet
  facet normal -1.66559e-016 -0.661308 0.750114
    outer loop
      vertex -7.5 -5.32077 3.57455
      vertex -5 -5.32077 3.57455
      vertex -5 -5.23359 3.65141
    endloop
  endfacet
  facet normal -1.66559e-016 -0.661308 0.750114
    outer loop
      vertex -7.5 -5.23359 3.65141
      vertex -7.5 -5.32077 3.57455
      vertex -5 -5.23359 3.65141
    endloop
  endfacet
  facet normal -1.57009e-016 -0.707107 0.707107
    outer loop
      vertex -7.5 -5.23359 3.65141
      vertex -5 -5.23359 3.65141
      vertex -5 -5.15141 3.73359
    endloop
  endfacet
  facet normal -1.57009e-016 -0.707107 0.707107
    outer loop
      vertex -7.5 -5.15141 3.73359
      vertex -7.5 -5.23359 3.65141
      vertex -5 -5.15141 3.73359
    endloop
  endfacet
  facet normal -1.4684e-016 -0.750114 0.661308
    outer loop
      vertex -7.5 -5.15141 3.73359
      vertex -5 -5.15141 3.73359
      vertex -5 -5.07455 3.82077
    endloop
  endfacet
  facet normal -1.4684e-016 -0.750114 0.661308
    outer loop
      vertex -7.5 -5.07455 3.82077
      vertex -7.5 -5.15141 3.73359
      vertex -5 -5.07455 3.82077
    endloop
  endfacet
  facet normal -1.36093e-016 -0.790153 0.61291
    outer loop
      vertex -7.5 -5.07455 3.82077
      vertex -5 -5.07455 3.82077
      vertex -5 -5.00332 3.9126
    endloop
  endfacet
  facet normal -1.36093e-016 -0.790153 0.61291
    outer loop
      vertex -7.5 -5.00332 3.9126
      vertex -7.5 -5.07455 3.82077
      vertex -5 -5.00332 3.9126
    endloop
  endfacet
  facet normal -1.24809e-016 -0.827077 0.562089
    outer loop
      vertex -7.5 -5.00332 3.9126
      vertex -5 -5.00332 3.9126
      vertex -5 -4.93799 4.00872
    endloop
  endfacet
  facet normal -1.24809e-016 -0.827077 0.562089
    outer loop
      vertex -7.5 -4.93799 4.00872
      vertex -7.5 -5.00332 3.9126
      vertex -5 -4.93799 4.00872
    endloop
  endfacet
  facet normal -1.13028e-016 -0.860746 0.509034
    outer loop
      vertex -7.5 -4.93799 4.00872
      vertex -5 -4.93799 4.00872
      vertex -5 -4.87883 4.10876
    endloop
  endfacet
  facet normal -1.13028e-016 -0.860746 0.509034
    outer loop
      vertex -7.5 -4.87883 4.10876
      vertex -7.5 -4.93799 4.00872
      vertex -5 -4.87883 4.10876
    endloop
  endfacet
  facet normal -1.00807e-016 -0.891004 0.453995
    outer loop
      vertex -7.5 -4.87883 4.10876
      vertex -5 -4.87883 4.10876
      vertex -5 -4.82607 4.21231
    endloop
  endfacet
  facet normal -1.00807e-016 -0.891004 0.453995
    outer loop
      vertex -7.5 -4.82607 4.21231
      vertex -7.5 -4.87883 4.10876
      vertex -5 -4.82607 4.21231
    endloop
  endfacet
  facet normal -8.81833e-017 -0.917757 0.397142
    outer loop
      vertex -7.5 -4.82607 4.21231
      vertex -5 -4.82607 4.21231
      vertex -5 -4.77991 4.31897
    endloop
  endfacet
  facet normal -8.81833e-017 -0.917757 0.397142
    outer loop
      vertex -7.5 -4.77991 4.31897
      vertex -7.5 -4.82607 4.21231
      vertex -5 -4.77991 4.31897
    endloop
  endfacet
  facet normal -7.52165e-017 -0.940878 0.338745
    outer loop
      vertex -7.5 -4.77991 4.31897
      vertex -5 -4.77991 4.31897
      vertex -5 -4.74055 4.42832
    endloop
  endfacet
  facet normal -7.52165e-017 -0.940878 0.338745
    outer loop
      vertex -7.5 -4.74055 4.42832
      vertex -7.5 -4.77991 4.31897
      vertex -5 -4.74055 4.42832
    endloop
  endfacet
  facet normal -6.1948e-017 -0.960294 0.278989
    outer loop
      vertex -7.5 -4.74055 4.42832
      vertex -5 -4.74055 4.42832
      vertex -5 -4.70812 4.53992
    endloop
  endfacet
  facet normal -6.1948e-017 -0.960294 0.278989
    outer loop
      vertex -7.5 -4.70812 4.53992
      vertex -7.5 -4.74055 4.42832
      vertex -5 -4.70812 4.53992
    endloop
  endfacet
  facet normal -4.84364e-017 -0.975918 0.218138
    outer loop
      vertex -7.5 -4.70812 4.53992
      vertex -5 -4.70812 4.53992
      vertex -5 -4.68277 4.65335
    endloop
  endfacet
  facet normal -4.84364e-017 -0.975918 0.218138
    outer loop
      vertex -7.5 -4.68277 4.65334
      vertex -7.5 -4.70812 4.53992
      vertex -5 -4.68277 4.65335
    endloop
  endfacet
  facet normal -3.47358e-017 -0.987688 0.156436
    outer loop
      vertex -7.5 -4.68277 4.65334
      vertex -5 -4.68277 4.65335
      vertex -5 -4.66459 4.76813
    endloop
  endfacet
  facet normal -3.47358e-017 -0.987688 0.156436
    outer loop
      vertex -7.5 -4.66459 4.76813
      vertex -7.5 -4.68277 4.65334
      vertex -5 -4.66459 4.76813
    endloop
  endfacet
  facet normal -2.08958e-017 -0.995562 0.0941062
    outer loop
      vertex -7.5 -4.66459 4.76813
      vertex -5 -4.66459 4.76813
      vertex -5 -4.65365 4.88384
    endloop
  endfacet
  facet normal -2.08958e-017 -0.995562 0.0941062
    outer loop
      vertex -7.5 -4.65365 4.88384
      vertex -7.5 -4.66459 4.76813
      vertex -5 -4.65365 4.88384
    endloop
  endfacet
  facet normal -6.97547e-018 -0.999506 0.0314147
    outer loop
      vertex -7.5 -4.65365 4.88384
      vertex -5 -4.65365 4.88384
      vertex -5 -4.65 5
    endloop
  endfacet
  facet normal -6.97547e-018 -0.999506 0.0314147
    outer loop
      vertex -7.5 -4.65 5
      vertex -7.5 -4.65365 4.88384
      vertex -5 -4.65 5
    endloop
  endfacet
  facet normal 6.97547e-018 -0.999506 -0.0314147
    outer loop
      vertex -7.5 -4.65 5
      vertex -5 -4.65 5
      vertex -5 -4.65365 5.11616
    endloop
  endfacet
  facet normal 6.97547e-018 -0.999506 -0.0314147
    outer loop
      vertex -7.5 -4.65365 5.11616
      vertex -7.5 -4.65 5
      vertex -5 -4.65365 5.11616
    endloop
  endfacet
  facet normal 2.08958e-017 -0.995562 -0.0941062
    outer loop
      vertex -7.5 -4.65365 5.11616
      vertex -5 -4.65365 5.11616
      vertex -5 -4.66459 5.23187
    endloop
  endfacet
  facet normal 2.08958e-017 -0.995562 -0.0941062
    outer loop
      vertex -7.5 -4.66459 5.23187
      vertex -7.5 -4.65365 5.11616
      vertex -5 -4.66459 5.23187
    endloop
  endfacet
  facet normal 3.47358e-017 -0.987688 -0.156436
    outer loop
      vertex -7.5 -4.66459 5.23187
      vertex -5 -4.66459 5.23187
      vertex -5 -4.68277 5.34666
    endloop
  endfacet
  facet normal 3.47358e-017 -0.987688 -0.156436
    outer loop
      vertex -7.5 -4.68277 5.34666
      vertex -7.5 -4.66459 5.23187
      vertex -5 -4.68277 5.34666
    endloop
  endfacet
  facet normal 4.84364e-017 -0.975918 -0.218138
    outer loop
      vertex -7.5 -4.68277 5.34666
      vertex -5 -4.68277 5.34666
      vertex -5 -4.70812 5.46008
    endloop
  endfacet
  facet normal 4.84364e-017 -0.975918 -0.218138
    outer loop
      vertex -7.5 -4.70812 5.46008
      vertex -7.5 -4.68277 5.34666
      vertex -5 -4.70812 5.46008
    endloop
  endfacet
  facet normal 6.1948e-017 -0.960294 -0.278989
    outer loop
      vertex -7.5 -4.70812 5.46008
      vertex -5 -4.70812 5.46008
      vertex -5 -4.74055 5.57168
    endloop
  endfacet
  facet normal 6.1948e-017 -0.960294 -0.278989
    outer loop
      vertex -7.5 -4.74055 5.57168
      vertex -7.5 -4.70812 5.46008
      vertex -5 -4.74055 5.57168
    endloop
  endfacet
  facet normal 7.52165e-017 -0.940878 -0.338745
    outer loop
      vertex -7.5 -4.74055 5.57168
      vertex -5 -4.74055 5.57168
      vertex -5 -4.77991 5.68103
    endloop
  endfacet
  facet normal 7.52165e-017 -0.940878 -0.338745
    outer loop
      vertex -7.5 -4.77991 5.68103
      vertex -7.5 -4.74055 5.57168
      vertex -5 -4.77991 5.68103
    endloop
  endfacet
  facet normal 8.81833e-017 -0.917757 -0.397142
    outer loop
      vertex -7.5 -4.77991 5.68103
      vertex -5 -4.77991 5.68103
      vertex -5 -4.82607 5.78769
    endloop
  endfacet
  facet normal 8.81833e-017 -0.917757 -0.397142
    outer loop
      vertex -7.5 -4.82607 5.78769
      vertex -7.5 -4.77991 5.68103
      vertex -5 -4.82607 5.78769
    endloop
  endfacet
  facet normal 1.00807e-016 -0.891004 -0.453995
    outer loop
      vertex -7.5 -4.82607 5.78769
      vertex -5 -4.82607 5.78769
      vertex -5 -4.87883 5.89124
    endloop
  endfacet
  facet normal 1.00807e-016 -0.891004 -0.453995
    outer loop
      vertex -7.5 -4.87883 5.89124
      vertex -7.5 -4.82607 5.78769
      vertex -5 -4.87883 5.89124
    endloop
  endfacet
  facet normal 1.13028e-016 -0.860746 -0.509034
    outer loop
      vertex -7.5 -4.87883 5.89124
      vertex -5 -4.87883 5.89124
      vertex -5 -4.93799 5.99128
    endloop
  endfacet
  facet normal 1.13028e-016 -0.860746 -0.509034
    outer loop
      vertex -7.5 -4.93799 5.99128
      vertex -7.5 -4.87883 5.89124
      vertex -5 -4.93799 5.99128
    endloop
  endfacet
  facet normal 1.24809e-016 -0.827077 -0.562089
    outer loop
      vertex -7.5 -4.93799 5.99128
      vertex -5 -4.93799 5.99128
      vertex -5 -5.00332 6.0874
    endloop
  endfacet
  facet normal 1.24809e-016 -0.827077 -0.562089
    outer loop
      vertex -7.5 -5.00332 6.0874
      vertex -7.5 -4.93799 5.99128
      vertex -5 -5.00332 6.0874
    endloop
  endfacet
  facet normal 1.36093e-016 -0.790153 -0.61291
    outer loop
      vertex -7.5 -5.00332 6.0874
      vertex -5 -5.00332 6.0874
      vertex -5 -5.07455 6.17923
    endloop
  endfacet
  facet normal 1.36093e-016 -0.790153 -0.61291
    outer loop
      vertex -7.5 -5.07455 6.17923
      vertex -7.5 -5.00332 6.0874
      vertex -5 -5.07455 6.17923
    endloop
  endfacet
  facet normal 1.4684e-016 -0.750114 -0.661308
    outer loop
      vertex -7.5 -5.07455 6.17923
      vertex -5 -5.07455 6.17923
      vertex -5 -5.15141 6.26641
    endloop
  endfacet
  facet normal 1.4684e-016 -0.750114 -0.661308
    outer loop
      vertex -7.5 -5.15141 6.26641
      vertex -7.5 -5.07455 6.17923
      vertex -5 -5.15141 6.26641
    endloop
  endfacet
  facet normal 1.57009e-016 -0.707107 -0.707107
    outer loop
      vertex -7.5 -5.15141 6.26641
      vertex -5 -5.15141 6.26641
      vertex -5 -5.23359 6.34859
    endloop
  endfacet
  facet normal 1.57009e-016 -0.707107 -0.707107
    outer loop
      vertex -7.5 -5.23359 6.34859
      vertex -7.5 -5.15141 6.26641
      vertex -5 -5.23359 6.34859
    endloop
  endfacet
  facet normal 1.66559e-016 -0.661308 -0.750114
    outer loop
      vertex -5 -5.23359 6.34859
      vertex -5 -5.32077 6.42545
      vertex -7.5 -5.23359 6.34859
    endloop
  endfacet
  facet normal 1.66559e-016 -0.661308 -0.750114
    outer loop
      vertex -7.5 -5.23359 6.34859
      vertex -5 -5.32077 6.42545
      vertex -7.5 -5.32077 6.42545
    endloop
  endfacet
  facet normal 1.75449e-016 -0.61291 -0.790153
    outer loop
      vertex -5 -5.32077 6.42545
      vertex -5 -5.4126 6.49668
      vertex -7.5 -5.32077 6.42545
    endloop
  endfacet
  facet normal 1.75449e-016 -0.61291 -0.790153
    outer loop
      vertex -7.5 -5.32077 6.42545
      vertex -5 -5.4126 6.49668
      vertex -7.5 -5.4126 6.49668
    endloop
  endfacet
  facet normal 1.83648e-016 -0.562089 -0.827077
    outer loop
      vertex -5 -5.4126 6.49668
      vertex -5 -5.50872 6.56201
      vertex -7.5 -5.4126 6.49668
    endloop
  endfacet
  facet normal 1.83648e-016 -0.562089 -0.827077
    outer loop
      vertex -7.5 -5.4126 6.49668
      vertex -5 -5.50872 6.56201
      vertex -7.5 -5.50872 6.56201
    endloop
  endfacet
  facet normal 1.91124e-016 -0.509034 -0.860746
    outer loop
      vertex -5 -5.50872 6.56201
      vertex -5 -5.60876 6.62117
      vertex -7.5 -5.50872 6.56201
    endloop
  endfacet
  facet normal 1.91124e-016 -0.509034 -0.860746
    outer loop
      vertex -7.5 -5.50872 6.56201
      vertex -5 -5.60876 6.62117
      vertex -7.5 -5.60876 6.62117
    endloop
  endfacet
  facet normal 1.97843e-016 -0.453995 -0.891004
    outer loop
      vertex -5 -5.60876 6.62117
      vertex -5 -5.71231 6.67393
      vertex -7.5 -5.60876 6.62117
    endloop
  endfacet
  facet normal 1.97843e-016 -0.453995 -0.891004
    outer loop
      vertex -7.5 -5.60876 6.62117
      vertex -5 -5.71231 6.67393
      vertex -7.5 -5.71231 6.67393
    endloop
  endfacet
  facet normal 2.03783e-016 -0.397142 -0.917757
    outer loop
      vertex -5 -5.71231 6.67393
      vertex -5 -5.81897 6.72009
      vertex -7.5 -5.71231 6.67393
    endloop
  endfacet
  facet normal 2.03783e-016 -0.397142 -0.917757
    outer loop
      vertex -7.5 -5.71231 6.67393
      vertex -5 -5.81897 6.72009
      vertex -7.5 -5.81897 6.72009
    endloop
  endfacet
  facet normal 2.08917e-016 -0.338745 -0.940878
    outer loop
      vertex -5 -5.81897 6.72009
      vertex -5 -5.92832 6.75946
      vertex -7.5 -5.81897 6.72009
    endloop
  endfacet
  facet normal 2.08917e-016 -0.338745 -0.940878
    outer loop
      vertex -7.5 -5.81897 6.72009
      vertex -5 -5.92832 6.75946
      vertex -7.5 -5.92832 6.75946
    endloop
  endfacet
  facet normal 2.13228e-016 -0.278989 -0.960294
    outer loop
      vertex -5 -5.92832 6.75946
      vertex -5 -6.03992 6.79188
      vertex -7.5 -5.92832 6.75946
    endloop
  endfacet
  facet normal 2.13228e-016 -0.278989 -0.960294
    outer loop
      vertex -7.5 -5.92832 6.75946
      vertex -5 -6.03992 6.79188
      vertex -7.5 -6.03992 6.79188
    endloop
  endfacet
  facet normal 2.16697e-016 -0.218138 -0.975918
    outer loop
      vertex -5 -6.03992 6.79188
      vertex -5 -6.15334 6.81723
      vertex -7.5 -6.03992 6.79188
    endloop
  endfacet
  facet normal 2.16697e-016 -0.218138 -0.975918
    outer loop
      vertex -7.5 -6.03992 6.79188
      vertex -5 -6.15334 6.81723
      vertex -7.5 -6.15334 6.81723
    endloop
  endfacet
  facet normal 2.19311e-016 -0.156436 -0.987688
    outer loop
      vertex -5 -6.15334 6.81723
      vertex -5 -6.26813 6.83541
      vertex -7.5 -6.15334 6.81723
    endloop
  endfacet
  facet normal 2.19311e-016 -0.156436 -0.987688
    outer loop
      vertex -7.5 -6.15334 6.81723
      vertex -5 -6.26813 6.83541
      vertex -7.5 -6.26813 6.83541
    endloop
  endfacet
  facet normal 2.21059e-016 -0.0941062 -0.995562
    outer loop
      vertex -5 -6.26813 6.83541
      vertex -5 -6.38384 6.84635
      vertex -7.5 -6.26813 6.83541
    endloop
  endfacet
  facet normal 2.21059e-016 -0.0941062 -0.995562
    outer loop
      vertex -7.5 -6.26813 6.83541
      vertex -5 -6.38384 6.84635
      vertex -7.5 -6.38384 6.84635
    endloop
  endfacet
  facet normal 2.21935e-016 -0.0314147 -0.999506
    outer loop
      vertex -5 -6.38384 6.84635
      vertex -5 -6.5 6.85
      vertex -7.5 -6.38384 6.84635
    endloop
  endfacet
  facet normal 2.21935e-016 -0.0314147 -0.999506
    outer loop
      vertex -7.5 -6.38384 6.84635
      vertex -5 -6.5 6.85
      vertex -7.5 -6.5 6.85
    endloop
  endfacet
  facet normal 2.21935e-016 0.0314147 -0.999506
    outer loop
      vertex -5 -6.61616 6.84635
      vertex -7.5 -6.61616 6.84635
      vertex -5 -6.5 6.85
    endloop
  endfacet
  facet normal 2.21935e-016 0.0314147 -0.999506
    outer loop
      vertex -5 -6.5 6.85
      vertex -7.5 -6.61616 6.84635
      vertex -7.5 -6.5 6.85
    endloop
  endfacet
  facet normal 2.21059e-016 0.0941062 -0.995562
    outer loop
      vertex -5 -6.73187 6.83541
      vertex -7.5 -6.73187 6.83541
      vertex -5 -6.61616 6.84635
    endloop
  endfacet
  facet normal 2.21059e-016 0.0941062 -0.995562
    outer loop
      vertex -5 -6.61616 6.84635
      vertex -7.5 -6.73187 6.83541
      vertex -7.5 -6.61616 6.84635
    endloop
  endfacet
  facet normal 2.19311e-016 0.156436 -0.987688
    outer loop
      vertex -5 -6.84665 6.81723
      vertex -7.5 -6.84665 6.81723
      vertex -5 -6.73187 6.83541
    endloop
  endfacet
  facet normal 2.19311e-016 0.156436 -0.987688
    outer loop
      vertex -5 -6.73187 6.83541
      vertex -7.5 -6.84665 6.81723
      vertex -7.5 -6.73187 6.83541
    endloop
  endfacet
  facet normal 2.16697e-016 0.218138 -0.975918
    outer loop
      vertex -5 -6.96008 6.79188
      vertex -7.5 -6.96008 6.79188
      vertex -5 -6.84665 6.81723
    endloop
  endfacet
  facet normal 2.16697e-016 0.218138 -0.975918
    outer loop
      vertex -5 -6.84665 6.81723
      vertex -7.5 -6.96008 6.79188
      vertex -7.5 -6.84665 6.81723
    endloop
  endfacet
  facet normal 2.13228e-016 0.278989 -0.960294
    outer loop
      vertex -5 -7.07168 6.75946
      vertex -7.5 -7.07168 6.75946
      vertex -5 -6.96008 6.79188
    endloop
  endfacet
  facet normal 2.13228e-016 0.278989 -0.960294
    outer loop
      vertex -5 -6.96008 6.79188
      vertex -7.5 -7.07168 6.75946
      vertex -7.5 -6.96008 6.79188
    endloop
  endfacet
  facet normal 2.08917e-016 0.338745 -0.940878
    outer loop
      vertex -5 -7.18103 6.72009
      vertex -7.5 -7.18103 6.72009
      vertex -5 -7.07168 6.75946
    endloop
  endfacet
  facet normal 2.08917e-016 0.338745 -0.940878
    outer loop
      vertex -5 -7.07168 6.75946
      vertex -7.5 -7.18103 6.72009
      vertex -7.5 -7.07168 6.75946
    endloop
  endfacet
  facet normal 2.03783e-016 0.397142 -0.917757
    outer loop
      vertex -5 -7.28769 6.67393
      vertex -7.5 -7.28769 6.67393
      vertex -5 -7.18103 6.72009
    endloop
  endfacet
  facet normal 2.03783e-016 0.397142 -0.917757
    outer loop
      vertex -5 -7.18103 6.72009
      vertex -7.5 -7.28769 6.67393
      vertex -7.5 -7.18103 6.72009
    endloop
  endfacet
  facet normal 1.97843e-016 0.453995 -0.891004
    outer loop
      vertex -5 -7.39124 6.62117
      vertex -7.5 -7.39124 6.62117
      vertex -5 -7.28769 6.67393
    endloop
  endfacet
  facet normal 1.97843e-016 0.453995 -0.891004
    outer loop
      vertex -5 -7.28769 6.67393
      vertex -7.5 -7.39124 6.62117
      vertex -7.5 -7.28769 6.67393
    endloop
  endfacet
  facet normal 1.91124e-016 0.509034 -0.860746
    outer loop
      vertex -5 -7.49128 6.56201
      vertex -7.5 -7.49128 6.56201
      vertex -5 -7.39124 6.62117
    endloop
  endfacet
  facet normal 1.91124e-016 0.509034 -0.860746
    outer loop
      vertex -5 -7.39124 6.62117
      vertex -7.5 -7.49128 6.56201
      vertex -7.5 -7.39124 6.62117
    endloop
  endfacet
  facet normal 1.83648e-016 0.562089 -0.827077
    outer loop
      vertex -5 -7.5874 6.49668
      vertex -7.5 -7.5874 6.49668
      vertex -5 -7.49128 6.56201
    endloop
  endfacet
  facet normal 1.83648e-016 0.562089 -0.827077
    outer loop
      vertex -5 -7.49128 6.56201
      vertex -7.5 -7.5874 6.49668
      vertex -7.5 -7.49128 6.56201
    endloop
  endfacet
  facet normal 1.75449e-016 0.61291 -0.790153
    outer loop
      vertex -5 -7.67923 6.42545
      vertex -7.5 -7.67923 6.42545
      vertex -5 -7.5874 6.49668
    endloop
  endfacet
  facet normal 1.75449e-016 0.61291 -0.790153
    outer loop
      vertex -5 -7.5874 6.49668
      vertex -7.5 -7.67923 6.42545
      vertex -7.5 -7.5874 6.49668
    endloop
  endfacet
  facet normal 1.66559e-016 0.661308 -0.750114
    outer loop
      vertex -5 -7.76641 6.34859
      vertex -7.5 -7.76641 6.34859
      vertex -5 -7.67923 6.42545
    endloop
  endfacet
  facet normal 1.66559e-016 0.661308 -0.750114
    outer loop
      vertex -5 -7.67923 6.42545
      vertex -7.5 -7.76641 6.34859
      vertex -7.5 -7.67923 6.42545
    endloop
  endfacet
  facet normal 1.57009e-016 0.707107 -0.707107
    outer loop
      vertex -5 -7.84859 6.26641
      vertex -7.5 -7.84859 6.26641
      vertex -5 -7.76641 6.34859
    endloop
  endfacet
  facet normal 1.57009e-016 0.707107 -0.707107
    outer loop
      vertex -5 -7.76641 6.34859
      vertex -7.5 -7.84859 6.26641
      vertex -7.5 -7.76641 6.34859
    endloop
  endfacet
  facet normal 1.4684e-016 0.750114 -0.661308
    outer loop
      vertex -5 -7.92545 6.17923
      vertex -7.5 -7.92545 6.17923
      vertex -5 -7.84859 6.26641
    endloop
  endfacet
  facet normal 1.4684e-016 0.750114 -0.661308
    outer loop
      vertex -5 -7.84859 6.26641
      vertex -7.5 -7.92545 6.17923
      vertex -7.5 -7.84859 6.26641
    endloop
  endfacet
  facet normal 1.36093e-016 0.790153 -0.61291
    outer loop
      vertex -5 -7.99668 6.0874
      vertex -7.5 -7.99668 6.0874
      vertex -5 -7.92545 6.17923
    endloop
  endfacet
  facet normal 1.36093e-016 0.790153 -0.61291
    outer loop
      vertex -5 -7.92545 6.17923
      vertex -7.5 -7.99668 6.0874
      vertex -7.5 -7.92545 6.17923
    endloop
  endfacet
  facet normal 1.24809e-016 0.827077 -0.562089
    outer loop
      vertex -5 -8.06201 5.99128
      vertex -7.5 -8.06201 5.99128
      vertex -5 -7.99668 6.0874
    endloop
  endfacet
  facet normal 1.24809e-016 0.827077 -0.562089
    outer loop
      vertex -5 -7.99668 6.0874
      vertex -7.5 -8.06201 5.99128
      vertex -7.5 -7.99668 6.0874
    endloop
  endfacet
  facet normal 1.13028e-016 0.860746 -0.509034
    outer loop
      vertex -5 -8.12117 5.89124
      vertex -7.5 -8.12117 5.89124
      vertex -5 -8.06201 5.99128
    endloop
  endfacet
  facet normal 1.13028e-016 0.860746 -0.509034
    outer loop
      vertex -5 -8.06201 5.99128
      vertex -7.5 -8.12117 5.89124
      vertex -7.5 -8.06201 5.99128
    endloop
  endfacet
  facet normal 1.00807e-016 0.891004 -0.453995
    outer loop
      vertex -5 -8.17393 5.78769
      vertex -7.5 -8.17393 5.78769
      vertex -5 -8.12117 5.89124
    endloop
  endfacet
  facet normal 1.00807e-016 0.891004 -0.453995
    outer loop
      vertex -5 -8.12117 5.89124
      vertex -7.5 -8.17393 5.78769
      vertex -7.5 -8.12117 5.89124
    endloop
  endfacet
  facet normal 8.81833e-017 0.917757 -0.397142
    outer loop
      vertex -5 -8.22009 5.68103
      vertex -7.5 -8.22009 5.68103
      vertex -5 -8.17393 5.78769
    endloop
  endfacet
  facet normal 8.81833e-017 0.917757 -0.397142
    outer loop
      vertex -5 -8.17393 5.78769
      vertex -7.5 -8.22009 5.68103
      vertex -7.5 -8.17393 5.78769
    endloop
  endfacet
  facet normal 7.52165e-017 0.940878 -0.338745
    outer loop
      vertex -5 -8.25945 5.57168
      vertex -7.5 -8.25945 5.57168
      vertex -5 -8.22009 5.68103
    endloop
  endfacet
  facet normal 7.52165e-017 0.940878 -0.338745
    outer loop
      vertex -5 -8.22009 5.68103
      vertex -7.5 -8.25945 5.57168
      vertex -7.5 -8.22009 5.68103
    endloop
  endfacet
  facet normal 6.1948e-017 0.960294 -0.278989
    outer loop
      vertex -5 -8.29188 5.46008
      vertex -7.5 -8.29188 5.46008
      vertex -5 -8.25945 5.57168
    endloop
  endfacet
  facet normal 6.1948e-017 0.960294 -0.278989
    outer loop
      vertex -5 -8.25945 5.57168
      vertex -7.5 -8.29188 5.46008
      vertex -7.5 -8.25945 5.57168
    endloop
  endfacet
  facet normal 4.84364e-017 0.975918 -0.218138
    outer loop
      vertex -5 -8.31723 5.34666
      vertex -7.5 -8.31723 5.34666
      vertex -5 -8.29188 5.46008
    endloop
  endfacet
  facet normal 4.84364e-017 0.975918 -0.218138
    outer loop
      vertex -5 -8.29188 5.46008
      vertex -7.5 -8.31723 5.34666
      vertex -7.5 -8.29188 5.46008
    endloop
  endfacet
  facet normal 3.47358e-017 0.987688 -0.156436
    outer loop
      vertex -5 -8.33541 5.23187
      vertex -7.5 -8.33541 5.23187
      vertex -5 -8.31723 5.34666
    endloop
  endfacet
  facet normal 3.47358e-017 0.987688 -0.156436
    outer loop
      vertex -5 -8.31723 5.34666
      vertex -7.5 -8.33541 5.23187
      vertex -7.5 -8.31723 5.34666
    endloop
  endfacet
  facet normal 2.08958e-017 0.995562 -0.0941062
    outer loop
      vertex -5 -8.34635 5.11616
      vertex -7.5 -8.34635 5.11616
      vertex -5 -8.33541 5.23187
    endloop
  endfacet
  facet normal 2.08958e-017 0.995562 -0.0941062
    outer loop
      vertex -5 -8.33541 5.23187
      vertex -7.5 -8.34635 5.11616
      vertex -7.5 -8.33541 5.23187
    endloop
  endfacet
  facet normal 6.97547e-018 0.999506 -0.0314147
    outer loop
      vertex -5 -8.35 5
      vertex -7.5 -8.35 5
      vertex -5 -8.34635 5.11616
    endloop
  endfacet
  facet normal 6.97547e-018 0.999506 -0.0314147
    outer loop
      vertex -5 -8.34635 5.11616
      vertex -7.5 -8.35 5
      vertex -7.5 -8.34635 5.11616
    endloop
  endfacet
endsolid OpenSCAD_Model
